STARTFONT 2.1
COMMENT  
COMMENT   16x16 JIS Supplementary Kanji Font, Version 0.3 (February 17, 1995)
COMMENT        gathered from hku16.bdf, unihan16.bdf, and cclib16ft.bdf
COMMENT   JISX9051-based re-design by
COMMENT        Koichi Yasuoka <yasuoka@kudpc.kyoto-u.ac.jp>
COMMENT        KANOU Hiroki <g2k032@cfi.waseda.ac.jp>
COMMENT        ITO Takayuki <yuki@is.s.u-tokyo.ac.jp>
COMMENT        Toshiyuki Imamura <imamura@kuamp.kyoto-u.ac.jp>
COMMENT        Ken'ichi Nakata <nakata@kuamp.kyoto-u.ac.jp>
COMMENT        SUNAGAWA Keiki <kei@ocean.ie.u-ryukyu.ac.jp>
COMMENT   63-58 to 66-53 and 70-37 to 75-94 are left to be re-designed
COMMENT  
FONT -Misc-Fixed-Medium-R-Normal--16-150-75-75-C-160-JISX0212.1990-0
SIZE 15 75 75
FONTBOUNDINGBOX 16 16 0 -2
STARTPROPERTIES 18
FONT_ASCENT 14
FONT_DESCENT 2
COPYRIGHT "Public Domain"
FONTNAME_REGISTRY ""
FOUNDRY "Misc"
FAMILY_NAME "Fixed"
WEIGHT_NAME "Medium"
SLANT "R"
SETWIDTH_NAME "Normal"
ADD_STYLE_NAME ""
PIXEL_SIZE 16
POINT_SIZE 150
RESOLUTION_X 75
RESOLUTION_Y 75
SPACING "C"
AVERAGE_WIDTH 160
CHARSET_REGISTRY "JISX0212.1990"
CHARSET_ENCODING "0"
ENDPROPERTIES
CHARS 6067
STARTCHAR 02-15
ENCODING 8751
SWIDTH 1024 0
DWIDTH 16 0
BBX 16 16 0 -2
BITMAP
0410
0410
0220
01c0
0000
0000
0000
0000
0000
0000
0000
0000
0000
0000
0000
0000
ENDCHAR
STARTCHAR 02-16
ENCODING 8752
SWIDTH 1024 0
DWIDTH 16 0
BBX 16 16 0 -2
BITMAP
0410
0220
0140
0080
0000
0000
0000
0000
0000
0000
0000
0000
0000
0000
0000
0000
ENDCHAR
STARTCHAR 02-17
ENCODING 8753
SWIDTH 1024 0
DWIDTH 16 0
BBX 16 16 0 -2
BITMAP
0000
0000
0000
0000
0000
0000
0000
0000
0000
0000
0000
0080
00c0
0020
0120
00c0
ENDCHAR
STARTCHAR 02-18
ENCODING 8754
SWIDTH 1024 0
DWIDTH 16 0
BBX 16 16 0 -2
BITMAP
0000
0180
0180
0000
0000
0000
0000
0000
0000
0000
0000
0000
0000
0000
0000
0000
ENDCHAR
STARTCHAR 02-19
ENCODING 8755
SWIDTH 1024 0
DWIDTH 16 0
BBX 16 16 0 -2
BITMAP
00a0
0140
0280
0000
0000
0000
0000
0000
0000
0000
0000
0000
0000
0000
0000
0000
ENDCHAR
STARTCHAR 02-20
ENCODING 8756
SWIDTH 1024 0
DWIDTH 16 0
BBX 16 16 0 -2
BITMAP
03c0
0000
0000
0000
0000
0000
0000
0000
0000
0000
0000
0000
0000
0000
0000
0000
ENDCHAR
STARTCHAR 02-21
ENCODING 8757
SWIDTH 1024 0
DWIDTH 16 0
BBX 16 16 0 -2
BITMAP
0000
0000
0000
0000
0000
0000
0000
0000
0000
0000
0000
0000
0000
0004
0004
0003
ENDCHAR
STARTCHAR 02-22
ENCODING 8758
SWIDTH 1024 0
DWIDTH 16 0
BBX 16 16 0 -2
BITMAP
0180
0240
0240
0180
0000
0000
0000
0000
0000
0000
0000
0000
0000
0000
0000
0000
ENDCHAR
STARTCHAR 02-23
ENCODING 8759
SWIDTH 1024 0
DWIDTH 16 0
BBX 16 16 0 -2
BITMAP
0320
04c0
0000
0000
0000
0000
0000
0000
0000
0000
0000
0000
0000
0000
0000
0000
ENDCHAR
STARTCHAR 02-24
ENCODING 8760
SWIDTH 1024 0
DWIDTH 16 0
BBX 16 16 0 -2
BITMAP
0080
0080
0080
0000
0000
0000
0000
0000
0000
0000
0000
0000
0000
0000
0000
0000
ENDCHAR
STARTCHAR 02-25
ENCODING 8761
SWIDTH 1024 0
DWIDTH 16 0
BBX 16 16 0 -2
BITMAP
0080
0080
0000
0360
0360
0000
0000
0000
0000
0000
0000
0000
0000
0000
0000
0000
ENDCHAR
STARTCHAR 02-34
ENCODING 8770
SWIDTH 1024 0
DWIDTH 16 0
BBX 16 16 0 -2
BITMAP
0000
0180
0180
0000
0000
0100
0100
0100
0100
0180
0180
0180
0180
0180
0000
0000
ENDCHAR
STARTCHAR 02-35
ENCODING 8771
SWIDTH 1024 0
DWIDTH 16 0
BBX 16 16 0 -2
BITMAP
0000
0080
0080
0080
0080
0080
0080
0000
0000
0080
0080
0080
0080
0080
0080
0000
ENDCHAR
STARTCHAR 02-36
ENCODING 8772
SWIDTH 1024 0
DWIDTH 16 0
BBX 16 16 0 -2
BITMAP
0000
0180
0180
0000
0000
0080
0080
0300
0c00
1010
1008
1008
0810
07e0
0000
0000
ENDCHAR
STARTCHAR 02-75
ENCODING 8811
SWIDTH 1024 0
DWIDTH 16 0
BBX 16 16 0 -2
BITMAP
3000
4800
4800
4800
3000
0000
7800
0000
0000
0000
0000
0000
0000
0000
0000
0000
ENDCHAR
STARTCHAR 02-76
ENCODING 8812
SWIDTH 1024 0
DWIDTH 16 0
BBX 16 16 0 -2
BITMAP
3000
0800
3800
4800
3800
0000
7800
0000
0000
0000
0000
0000
0000
0000
0000
0000
ENDCHAR
STARTCHAR 02-77
ENCODING 8813
SWIDTH 1024 0
DWIDTH 16 0
BBX 16 16 0 -2
BITMAP
03c0
0c30
1008
23c4
4422
4812
8801
8801
8801
8801
4812
4422
23c4
1008
0c30
03c0
ENDCHAR
STARTCHAR 02-78
ENCODING 8814
SWIDTH 1024 0
DWIDTH 16 0
BBX 16 16 0 -2
BITMAP
03c0
0c30
1008
27c4
4422
4412
8421
87c1
8421
8421
4412
4412
2004
1008
0c30
03c0
ENDCHAR
STARTCHAR 02-79
ENCODING 8815
SWIDTH 1024 0
DWIDTH 16 0
BBX 16 16 0 -2
BITMAP
7480
2780
2480
2480
0000
0000
0000
0000
0000
0000
0000
0000
0000
0000
0000
0000
ENDCHAR
STARTCHAR 02-80
ENCODING 8816
SWIDTH 1024 0
DWIDTH 16 0
BBX 16 16 0 -2
BITMAP
0000
2004
1008
0bd0
0420
0810
1008
1008
1008
1008
0810
0420
0bd0
1008
2004
0000
ENDCHAR
STARTCHAR 02-81
ENCODING 8817
SWIDTH 1024 0
DWIDTH 16 0
BBX 16 16 0 -2
BITMAP
0000
4118
6124
6142
5142
5142
4924
4918
4900
4500
4500
4300
4300
4100
0000
0000
ENDCHAR
STARTCHAR 06-65
ENCODING 9825
SWIDTH 1024 0
DWIDTH 16 0
BBX 16 16 0 -2
BITMAP
2000
2100
2380
2280
06c0
0440
0c60
0820
0fe0
1830
1010
3018
2008
f83e
0000
0000
ENDCHAR
STARTCHAR 06-66
ENCODING 9826
SWIDTH 1024 0
DWIDTH 16 0
BBX 16 16 0 -2
BITMAP
8000
bff8
8808
8804
0800
0840
0840
0fc0
0840
0840
0800
0804
0808
3ff8
0000
0000
ENDCHAR
STARTCHAR 06-67
ENCODING 9827
SWIDTH 1024 0
DWIDTH 16 0
BBX 16 16 0 -2
BITMAP
8000
be3e
8808
8808
0808
0808
0808
0ff8
0808
0808
0808
0808
0808
3e3e
0000
0000
ENDCHAR
STARTCHAR 06-68
ENCODING 9828
SWIDTH 1024 0
DWIDTH 16 0
BBX 16 16 0 -2
BITMAP
1000
13e0
1080
1080
0080
0080
0080
0080
0080
0080
0080
0080
0080
03e0
0000
0000
ENDCHAR
STARTCHAR 06-69
ENCODING 9829
SWIDTH 1024 0
DWIDTH 16 0
BBX 16 16 0 -2
BITMAP
06c0
06c0
0000
07c0
0100
0100
0100
0100
0100
0100
0100
0100
0100
07c0
0000
0000
ENDCHAR
STARTCHAR 06-71
ENCODING 9831
SWIDTH 1024 0
DWIDTH 16 0
BBX 16 16 0 -2
BITMAP
4000
43c0
4c30
5818
1008
300c
2004
2004
2004
300c
1008
1818
0c30
03c0
0000
0000
ENDCHAR
STARTCHAR 06-73
ENCODING 9833
SWIDTH 1024 0
DWIDTH 16 0
BBX 16 16 0 -2
BITMAP
8000
8f78
99cc
b086
0080
0080
0080
0080
0080
0080
0080
0080
0080
03e0
0000
0000
ENDCHAR
STARTCHAR 06-74
ENCODING 9834
SWIDTH 1024 0
DWIDTH 16 0
BBX 16 16 0 -2
BITMAP
06c0
06c0
0000
1ef0
3398
610c
0100
0100
0100
0100
0100
0100
0100
07c0
0000
0000
ENDCHAR
STARTCHAR 06-76
ENCODING 9836
SWIDTH 1024 0
DWIDTH 16 0
BBX 16 16 0 -2
BITMAP
8000
83c0
8c30
9818
1008
2004
2004
2004
1008
1818
0c30
2244
2244
3e7c
0000
0000
ENDCHAR
STARTCHAR 06-81
ENCODING 9841
SWIDTH 1024 0
DWIDTH 16 0
BBX 16 16 0 -2
BITMAP
0080
0080
0080
0080
0000
0000
0388
0448
0850
0860
1040
10c0
1148
0e30
0000
0000
ENDCHAR
STARTCHAR 06-82
ENCODING 9842
SWIDTH 1024 0
DWIDTH 16 0
BBX 16 16 0 -2
BITMAP
0080
0080
0080
0080
0000
0000
03e0
0410
0400
03c0
0400
0800
0820
07c0
0000
0000
ENDCHAR
STARTCHAR 06-83
ENCODING 9843
SWIDTH 1024 0
DWIDTH 16 0
BBX 16 16 0 -2
BITMAP
0080
0080
0080
0080
0000
0000
0ef0
1318
0208
0608
0418
0410
0c10
0830
0020
0060
ENDCHAR
STARTCHAR 06-84
ENCODING 9844
SWIDTH 1024 0
DWIDTH 16 0
BBX 16 16 0 -2
BITMAP
0100
0100
0100
0100
0000
0000
0100
0100
0300
0200
0600
0408
0470
03c0
0000
0000
ENDCHAR
STARTCHAR 06-85
ENCODING 9845
SWIDTH 1024 0
DWIDTH 16 0
BBX 16 16 0 -2
BITMAP
0000
0000
0000
06c0
06c0
0000
0100
0100
0300
0200
0600
0408
0470
03c0
0000
0000
ENDCHAR
STARTCHAR 06-86
ENCODING 9846
SWIDTH 1024 0
DWIDTH 16 0
BBX 16 16 0 -2
BITMAP
0100
0100
0100
06c0
06c0
0000
0100
0100
0300
0200
0600
0408
0470
03c0
0000
0000
ENDCHAR
STARTCHAR 06-87
ENCODING 9847
SWIDTH 1024 0
DWIDTH 16 0
BBX 16 16 0 -2
BITMAP
0100
0100
0100
0100
0000
0000
01c0
0620
0c10
0810
0810
0830
0460
0380
0000
0000
ENDCHAR
STARTCHAR 06-88
ENCODING 9848
SWIDTH 1024 0
DWIDTH 16 0
BBX 16 16 0 -2
BITMAP
0000
0000
0000
0000
0000
0000
03c0
0620
0400
0300
0080
0040
0440
0380
0000
0000
ENDCHAR
STARTCHAR 06-89
ENCODING 9849
SWIDTH 1024 0
DWIDTH 16 0
BBX 16 16 0 -2
BITMAP
0080
0080
0080
0080
0000
0000
0430
0410
0410
0c30
0820
0860
08c0
0700
0000
0000
ENDCHAR
STARTCHAR 06-90
ENCODING 9850
SWIDTH 1024 0
DWIDTH 16 0
BBX 16 16 0 -2
BITMAP
0000
0000
0000
0360
0360
0000
0430
0410
0410
0c30
0820
0860
08c0
0700
0000
0000
ENDCHAR
STARTCHAR 06-91
ENCODING 9851
SWIDTH 1024 0
DWIDTH 16 0
BBX 16 16 0 -2
BITMAP
0080
0080
0080
0360
0360
0000
0430
0410
0410
0c30
0820
0860
08c0
0700
0000
0000
ENDCHAR
STARTCHAR 06-92
ENCODING 9852
SWIDTH 1024 0
DWIDTH 16 0
BBX 16 16 0 -2
BITMAP
0080
0080
0080
0080
0000
0000
0408
0884
1084
1184
2104
2104
2388
1cf0
0000
0000
ENDCHAR
STARTCHAR 07-34
ENCODING 10050
SWIDTH 1024 0
DWIDTH 16 0
BBX 16 16 0 -2
BITMAP
0000
7ffc
4104
4104
0100
0100
0170
0188
0104
0104
0104
0104
0114
07d8
0000
0000
ENDCHAR
STARTCHAR 07-35
ENCODING 10051
SWIDTH 1024 0
DWIDTH 16 0
BBX 16 16 0 -2
BITMAP
0060
0180
0000
1ff8
0808
0804
0800
0800
0800
0800
0800
0800
0800
1e00
0000
0000
ENDCHAR
STARTCHAR 07-36
ENCODING 10052
SWIDTH 1024 0
DWIDTH 16 0
BBX 16 16 0 -2
BITMAP
0000
03e0
0c38
1808
1008
3000
28e0
2710
2000
3000
1008
1808
0c38
03e0
0000
0000
ENDCHAR
STARTCHAR 07-37
ENCODING 10053
SWIDTH 1024 0
DWIDTH 16 0
BBX 16 16 0 -2
BITMAP
0000
07c8
0828
1018
1008
1008
0c00
03c0
0030
1008
1008
1808
1410
13e0
0000
0000
ENDCHAR
STARTCHAR 07-38
ENCODING 10054
SWIDTH 1024 0
DWIDTH 16 0
BBX 16 16 0 -2
BITMAP
0000
07c0
0100
0100
0100
0100
0100
0100
0100
0100
0100
0100
0100
07c0
0000
0000
ENDCHAR
STARTCHAR 07-39
ENCODING 10055
SWIDTH 1024 0
DWIDTH 16 0
BBX 16 16 0 -2
BITMAP
06c0
06c0
0000
07c0
0100
0100
0100
0100
0100
0100
0100
0100
0100
07c0
0000
0000
ENDCHAR
STARTCHAR 07-40
ENCODING 10056
SWIDTH 1024 0
DWIDTH 16 0
BBX 16 16 0 -2
BITMAP
0000
00f8
0020
0020
0020
0020
0020
0020
0020
0020
0020
1020
1840
0f80
0000
0000
ENDCHAR
STARTCHAR 07-41
ENCODING 10057
SWIDTH 1024 0
DWIDTH 16 0
BBX 16 16 0 -2
BITMAP
0000
07f0
0140
0140
0140
0140
0178
0144
0142
0142
0142
4142
6244
3cf8
0000
0000
ENDCHAR
STARTCHAR 07-42
ENCODING 10058
SWIDTH 1024 0
DWIDTH 16 0
BBX 16 16 0 -2
BITMAP
0000
39c0
1080
1080
1080
1080
1080
1ff8
1084
1082
1082
1082
1084
39f8
0000
0000
ENDCHAR
STARTCHAR 07-43
ENCODING 10059
SWIDTH 1024 0
DWIDTH 16 0
BBX 16 16 0 -2
BITMAP
0000
7ffc
4104
4104
0100
0100
0170
0188
0104
0104
0104
0104
0104
07ce
0000
0000
ENDCHAR
STARTCHAR 07-44
ENCODING 10060
SWIDTH 1024 0
DWIDTH 16 0
BBX 16 16 0 -2
BITMAP
00e0
0380
0000
3e3c
0864
08c0
0980
0900
0f00
0980
08e0
0830
0818
3e7e
0000
0000
ENDCHAR
STARTCHAR 07-45
ENCODING 10061
SWIDTH 1024 0
DWIDTH 16 0
BBX 16 16 0 -2
BITMAP
0220
03e0
0000
3e3e
0808
0c18
0630
0360
0140
01c0
0080
0180
1300
1e00
0000
0000
ENDCHAR
STARTCHAR 07-46
ENCODING 10062
SWIDTH 1024 0
DWIDTH 16 0
BBX 16 16 0 -2
BITMAP
0000
7c7c
1010
1010
1010
1010
1010
1010
1010
1010
1010
1010
1010
7ffc
0100
0100
ENDCHAR
STARTCHAR 07-82
ENCODING 10098
SWIDTH 1024 0
DWIDTH 16 0
BBX 16 16 0 -2
BITMAP
0000
1c00
0400
0400
1f00
0400
05e0
0630
0410
0410
0410
0410
0450
1f60
0000
0000
ENDCHAR
STARTCHAR 07-83
ENCODING 10099
SWIDTH 1024 0
DWIDTH 16 0
BBX 16 16 0 -2
BITMAP
0000
0040
0080
0100
0000
0000
0ff0
0410
0410
0400
0400
0400
0400
0e00
0000
0000
ENDCHAR
STARTCHAR 07-84
ENCODING 10100
SWIDTH 1024 0
DWIDTH 16 0
BBX 16 16 0 -2
BITMAP
0000
0000
0000
0000
0000
0000
03e0
0410
0800
0cc0
0b20
0800
0410
03e0
0000
0000
ENDCHAR
STARTCHAR 07-85
ENCODING 10101
SWIDTH 1024 0
DWIDTH 16 0
BBX 16 16 0 -2
BITMAP
0000
0000
0000
0000
0000
0000
07d0
0830
0810
0780
0060
0810
0c10
0be0
0000
0000
ENDCHAR
STARTCHAR 07-86
ENCODING 10102
SWIDTH 1024 0
DWIDTH 16 0
BBX 16 16 0 -2
BITMAP
0000
0000
0180
0180
0000
0000
0380
0080
0080
0080
0080
0080
0080
03e0
0000
0000
ENDCHAR
STARTCHAR 07-87
ENCODING 10103
SWIDTH 1024 0
DWIDTH 16 0
BBX 16 16 0 -2
BITMAP
0000
0000
0360
0360
0000
0000
0380
0080
0080
0080
0080
0080
0080
03e0
0000
0000
ENDCHAR
STARTCHAR 07-88
ENCODING 10104
SWIDTH 1024 0
DWIDTH 16 0
BBX 16 16 0 -2
BITMAP
0000
0000
00c0
00c0
0000
0000
01c0
0040
0040
0040
0040
0040
0040
0040
1080
1f00
ENDCHAR
STARTCHAR 07-89
ENCODING 10105
SWIDTH 1024 0
DWIDTH 16 0
BBX 16 16 0 -2
BITMAP
0000
0000
0000
0000
0fc0
0280
0280
0280
02f0
0288
0284
2284
2688
1cf0
0000
0000
ENDCHAR
STARTCHAR 07-90
ENCODING 10106
SWIDTH 1024 0
DWIDTH 16 0
BBX 16 16 0 -2
BITMAP
0000
0000
0000
0000
3b80
1100
1100
1100
1fe0
1110
1108
1108
1110
3be0
0000
0000
ENDCHAR
STARTCHAR 07-91
ENCODING 10107
SWIDTH 1024 0
DWIDTH 16 0
BBX 16 16 0 -2
BITMAP
0000
1c00
0400
0400
1f00
0400
05e0
0630
0410
0410
0410
0410
0410
1f3c
0000
0000
ENDCHAR
STARTCHAR 07-92
ENCODING 10108
SWIDTH 1024 0
DWIDTH 16 0
BBX 16 16 0 -2
BITMAP
0000
0040
0080
0100
0000
0000
0e70
0490
0500
0700
0480
0440
0420
0e78
0000
0000
ENDCHAR
STARTCHAR 07-93
ENCODING 10109
SWIDTH 1024 0
DWIDTH 16 0
BBX 16 16 0 -2
BITMAP
0000
0000
0240
03c0
0000
0000
1c38
0810
0c30
0420
0660
0240
02c0
0180
1300
1e00
ENDCHAR
STARTCHAR 07-94
ENCODING 10110
SWIDTH 1024 0
DWIDTH 16 0
BBX 16 16 0 -2
BITMAP
0000
0000
0000
0000
0000
0000
1c70
0820
0820
0820
0820
0820
0820
1ff0
0100
0100
ENDCHAR
STARTCHAR 09-01
ENCODING 10529
SWIDTH 1024 0
DWIDTH 16 0
BBX 16 16 0 -2
BITMAP
0000
03fc
0184
0382
0280
0690
0490
0cf0
0890
1f90
1080
3082
2084
71fc
0000
0000
ENDCHAR
STARTCHAR 09-02
ENCODING 10530
SWIDTH 1024 0
DWIDTH 16 0
BBX 16 16 0 -2
BITMAP
0000
3fc0
0830
0818
0808
080c
0804
3e04
0804
080c
0808
0818
0830
3fc0
0000
0000
ENDCHAR
STARTCHAR 09-04
ENCODING 10532
SWIDTH 1024 0
DWIDTH 16 0
BBX 16 16 0 -2
BITMAP
0000
7c3e
1008
1008
7ffe
1008
1008
1ff8
1008
1008
1008
1008
1008
7c3e
0000
0000
ENDCHAR
STARTCHAR 09-06
ENCODING 10534
SWIDTH 1024 0
DWIDTH 16 0
BBX 16 16 0 -2
BITMAP
0000
7c3e
1008
1008
1008
1008
1008
1008
1008
1008
1008
1208
1310
7de0
0000
0000
ENDCHAR
STARTCHAR 09-08
ENCODING 10536
SWIDTH 1024 0
DWIDTH 16 0
BBX 16 16 0 -2
BITMAP
0000
1f00
0400
0400
0500
0600
0400
0c00
1400
0400
0404
0404
0404
1ffc
0000
0000
ENDCHAR
STARTCHAR 09-09
ENCODING 10537
SWIDTH 1024 0
DWIDTH 16 0
BBX 16 16 0 -2
BITMAP
0000
1f00
0400
0400
0400
0400
0460
0460
0400
0400
0404
0404
0404
1ffc
0000
0000
ENDCHAR
STARTCHAR 09-11
ENCODING 10539
SWIDTH 1024 0
DWIDTH 16 0
BBX 16 16 0 -2
BITMAP
0000
39f0
0a08
0c04
0804
0804
0804
0804
0804
0804
0804
0804
0814
3e18
0000
0000
ENDCHAR
STARTCHAR 09-12
ENCODING 10540
SWIDTH 1024 0
DWIDTH 16 0
BBX 16 16 0 -2
BITMAP
0000
03c2
0c34
1818
1018
302c
2044
2084
2104
320c
1408
1818
1c30
23c0
0000
0000
ENDCHAR
STARTCHAR 09-13
ENCODING 10541
SWIDTH 1024 0
DWIDTH 16 0
BBX 16 16 0 -2
BITMAP
0000
0ffc
1884
3082
2080
4090
4090
40f0
4090
4090
2080
3082
1884
0ffc
0000
0000
ENDCHAR
STARTCHAR 09-15
ENCODING 10543
SWIDTH 1024 0
DWIDTH 16 0
BBX 16 16 0 -2
BITMAP
0000
7ffc
4104
4104
0100
0100
0100
07c0
0100
0100
0100
0100
0100
07c0
0000
0000
ENDCHAR
STARTCHAR 09-16
ENCODING 10544
SWIDTH 1024 0
DWIDTH 16 0
BBX 16 16 0 -2
BITMAP
0000
1f00
0400
0400
07f0
0408
0404
0404
0404
0408
07f0
0400
0400
1f00
0000
0000
ENDCHAR
STARTCHAR 09-33
ENCODING 10561
SWIDTH 1024 0
DWIDTH 16 0
BBX 16 16 0 -2
BITMAP
0000
0000
0000
0000
0000
0000
3e78
0184
0102
3ffe
4100
4100
4382
3c7c
0000
0000
ENDCHAR
STARTCHAR 09-34
ENCODING 10562
SWIDTH 1024 0
DWIDTH 16 0
BBX 16 16 0 -2
BITMAP
0000
00e0
0020
0020
00f8
0020
07a0
0860
1020
1020
1020
1020
0860
07b8
0000
0000
ENDCHAR
STARTCHAR 09-35
ENCODING 10563
SWIDTH 1024 0
DWIDTH 16 0
BBX 16 16 0 -2
BITMAP
0000
0f0c
01f0
00e0
0320
0020
07b0
1850
3030
2010
2010
2030
3020
1860
0780
0000
ENDCHAR
STARTCHAR 09-36
ENCODING 10564
SWIDTH 1024 0
DWIDTH 16 0
BBX 16 16 0 -2
BITMAP
0000
1c00
0400
0400
1f00
0400
05e0
0630
0410
0410
0410
0410
0410
1e3c
0000
0000
ENDCHAR
STARTCHAR 09-37
ENCODING 10565
SWIDTH 1024 0
DWIDTH 16 0
BBX 16 16 0 -2
BITMAP
0000
0000
0000
0000
0000
0000
0380
0080
0080
0080
0080
0080
0080
03e0
0000
0000
ENDCHAR
STARTCHAR 09-38
ENCODING 10566
SWIDTH 1024 0
DWIDTH 16 0
BBX 16 16 0 -2
BITMAP
0000
0000
180c
180c
0000
0000
381c
0804
0804
0804
0804
0804
0804
3e04
0108
01f0
ENDCHAR
STARTCHAR 09-39
ENCODING 10567
SWIDTH 1024 0
DWIDTH 16 0
BBX 16 16 0 -2
BITMAP
0000
0000
0000
0000
0000
0000
0e38
0430
04c0
0700
0480
0460
0418
0e1c
0000
0000
ENDCHAR
STARTCHAR 09-40
ENCODING 10568
SWIDTH 1024 0
DWIDTH 16 0
BBX 16 16 0 -2
BITMAP
0000
0700
0100
0100
0100
0140
0180
0100
0300
0500
0100
0100
0100
07c0
0000
0000
ENDCHAR
STARTCHAR 09-41
ENCODING 10569
SWIDTH 1024 0
DWIDTH 16 0
BBX 16 16 0 -2
BITMAP
0000
0700
0100
0100
0100
0100
0160
0160
0100
0100
0100
0100
0100
07c0
0000
0000
ENDCHAR
STARTCHAR 09-42
ENCODING 10570
SWIDTH 1024 0
DWIDTH 16 0
BBX 16 16 0 -2
BITMAP
0000
0000
0000
0000
4000
4000
5de0
4630
0410
0410
0410
0410
0410
1e3c
0000
0000
ENDCHAR
STARTCHAR 09-43
ENCODING 10571
SWIDTH 1024 0
DWIDTH 16 0
BBX 16 16 0 -2
BITMAP
0000
0000
0000
0000
0000
0000
1de0
0630
0410
0410
0410
0410
0410
1e10
0050
0060
ENDCHAR
STARTCHAR 09-44
ENCODING 10572
SWIDTH 1024 0
DWIDTH 16 0
BBX 16 16 0 -2
BITMAP
0000
0000
0000
0000
0000
0000
03d0
0420
0850
0890
0910
0a10
0420
0bc0
0000
0000
ENDCHAR
STARTCHAR 09-45
ENCODING 10573
SWIDTH 1024 0
DWIDTH 16 0
BBX 16 16 0 -2
BITMAP
0000
0000
0000
0000
0000
0000
1e38
2144
4082
40fe
4080
4080
2142
1e3c
0000
0000
ENDCHAR
STARTCHAR 09-46
ENCODING 10574
SWIDTH 1024 0
DWIDTH 16 0
BBX 16 16 0 -2
BITMAP
0000
0000
0000
0000
01c0
0320
0610
0410
0420
05c0
0420
0410
0610
0620
05c0
1c00
ENDCHAR
STARTCHAR 09-47
ENCODING 10575
SWIDTH 1024 0
DWIDTH 16 0
BBX 16 16 0 -2
BITMAP
0000
0000
0200
0200
0200
0200
1fe0
0200
0200
0f80
0200
0200
0110
00f0
0000
0000
ENDCHAR
STARTCHAR 09-48
ENCODING 10576
SWIDTH 1024 0
DWIDTH 16 0
BBX 16 16 0 -2
BITMAP
0000
1c00
0400
0400
0400
0400
05e0
0610
0408
0408
0408
0610
05e0
0400
0400
1f00
ENDCHAR
STARTCHAR 10-01
ENCODING 10785
SWIDTH 1024 0
DWIDTH 16 0
BBX 16 16 0 -2
BITMAP
0080
0100
0200
0380
0280
06c0
0440
0c60
0820
1ff0
1010
3018
2008
f87e
0000
0000
ENDCHAR
STARTCHAR 10-02
ENCODING 10786
SWIDTH 1024 0
DWIDTH 16 0
BBX 16 16 0 -2
BITMAP
0200
0100
0080
0380
0280
06c0
0440
0c60
0820
1ff0
1010
3018
2008
f83e
0000
0000
ENDCHAR
STARTCHAR 10-03
ENCODING 10787
SWIDTH 1024 0
DWIDTH 16 0
BBX 16 16 0 -2
BITMAP
06c0
06c0
0100
0380
0280
06c0
0440
0c60
0820
1ff0
1010
3018
2008
f83e
0000
0000
ENDCHAR
STARTCHAR 10-04
ENCODING 10788
SWIDTH 1024 0
DWIDTH 16 0
BBX 16 16 0 -2
BITMAP
0100
0280
0440
0380
0280
06c0
0440
0c60
0820
1ff0
1010
3018
2008
f83e
0000
0000
ENDCHAR
STARTCHAR 10-05
ENCODING 10789
SWIDTH 1024 0
DWIDTH 16 0
BBX 16 16 0 -2
BITMAP
0440
0380
0000
0380
0280
06c0
0440
0c60
0820
1ff0
1010
3018
2008
f83e
0000
0000
ENDCHAR
STARTCHAR 10-06
ENCODING 10790
SWIDTH 1024 0
DWIDTH 16 0
BBX 16 16 0 -2
BITMAP
0440
0280
0100
0380
0280
06c0
0440
0c60
0820
1ff0
1010
3018
2008
f83e
0000
0000
ENDCHAR
STARTCHAR 10-07
ENCODING 10791
SWIDTH 1024 0
DWIDTH 16 0
BBX 16 16 0 -2
BITMAP
07c0
0000
0100
0380
0280
06c0
0440
0c60
0820
1ff0
1010
3018
2008
f83e
0000
0000
ENDCHAR
STARTCHAR 10-08
ENCODING 10792
SWIDTH 1024 0
DWIDTH 16 0
BBX 16 16 0 -2
BITMAP
0000
0100
0380
0280
06c0
0440
0c60
0820
0fe0
1830
1010
3018
2008
f83e
0004
0006
ENDCHAR
STARTCHAR 10-09
ENCODING 10793
SWIDTH 1024 0
DWIDTH 16 0
BBX 16 16 0 -2
BITMAP
0180
0240
0180
0380
0280
06c0
0440
0c60
0820
1ff0
1010
3018
2008
f83e
0000
0000
ENDCHAR
STARTCHAR 10-10
ENCODING 10794
SWIDTH 1024 0
DWIDTH 16 0
BBX 16 16 0 -2
BITMAP
0320
04c0
0100
0380
0280
06c0
0440
0c60
0820
1ff0
1010
3018
2008
f83e
0000
0000
ENDCHAR
STARTCHAR 10-11
ENCODING 10795
SWIDTH 1024 0
DWIDTH 16 0
BBX 16 16 0 -2
BITMAP
0040
0080
0100
03c8
0c28
0818
1808
1008
1000
1000
1808
0818
0c30
03c0
0000
0000
ENDCHAR
STARTCHAR 10-12
ENCODING 10796
SWIDTH 1024 0
DWIDTH 16 0
BBX 16 16 0 -2
BITMAP
0080
0140
0220
03c8
0c28
0818
1808
1008
1000
1000
1808
0818
0c30
03c0
0000
0000
ENDCHAR
STARTCHAR 10-13
ENCODING 10797
SWIDTH 1024 0
DWIDTH 16 0
BBX 16 16 0 -2
BITMAP
0220
0140
0080
03c8
0c28
0818
1808
1008
1000
1000
1808
0818
0c30
03c0
0000
0000
ENDCHAR
STARTCHAR 10-14
ENCODING 10798
SWIDTH 1024 0
DWIDTH 16 0
BBX 16 16 0 -2
BITMAP
0000
03c8
0c28
1818
1008
3008
2000
2000
2000
3000
1008
1818
0c30
03c0
0080
0380
ENDCHAR
STARTCHAR 10-15
ENCODING 10799
SWIDTH 1024 0
DWIDTH 16 0
BBX 16 16 0 -2
BITMAP
0180
0180
0000
03c8
0c28
0818
1808
1008
1000
1000
1808
0818
0c30
03c0
0000
0000
ENDCHAR
STARTCHAR 10-16
ENCODING 10800
SWIDTH 1024 0
DWIDTH 16 0
BBX 16 16 0 -2
BITMAP
0440
0280
3fc0
0830
0818
0808
080c
0804
0804
080c
0808
0818
0830
3fc0
0000
0000
ENDCHAR
STARTCHAR 10-17
ENCODING 10801
SWIDTH 1024 0
DWIDTH 16 0
BBX 16 16 0 -2
BITMAP
0080
0100
0200
3ff8
0808
0804
0840
0840
0fc0
0840
0840
0804
0808
3ff8
0000
0000
ENDCHAR
STARTCHAR 10-18
ENCODING 10802
SWIDTH 1024 0
DWIDTH 16 0
BBX 16 16 0 -2
BITMAP
0200
0100
0080
3ff8
0808
0804
0840
0840
0fc0
0840
0840
0804
0808
3ff8
0000
0000
ENDCHAR
STARTCHAR 10-19
ENCODING 10803
SWIDTH 1024 0
DWIDTH 16 0
BBX 16 16 0 -2
BITMAP
06c0
06c0
0000
3ff8
0808
0804
0840
0840
0fc0
0840
0840
0804
0808
3ff8
0000
0000
ENDCHAR
STARTCHAR 10-20
ENCODING 10804
SWIDTH 1024 0
DWIDTH 16 0
BBX 16 16 0 -2
BITMAP
0100
0280
0440
3ff8
0808
0804
0840
0840
0fc0
0840
0840
0804
0808
3ff8
0000
0000
ENDCHAR
STARTCHAR 10-21
ENCODING 10805
SWIDTH 1024 0
DWIDTH 16 0
BBX 16 16 0 -2
BITMAP
0440
0280
0100
3ff8
0808
0804
0840
0840
0fc0
0840
0840
0804
0808
3ff8
0000
0000
ENDCHAR
STARTCHAR 10-22
ENCODING 10806
SWIDTH 1024 0
DWIDTH 16 0
BBX 16 16 0 -2
BITMAP
0180
0180
0000
3ff8
0808
0804
0840
0840
0fc0
0840
0840
0804
0808
3ff8
0000
0000
ENDCHAR
STARTCHAR 10-23
ENCODING 10807
SWIDTH 1024 0
DWIDTH 16 0
BBX 16 16 0 -2
BITMAP
07c0
0000
0000
3ff8
0808
0804
0840
0840
0fc0
0840
0840
0804
0808
3ff8
0000
0000
ENDCHAR
STARTCHAR 10-24
ENCODING 10808
SWIDTH 1024 0
DWIDTH 16 0
BBX 16 16 0 -2
BITMAP
0000
3ff8
0808
0804
0800
0840
0840
0fc0
0840
0840
0800
0804
0808
3ff8
0010
001c
ENDCHAR
STARTCHAR 10-26
ENCODING 10810
SWIDTH 1024 0
DWIDTH 16 0
BBX 16 16 0 -2
BITMAP
0100
0280
0440
03c8
0c38
1808
1008
2000
2000
203e
3008
1018
0c28
03c8
0000
0000
ENDCHAR
STARTCHAR 10-27
ENCODING 10811
SWIDTH 1024 0
DWIDTH 16 0
BBX 16 16 0 -2
BITMAP
0440
0380
0000
03c8
0c38
1808
1008
2000
2000
203e
3008
1018
0c28
03c8
0000
0000
ENDCHAR
STARTCHAR 10-28
ENCODING 10812
SWIDTH 1024 0
DWIDTH 16 0
BBX 16 16 0 -2
BITMAP
0000
03c8
0c38
1808
1008
3000
2000
2000
203e
3008
1008
1818
0c28
03c8
0080
0380
ENDCHAR
STARTCHAR 10-29
ENCODING 10813
SWIDTH 1024 0
DWIDTH 16 0
BBX 16 16 0 -2
BITMAP
0180
0180
0000
03c8
0c38
1808
1008
2000
2000
203e
3008
1018
0c28
03c8
0000
0000
ENDCHAR
STARTCHAR 10-30
ENCODING 10814
SWIDTH 1024 0
DWIDTH 16 0
BBX 16 16 0 -2
BITMAP
0100
0280
0440
7c7c
1010
1010
1010
1010
1ff0
1010
1010
1010
1010
7c7c
0000
0000
ENDCHAR
STARTCHAR 10-31
ENCODING 10815
SWIDTH 1024 0
DWIDTH 16 0
BBX 16 16 0 -2
BITMAP
0080
0100
0200
07c0
0100
0100
0100
0100
0100
0100
0100
0100
0100
07c0
0000
0000
ENDCHAR
STARTCHAR 10-32
ENCODING 10816
SWIDTH 1024 0
DWIDTH 16 0
BBX 16 16 0 -2
BITMAP
0200
0100
0080
07c0
0100
0100
0100
0100
0100
0100
0100
0100
0100
07c0
0000
0000
ENDCHAR
STARTCHAR 10-33
ENCODING 10817
SWIDTH 1024 0
DWIDTH 16 0
BBX 16 16 0 -2
BITMAP
06c0
06c0
0000
07c0
0100
0100
0100
0100
0100
0100
0100
0100
0100
07c0
0000
0000
ENDCHAR
STARTCHAR 10-34
ENCODING 10818
SWIDTH 1024 0
DWIDTH 16 0
BBX 16 16 0 -2
BITMAP
0100
0280
0440
07c0
0100
0100
0100
0100
0100
0100
0100
0100
0100
07c0
0000
0000
ENDCHAR
STARTCHAR 10-35
ENCODING 10819
SWIDTH 1024 0
DWIDTH 16 0
BBX 16 16 0 -2
BITMAP
0440
0280
0100
07c0
0100
0100
0100
0100
0100
0100
0100
0100
0100
07c0
0000
0000
ENDCHAR
STARTCHAR 10-36
ENCODING 10820
SWIDTH 1024 0
DWIDTH 16 0
BBX 16 16 0 -2
BITMAP
0180
0180
0000
07c0
0100
0100
0100
0100
0100
0100
0100
0100
0100
07c0
0000
0000
ENDCHAR
STARTCHAR 10-37
ENCODING 10821
SWIDTH 1024 0
DWIDTH 16 0
BBX 16 16 0 -2
BITMAP
07c0
0000
0000
07c0
0100
0100
0100
0100
0100
0100
0100
0100
0100
07c0
0000
0000
ENDCHAR
STARTCHAR 10-38
ENCODING 10822
SWIDTH 1024 0
DWIDTH 16 0
BBX 16 16 0 -2
BITMAP
0000
07c0
0100
0100
0100
0100
0100
0100
0100
0100
0100
0100
0100
07c0
0080
00e0
ENDCHAR
STARTCHAR 10-39
ENCODING 10823
SWIDTH 1024 0
DWIDTH 16 0
BBX 16 16 0 -2
BITMAP
0320
04c0
0000
07c0
0100
0100
0100
0100
0100
0100
0100
0100
0100
07c0
0000
0000
ENDCHAR
STARTCHAR 10-40
ENCODING 10824
SWIDTH 1024 0
DWIDTH 16 0
BBX 16 16 0 -2
BITMAP
0020
0050
0088
00f8
0020
0020
0020
0020
0020
0020
0020
1020
1840
0f80
0000
0000
ENDCHAR
STARTCHAR 10-41
ENCODING 10825
SWIDTH 1024 0
DWIDTH 16 0
BBX 16 16 0 -2
BITMAP
0000
3e7c
0830
0860
08c0
0980
0b00
0f00
0980
08c0
0860
0830
0818
3ebe
0080
0380
ENDCHAR
STARTCHAR 10-42
ENCODING 10826
SWIDTH 1024 0
DWIDTH 16 0
BBX 16 16 0 -2
BITMAP
0020
1f40
0480
0400
0400
0400
0400
0400
0400
0400
0404
0404
0404
1ffc
0000
0000
ENDCHAR
STARTCHAR 10-43
ENCODING 10827
SWIDTH 1024 0
DWIDTH 16 0
BBX 16 16 0 -2
BITMAP
0220
1f40
0480
0400
0400
0400
0400
0400
0400
0400
0404
0404
0404
1ffc
0000
0000
ENDCHAR
STARTCHAR 10-44
ENCODING 10828
SWIDTH 1024 0
DWIDTH 16 0
BBX 16 16 0 -2
BITMAP
0000
1f00
0400
0400
0400
0400
0400
0400
0400
0400
0404
0404
0404
1ffc
0080
0380
ENDCHAR
STARTCHAR 10-45
ENCODING 10829
SWIDTH 1024 0
DWIDTH 16 0
BBX 16 16 0 -2
BITMAP
0040
78be
1d08
1408
1608
1308
1108
1188
10c8
1048
1068
1038
1018
7808
0000
0000
ENDCHAR
STARTCHAR 10-46
ENCODING 10830
SWIDTH 1024 0
DWIDTH 16 0
BBX 16 16 0 -2
BITMAP
0440
7abe
1d08
1408
1608
1308
1108
1188
10c8
1048
1068
1038
1018
7808
0000
0000
ENDCHAR
STARTCHAR 10-47
ENCODING 10831
SWIDTH 1024 0
DWIDTH 16 0
BBX 16 16 0 -2
BITMAP
0000
783e
1c08
1408
1608
1308
1108
1188
10c8
1048
1068
1038
1018
7888
0080
0380
ENDCHAR
STARTCHAR 10-48
ENCODING 10832
SWIDTH 1024 0
DWIDTH 16 0
BBX 16 16 0 -2
BITMAP
0320
7cfe
1c08
1408
1608
1308
1108
1188
10c8
1048
1068
1038
1018
7808
0000
0000
ENDCHAR
STARTCHAR 10-49
ENCODING 10833
SWIDTH 1024 0
DWIDTH 16 0
BBX 16 16 0 -2
BITMAP
0080
0100
0200
03c0
0c30
1818
1008
2004
2004
2004
1008
1818
0c30
03c0
0000
0000
ENDCHAR
STARTCHAR 10-50
ENCODING 10834
SWIDTH 1024 0
DWIDTH 16 0
BBX 16 16 0 -2
BITMAP
0200
0100
0080
03c0
0c30
1818
1008
2004
2004
2004
1008
1818
0c30
03c0
0000
0000
ENDCHAR
STARTCHAR 10-51
ENCODING 10835
SWIDTH 1024 0
DWIDTH 16 0
BBX 16 16 0 -2
BITMAP
0660
0660
0000
03c0
0c30
1818
1008
2004
2004
2004
1008
1818
0c30
03c0
0000
0000
ENDCHAR
STARTCHAR 10-52
ENCODING 10836
SWIDTH 1024 0
DWIDTH 16 0
BBX 16 16 0 -2
BITMAP
0100
0280
0440
03c0
0c30
1818
1008
2004
2004
2004
1008
1818
0c30
03c0
0000
0000
ENDCHAR
STARTCHAR 10-53
ENCODING 10837
SWIDTH 1024 0
DWIDTH 16 0
BBX 16 16 0 -2
BITMAP
0440
0280
0100
03c0
0c30
1818
1008
2004
2004
2004
1008
1818
0c30
03c0
0000
0000
ENDCHAR
STARTCHAR 10-54
ENCODING 10838
SWIDTH 1024 0
DWIDTH 16 0
BBX 16 16 0 -2
BITMAP
0090
0120
0240
03c0
0c30
1818
1008
2004
2004
2004
1008
1818
0c30
03c0
0000
0000
ENDCHAR
STARTCHAR 10-55
ENCODING 10839
SWIDTH 1024 0
DWIDTH 16 0
BBX 16 16 0 -2
BITMAP
07e0
0000
0000
03c0
0c30
1818
1008
2004
2004
2004
1008
1818
0c30
03c0
0000
0000
ENDCHAR
STARTCHAR 10-56
ENCODING 10840
SWIDTH 1024 0
DWIDTH 16 0
BBX 16 16 0 -2
BITMAP
0320
04c0
0000
03c0
0c30
1818
1008
2004
2004
2004
1008
1818
0c30
03c0
0000
0000
ENDCHAR
STARTCHAR 10-57
ENCODING 10841
SWIDTH 1024 0
DWIDTH 16 0
BBX 16 16 0 -2
BITMAP
0040
0080
0100
3fe0
0810
0808
0808
0810
0fe0
0820
0830
0818
0808
3e3e
0000
0000
ENDCHAR
STARTCHAR 10-58
ENCODING 10842
SWIDTH 1024 0
DWIDTH 16 0
BBX 16 16 0 -2
BITMAP
0440
0280
0100
3fe0
0810
0808
0808
0810
0fe0
0820
0830
0818
0808
3e3e
0000
0000
ENDCHAR
STARTCHAR 10-59
ENCODING 10843
SWIDTH 1024 0
DWIDTH 16 0
BBX 16 16 0 -2
BITMAP
0000
3fe0
0810
0808
0808
0808
0810
0fe0
0820
0830
0810
0818
0808
3ebe
0080
0380
ENDCHAR
STARTCHAR 10-60
ENCODING 10844
SWIDTH 1024 0
DWIDTH 16 0
BBX 16 16 0 -2
BITMAP
0040
0080
0100
07c8
0828
1018
1008
0c08
03c0
1030
1008
1808
1410
13e0
0000
0000
ENDCHAR
STARTCHAR 10-61
ENCODING 10845
SWIDTH 1024 0
DWIDTH 16 0
BBX 16 16 0 -2
BITMAP
0100
0280
0440
07c8
0828
1018
1008
0c08
03c0
1030
1008
1808
1410
13e0
0000
0000
ENDCHAR
STARTCHAR 10-62
ENCODING 10846
SWIDTH 1024 0
DWIDTH 16 0
BBX 16 16 0 -2
BITMAP
0440
0280
0100
07c8
0828
1018
1008
0c08
03c0
1030
1008
1808
1410
13e0
0000
0000
ENDCHAR
STARTCHAR 10-63
ENCODING 10847
SWIDTH 1024 0
DWIDTH 16 0
BBX 16 16 0 -2
BITMAP
0000
07c8
0828
1018
1008
1008
0c08
03c0
0030
1008
1008
1808
1410
13e0
0080
0380
ENDCHAR
STARTCHAR 10-64
ENCODING 10848
SWIDTH 1024 0
DWIDTH 16 0
BBX 16 16 0 -2
BITMAP
0440
0280
0100
7ffc
4104
4104
0100
0100
0100
0100
0100
0100
0100
07c0
0000
0000
ENDCHAR
STARTCHAR 10-65
ENCODING 10849
SWIDTH 1024 0
DWIDTH 16 0
BBX 16 16 0 -2
BITMAP
0000
7ffc
4104
4104
0100
0100
0100
0100
0100
0100
0100
0100
0100
07c0
0100
0700
ENDCHAR
STARTCHAR 10-66
ENCODING 10850
SWIDTH 1024 0
DWIDTH 16 0
BBX 16 16 0 -2
BITMAP
0080
0100
0200
7c7c
1010
1010
1010
1010
1010
1010
1010
1830
0c60
0380
0000
0000
ENDCHAR
STARTCHAR 10-67
ENCODING 10851
SWIDTH 1024 0
DWIDTH 16 0
BBX 16 16 0 -2
BITMAP
0200
0100
0080
7c7c
1010
1010
1010
1010
1010
1010
1010
1830
0c60
0380
0000
0000
ENDCHAR
STARTCHAR 10-68
ENCODING 10852
SWIDTH 1024 0
DWIDTH 16 0
BBX 16 16 0 -2
BITMAP
06c0
06c0
0000
7c7c
1010
1010
1010
1010
1010
1010
1010
1830
0c60
0380
0000
0000
ENDCHAR
STARTCHAR 10-69
ENCODING 10853
SWIDTH 1024 0
DWIDTH 16 0
BBX 16 16 0 -2
BITMAP
0100
0280
0440
7c7c
1010
1010
1010
1010
1010
1010
1010
1830
0c60
0380
0000
0000
ENDCHAR
STARTCHAR 10-70
ENCODING 10854
SWIDTH 1024 0
DWIDTH 16 0
BBX 16 16 0 -2
BITMAP
0440
0380
0000
7c7c
1010
1010
1010
1010
1010
1010
1010
1830
0c60
0380
0000
0000
ENDCHAR
STARTCHAR 10-71
ENCODING 10855
SWIDTH 1024 0
DWIDTH 16 0
BBX 16 16 0 -2
BITMAP
0440
0280
0100
7c7c
1010
1010
1010
1010
1010
1010
1010
1830
0c60
0380
0000
0000
ENDCHAR
STARTCHAR 10-72
ENCODING 10856
SWIDTH 1024 0
DWIDTH 16 0
BBX 16 16 0 -2
BITMAP
0120
0240
0480
7c7c
1010
1010
1010
1010
1010
1010
1010
1830
0c60
0380
0000
0000
ENDCHAR
STARTCHAR 10-73
ENCODING 10857
SWIDTH 1024 0
DWIDTH 16 0
BBX 16 16 0 -2
BITMAP
07c0
0000
0000
7c7c
1010
1010
1010
1010
1010
1010
1010
1830
0c60
0380
0000
0000
ENDCHAR
STARTCHAR 10-74
ENCODING 10858
SWIDTH 1024 0
DWIDTH 16 0
BBX 16 16 0 -2
BITMAP
0000
7c3e
1008
1008
1008
1008
1008
1008
1008
1008
1008
1818
0c30
03c0
0080
00e0
ENDCHAR
STARTCHAR 10-75
ENCODING 10859
SWIDTH 1024 0
DWIDTH 16 0
BBX 16 16 0 -2
BITMAP
0100
0280
0100
7c7c
1010
1010
1010
1010
1010
1010
1010
1830
0c60
0380
0000
0000
ENDCHAR
STARTCHAR 10-76
ENCODING 10860
SWIDTH 1024 0
DWIDTH 16 0
BBX 16 16 0 -2
BITMAP
0320
04c0
0000
7c7c
1010
1010
1010
1010
1010
1010
1010
1830
0c60
0380
0000
0000
ENDCHAR
STARTCHAR 10-77
ENCODING 10861
SWIDTH 1024 0
DWIDTH 16 0
BBX 16 16 0 -2
BITMAP
0080
0100
06c0
06c0
7c7c
1010
1010
1010
1010
1010
1010
1830
0c60
0380
0000
0000
ENDCHAR
STARTCHAR 10-78
ENCODING 10862
SWIDTH 1024 0
DWIDTH 16 0
BBX 16 16 0 -2
BITMAP
0200
0100
06c0
06c0
7c7c
1010
1010
1010
1010
1010
1010
1830
0c60
0380
0000
0000
ENDCHAR
STARTCHAR 10-79
ENCODING 10863
SWIDTH 1024 0
DWIDTH 16 0
BBX 16 16 0 -2
BITMAP
0440
0280
07c0
06c0
7c7c
1010
1010
1010
1010
1010
1010
1830
0c60
0380
0000
0000
ENDCHAR
STARTCHAR 10-80
ENCODING 10864
SWIDTH 1024 0
DWIDTH 16 0
BBX 16 16 0 -2
BITMAP
07c0
0000
06c0
06c0
7c7c
1010
1010
1010
1010
1010
1010
1830
0c60
0380
0000
0000
ENDCHAR
STARTCHAR 10-81
ENCODING 10865
SWIDTH 1024 0
DWIDTH 16 0
BBX 16 16 0 -2
BITMAP
0100
fabe
2448
2108
2108
3398
1290
1290
16d0
1450
1c70
0c60
0820
0820
0000
0000
ENDCHAR
STARTCHAR 10-82
ENCODING 10866
SWIDTH 1024 0
DWIDTH 16 0
BBX 16 16 0 -2
BITMAP
0080
7d7c
1210
1830
0820
0c60
0440
06c0
0380
0100
0100
0100
0100
07c0
0000
0000
ENDCHAR
STARTCHAR 10-83
ENCODING 10867
SWIDTH 1024 0
DWIDTH 16 0
BBX 16 16 0 -2
BITMAP
06c0
7efc
1010
1830
0820
0c60
0440
06c0
0380
0100
0100
0100
0100
07c0
0000
0000
ENDCHAR
STARTCHAR 10-84
ENCODING 10868
SWIDTH 1024 0
DWIDTH 16 0
BBX 16 16 0 -2
BITMAP
0100
7abc
1450
1830
0820
0c60
0440
06c0
0380
0100
0100
0100
0100
07c0
0000
0000
ENDCHAR
STARTCHAR 10-85
ENCODING 10869
SWIDTH 1024 0
DWIDTH 16 0
BBX 16 16 0 -2
BITMAP
0040
0080
0100
1ff8
1030
1060
00c0
0180
0300
0600
0c00
1808
3008
3ff8
0000
0000
ENDCHAR
STARTCHAR 10-86
ENCODING 10870
SWIDTH 1024 0
DWIDTH 16 0
BBX 16 16 0 -2
BITMAP
0440
0280
0100
1ff8
1030
1060
00c0
0180
0300
0600
0c00
1808
3008
3ff8
0000
0000
ENDCHAR
STARTCHAR 10-87
ENCODING 10871
SWIDTH 1024 0
DWIDTH 16 0
BBX 16 16 0 -2
BITMAP
0180
0180
0000
1ff8
1030
1060
00c0
0180
0300
0600
0c00
1808
3008
3ff8
0000
0000
ENDCHAR
STARTCHAR 11-01
ENCODING 11041
SWIDTH 1024 0
DWIDTH 16 0
BBX 16 16 0 -2
BITMAP
0000
0000
0080
0100
0200
0000
07c0
0020
0020
07e0
0820
0820
0868
0798
0000
0000
ENDCHAR
STARTCHAR 11-02
ENCODING 11042
SWIDTH 1024 0
DWIDTH 16 0
BBX 16 16 0 -2
BITMAP
0000
0000
0200
0100
0080
0000
07c0
0020
0020
07e0
0820
0820
0868
0798
0000
0000
ENDCHAR
STARTCHAR 11-03
ENCODING 11043
SWIDTH 1024 0
DWIDTH 16 0
BBX 16 16 0 -2
BITMAP
0000
0000
0000
06c0
06c0
0000
07c0
0020
0020
07e0
0820
0820
0868
0798
0000
0000
ENDCHAR
STARTCHAR 11-04
ENCODING 11044
SWIDTH 1024 0
DWIDTH 16 0
BBX 16 16 0 -2
BITMAP
0000
0000
0100
0280
0440
0000
07c0
0020
0020
07e0
0820
0820
0868
0798
0000
0000
ENDCHAR
STARTCHAR 11-05
ENCODING 11045
SWIDTH 1024 0
DWIDTH 16 0
BBX 16 16 0 -2
BITMAP
0000
0000
0000
0440
0380
0000
07c0
0020
0020
07e0
0820
0820
0868
0798
0000
0000
ENDCHAR
STARTCHAR 11-06
ENCODING 11046
SWIDTH 1024 0
DWIDTH 16 0
BBX 16 16 0 -2
BITMAP
0000
0000
0440
0280
0100
0000
07c0
0020
0020
07e0
0820
0820
0868
0798
0000
0000
ENDCHAR
STARTCHAR 11-07
ENCODING 11047
SWIDTH 1024 0
DWIDTH 16 0
BBX 16 16 0 -2
BITMAP
0000
0000
0000
07c0
0000
0000
07c0
0020
0020
07e0
0820
0820
0868
0798
0000
0000
ENDCHAR
STARTCHAR 11-08
ENCODING 11048
SWIDTH 1024 0
DWIDTH 16 0
BBX 16 16 0 -2
BITMAP
0000
0000
0000
0000
0000
0000
07c0
0020
0020
07e0
0820
0820
0868
0798
0004
0007
ENDCHAR
STARTCHAR 11-09
ENCODING 11049
SWIDTH 1024 0
DWIDTH 16 0
BBX 16 16 0 -2
BITMAP
0000
0000
0100
0280
0100
0000
07c0
0020
0020
07e0
0820
0820
0868
0798
0000
0000
ENDCHAR
STARTCHAR 11-10
ENCODING 11050
SWIDTH 1024 0
DWIDTH 16 0
BBX 16 16 0 -2
BITMAP
0000
0000
0000
0320
04c0
0000
07c0
0020
0020
07e0
0820
0820
0868
0798
0000
0000
ENDCHAR
STARTCHAR 11-11
ENCODING 11051
SWIDTH 1024 0
DWIDTH 16 0
BBX 16 16 0 -2
BITMAP
0000
0000
0040
0080
0100
0000
03e0
0410
0800
0800
0800
0800
0410
03e0
0000
0000
ENDCHAR
STARTCHAR 11-12
ENCODING 11052
SWIDTH 1024 0
DWIDTH 16 0
BBX 16 16 0 -2
BITMAP
0000
0000
0080
0140
0220
0000
03e0
0410
0800
0800
0800
0800
0410
03e0
0000
0000
ENDCHAR
STARTCHAR 11-13
ENCODING 11053
SWIDTH 1024 0
DWIDTH 16 0
BBX 16 16 0 -2
BITMAP
0000
0000
0220
0140
0080
0000
03e0
0410
0800
0800
0800
0800
0410
03e0
0000
0000
ENDCHAR
STARTCHAR 11-14
ENCODING 11054
SWIDTH 1024 0
DWIDTH 16 0
BBX 16 16 0 -2
BITMAP
0000
0000
0000
0000
0000
0000
03e0
0410
0800
0800
0800
0800
0410
03e0
0080
0380
ENDCHAR
STARTCHAR 11-15
ENCODING 11055
SWIDTH 1024 0
DWIDTH 16 0
BBX 16 16 0 -2
BITMAP
0000
0000
0000
0180
0180
0000
03e0
0410
0800
0800
0800
0800
0410
03e0
0000
0000
ENDCHAR
STARTCHAR 11-16
ENCODING 11056
SWIDTH 1024 0
DWIDTH 16 0
BBX 16 16 0 -2
BITMAP
0440
02e0
0120
0020
0020
0020
07a0
0860
1020
1020
1020
1020
0860
07b8
0000
0000
ENDCHAR
STARTCHAR 11-17
ENCODING 11057
SWIDTH 1024 0
DWIDTH 16 0
BBX 16 16 0 -2
BITMAP
0000
0000
0040
0080
0100
0000
03c0
0420
0810
0ff0
0800
0800
0410
03e0
0000
0000
ENDCHAR
STARTCHAR 11-18
ENCODING 11058
SWIDTH 1024 0
DWIDTH 16 0
BBX 16 16 0 -2
BITMAP
0000
0000
0200
0100
0080
0000
03c0
0420
0810
0ff0
0800
0800
0410
03e0
0000
0000
ENDCHAR
STARTCHAR 11-19
ENCODING 11059
SWIDTH 1024 0
DWIDTH 16 0
BBX 16 16 0 -2
BITMAP
0000
0000
0000
0660
0660
0000
03c0
0420
0810
0ff0
0800
0800
0410
03e0
0000
0000
ENDCHAR
STARTCHAR 11-20
ENCODING 11060
SWIDTH 1024 0
DWIDTH 16 0
BBX 16 16 0 -2
BITMAP
0000
0000
0100
0280
0440
0000
03c0
0420
0810
0ff0
0800
0800
0410
03e0
0000
0000
ENDCHAR
STARTCHAR 11-21
ENCODING 11061
SWIDTH 1024 0
DWIDTH 16 0
BBX 16 16 0 -2
BITMAP
0000
0000
0440
0280
0100
0000
03c0
0420
0810
0ff0
0800
0800
0410
03e0
0000
0000
ENDCHAR
STARTCHAR 11-22
ENCODING 11062
SWIDTH 1024 0
DWIDTH 16 0
BBX 16 16 0 -2
BITMAP
0000
0000
0000
0180
0180
0000
03c0
0420
0810
0ff0
0800
0800
0410
03e0
0000
0000
ENDCHAR
STARTCHAR 11-23
ENCODING 11063
SWIDTH 1024 0
DWIDTH 16 0
BBX 16 16 0 -2
BITMAP
0000
0000
0000
07e0
0000
0000
03c0
0420
0810
0ff0
0800
0800
0410
03e0
0000
0000
ENDCHAR
STARTCHAR 11-24
ENCODING 11064
SWIDTH 1024 0
DWIDTH 16 0
BBX 16 16 0 -2
BITMAP
0000
0000
0000
0000
0000
0000
03c0
0420
0810
0ff0
0800
0800
0410
03e0
0020
0038
ENDCHAR
STARTCHAR 11-25
ENCODING 11065
SWIDTH 1024 0
DWIDTH 16 0
BBX 16 16 0 -2
BITMAP
0000
0000
0080
0100
0200
0000
07d8
0820
0820
0820
07c0
0800
0ff0
1008
1008
0ff0
ENDCHAR
STARTCHAR 11-26
ENCODING 11066
SWIDTH 1024 0
DWIDTH 16 0
BBX 16 16 0 -2
BITMAP
0000
0000
0100
0280
0440
0000
07d8
0820
0820
0820
07c0
0800
0ff0
1008
1008
0ff0
ENDCHAR
STARTCHAR 11-27
ENCODING 11067
SWIDTH 1024 0
DWIDTH 16 0
BBX 16 16 0 -2
BITMAP
0000
0000
0000
0440
0380
0000
07d8
0820
0820
0820
07c0
0800
0ff0
1008
1008
0ff0
ENDCHAR
STARTCHAR 11-29
ENCODING 11069
SWIDTH 1024 0
DWIDTH 16 0
BBX 16 16 0 -2
BITMAP
0000
0000
0000
0180
0180
0000
07d8
0820
0820
0820
07c0
0800
0ff0
1008
1008
0ff0
ENDCHAR
STARTCHAR 11-30
ENCODING 11070
SWIDTH 1024 0
DWIDTH 16 0
BBX 16 16 0 -2
BITMAP
0080
1d40
0620
0400
0400
0400
05e0
0630
0410
0410
0410
0410
0410
1e3c
0000
0000
ENDCHAR
STARTCHAR 11-31
ENCODING 11071
SWIDTH 1024 0
DWIDTH 16 0
BBX 16 16 0 -2
BITMAP
0000
0000
0040
0080
0100
0000
0380
0080
0080
0080
0080
0080
0080
03e0
0000
0000
ENDCHAR
STARTCHAR 11-32
ENCODING 11072
SWIDTH 1024 0
DWIDTH 16 0
BBX 16 16 0 -2
BITMAP
0000
0000
0100
0080
0040
0000
0380
0080
0080
0080
0080
0080
0080
03e0
0000
0000
ENDCHAR
STARTCHAR 11-33
ENCODING 11073
SWIDTH 1024 0
DWIDTH 16 0
BBX 16 16 0 -2
BITMAP
0000
0000
0000
0360
0360
0000
0380
0080
0080
0080
0080
0080
0080
03e0
0000
0000
ENDCHAR
STARTCHAR 11-34
ENCODING 11074
SWIDTH 1024 0
DWIDTH 16 0
BBX 16 16 0 -2
BITMAP
0000
0000
0080
0140
0220
0000
0380
0080
0080
0080
0080
0080
0080
03e0
0000
0000
ENDCHAR
STARTCHAR 11-35
ENCODING 11075
SWIDTH 1024 0
DWIDTH 16 0
BBX 16 16 0 -2
BITMAP
0000
0000
0220
0140
0080
0000
0380
0080
0080
0080
0080
0080
0080
03e0
0000
0000
ENDCHAR
STARTCHAR 11-37
ENCODING 11077
SWIDTH 1024 0
DWIDTH 16 0
BBX 16 16 0 -2
BITMAP
0000
0000
0000
03e0
0000
0000
0380
0080
0080
0080
0080
0080
0080
03e0
0000
0000
ENDCHAR
STARTCHAR 11-38
ENCODING 11078
SWIDTH 1024 0
DWIDTH 16 0
BBX 16 16 0 -2
BITMAP
0000
0000
0180
0180
0000
0000
0380
0080
0080
0080
0080
0080
0080
03e0
0080
00e0
ENDCHAR
STARTCHAR 11-39
ENCODING 11079
SWIDTH 1024 0
DWIDTH 16 0
BBX 16 16 0 -2
BITMAP
0000
0000
0000
0320
04c0
0000
0380
0080
0080
0080
0080
0080
0080
03e0
0000
0000
ENDCHAR
STARTCHAR 11-40
ENCODING 11080
SWIDTH 1024 0
DWIDTH 16 0
BBX 16 16 0 -2
BITMAP
0000
0000
0040
00a0
0110
0000
01c0
0040
0040
0040
0040
0040
0040
0040
1080
1f00
ENDCHAR
STARTCHAR 11-41
ENCODING 11081
SWIDTH 1024 0
DWIDTH 16 0
BBX 16 16 0 -2
BITMAP
0000
3800
0800
0800
0800
0800
08f8
0860
0980
0e00
0900
08c0
0830
3e7c
0080
0380
ENDCHAR
STARTCHAR 11-42
ENCODING 11082
SWIDTH 1024 0
DWIDTH 16 0
BBX 16 16 0 -2
BITMAP
0080
0100
0200
0700
0100
0100
0100
0100
0100
0100
0100
0100
0100
07c0
0000
0000
ENDCHAR
STARTCHAR 11-43
ENCODING 11083
SWIDTH 1024 0
DWIDTH 16 0
BBX 16 16 0 -2
BITMAP
0440
0280
0100
0700
0100
0100
0100
0100
0100
0100
0100
0100
0100
07c0
0000
0000
ENDCHAR
STARTCHAR 11-44
ENCODING 11084
SWIDTH 1024 0
DWIDTH 16 0
BBX 16 16 0 -2
BITMAP
0000
0700
0100
0100
0100
0100
0100
0100
0100
0100
0100
0100
0100
07c0
0100
0700
ENDCHAR
STARTCHAR 11-45
ENCODING 11085
SWIDTH 1024 0
DWIDTH 16 0
BBX 16 16 0 -2
BITMAP
0000
0000
0040
0080
0100
0000
1de0
0630
0410
0410
0410
0410
0410
1e3c
0000
0000
ENDCHAR
STARTCHAR 11-46
ENCODING 11086
SWIDTH 1024 0
DWIDTH 16 0
BBX 16 16 0 -2
BITMAP
0000
0000
0440
0280
0100
0000
1de0
0630
0410
0410
0410
0410
0410
1e3c
0000
0000
ENDCHAR
STARTCHAR 11-47
ENCODING 11087
SWIDTH 1024 0
DWIDTH 16 0
BBX 16 16 0 -2
BITMAP
0000
0000
0000
0000
0000
0000
1de0
0630
0410
0410
0410
0410
0410
1e3c
0080
0380
ENDCHAR
STARTCHAR 11-48
ENCODING 11088
SWIDTH 1024 0
DWIDTH 16 0
BBX 16 16 0 -2
BITMAP
0000
0000
0000
0320
04c0
0000
1de0
0630
0410
0410
0410
0410
0410
1e3c
0000
0000
ENDCHAR
STARTCHAR 11-49
ENCODING 11089
SWIDTH 1024 0
DWIDTH 16 0
BBX 16 16 0 -2
BITMAP
0000
0000
0040
0080
0100
0000
03c0
0420
0810
0810
0810
0810
0420
03c0
0000
0000
ENDCHAR
STARTCHAR 11-50
ENCODING 11090
SWIDTH 1024 0
DWIDTH 16 0
BBX 16 16 0 -2
BITMAP
0000
0000
0200
0100
0080
0000
03c0
0420
0810
0810
0810
0810
0420
03c0
0000
0000
ENDCHAR
STARTCHAR 11-51
ENCODING 11091
SWIDTH 1024 0
DWIDTH 16 0
BBX 16 16 0 -2
BITMAP
0000
0000
0000
0660
0660
0000
03c0
0420
0810
0810
0810
0810
0420
03c0
0000
0000
ENDCHAR
STARTCHAR 11-52
ENCODING 11092
SWIDTH 1024 0
DWIDTH 16 0
BBX 16 16 0 -2
BITMAP
0000
0000
0100
0280
0440
0000
03c0
0420
0810
0810
0810
0810
0420
03c0
0000
0000
ENDCHAR
STARTCHAR 11-53
ENCODING 11093
SWIDTH 1024 0
DWIDTH 16 0
BBX 16 16 0 -2
BITMAP
0000
0000
0440
0280
0100
0000
03c0
0420
0810
0810
0810
0810
0420
03c0
0000
0000
ENDCHAR
STARTCHAR 11-54
ENCODING 11094
SWIDTH 1024 0
DWIDTH 16 0
BBX 16 16 0 -2
BITMAP
0000
0000
0090
0120
0240
0000
03c0
0420
0810
0810
0810
0810
0420
03c0
0000
0000
ENDCHAR
STARTCHAR 11-55
ENCODING 11095
SWIDTH 1024 0
DWIDTH 16 0
BBX 16 16 0 -2
BITMAP
0000
0000
0000
07e0
0000
0000
03c0
0420
0810
0810
0810
0810
0420
03c0
0000
0000
ENDCHAR
STARTCHAR 11-56
ENCODING 11096
SWIDTH 1024 0
DWIDTH 16 0
BBX 16 16 0 -2
BITMAP
0000
0000
0000
0320
04c0
0000
03c0
0420
0810
0810
0810
0810
0420
03c0
0000
0000
ENDCHAR
STARTCHAR 11-57
ENCODING 11097
SWIDTH 1024 0
DWIDTH 16 0
BBX 16 16 0 -2
BITMAP
0000
0000
0040
0080
0100
0000
0e70
0290
0300
0200
0200
0200
0200
0f80
0000
0000
ENDCHAR
STARTCHAR 11-58
ENCODING 11098
SWIDTH 1024 0
DWIDTH 16 0
BBX 16 16 0 -2
BITMAP
0000
0000
0220
0140
0080
0000
0e70
0290
0300
0200
0200
0200
0200
0f80
0000
0000
ENDCHAR
STARTCHAR 11-59
ENCODING 11099
SWIDTH 1024 0
DWIDTH 16 0
BBX 16 16 0 -2
BITMAP
0000
0000
0000
0000
0000
0000
0e70
0290
0300
0200
0200
0200
0200
0f80
0100
0700
ENDCHAR
STARTCHAR 11-60
ENCODING 11100
SWIDTH 1024 0
DWIDTH 16 0
BBX 16 16 0 -2
BITMAP
0000
0000
0040
0080
0100
0000
07d0
0830
0810
0780
0060
0810
0c10
0be0
0000
0000
ENDCHAR
STARTCHAR 11-61
ENCODING 11101
SWIDTH 1024 0
DWIDTH 16 0
BBX 16 16 0 -2
BITMAP
0000
0000
0080
0140
0220
0000
07d0
0830
0810
0780
0060
0810
0c10
0be0
0000
0000
ENDCHAR
STARTCHAR 11-62
ENCODING 11102
SWIDTH 1024 0
DWIDTH 16 0
BBX 16 16 0 -2
BITMAP
0000
0000
0220
0140
0080
0000
07d0
0830
0810
0780
0060
0810
0c10
0be0
0000
0000
ENDCHAR
STARTCHAR 11-63
ENCODING 11103
SWIDTH 1024 0
DWIDTH 16 0
BBX 16 16 0 -2
BITMAP
0000
0000
0000
0000
0000
0000
07d0
0830
0810
0780
0060
0810
0c10
0be0
0080
0380
ENDCHAR
STARTCHAR 11-64
ENCODING 11104
SWIDTH 1024 0
DWIDTH 16 0
BBX 16 16 0 -2
BITMAP
0220
0140
0280
0200
0200
0200
1fe0
0200
0200
0200
0200
0200
0110
00f0
0000
0000
ENDCHAR
STARTCHAR 11-65
ENCODING 11105
SWIDTH 1024 0
DWIDTH 16 0
BBX 16 16 0 -2
BITMAP
0000
0000
0200
0200
0200
0200
1fe0
0200
0200
0200
0200
0200
0110
00f0
0080
0380
ENDCHAR
STARTCHAR 11-66
ENCODING 11106
SWIDTH 1024 0
DWIDTH 16 0
BBX 16 16 0 -2
BITMAP
0000
0000
0040
0080
0100
0000
1c70
0410
0410
0410
0410
0410
0630
03dc
0000
0000
ENDCHAR
STARTCHAR 11-67
ENCODING 11107
SWIDTH 1024 0
DWIDTH 16 0
BBX 16 16 0 -2
BITMAP
0000
0000
0200
0100
0080
0000
1c70
0410
0410
0410
0410
0410
0630
03dc
0000
0000
ENDCHAR
STARTCHAR 11-68
ENCODING 11108
SWIDTH 1024 0
DWIDTH 16 0
BBX 16 16 0 -2
BITMAP
0000
0000
0000
0360
0360
0000
1c70
0410
0410
0410
0410
0410
0630
03dc
0000
0000
ENDCHAR
STARTCHAR 11-69
ENCODING 11109
SWIDTH 1024 0
DWIDTH 16 0
BBX 16 16 0 -2
BITMAP
0000
0000
0080
0140
0220
0000
1c70
0410
0410
0410
0410
0410
0630
03dc
0000
0000
ENDCHAR
STARTCHAR 11-70
ENCODING 11110
SWIDTH 1024 0
DWIDTH 16 0
BBX 16 16 0 -2
BITMAP
0000
0000
0220
01c0
0000
0000
1c70
0410
0410
0410
0410
0410
0630
03dc
0000
0000
ENDCHAR
STARTCHAR 11-71
ENCODING 11111
SWIDTH 1024 0
DWIDTH 16 0
BBX 16 16 0 -2
BITMAP
0000
0000
0220
0140
0080
0000
1c70
0410
0410
0410
0410
0410
0630
03dc
0000
0000
ENDCHAR
STARTCHAR 11-72
ENCODING 11112
SWIDTH 1024 0
DWIDTH 16 0
BBX 16 16 0 -2
BITMAP
0000
0000
0120
0240
0480
0000
1c70
0410
0410
0410
0410
0410
0630
03dc
0000
0000
ENDCHAR
STARTCHAR 11-73
ENCODING 11113
SWIDTH 1024 0
DWIDTH 16 0
BBX 16 16 0 -2
BITMAP
0000
0000
0000
07e0
0000
0000
1c70
0410
0410
0410
0410
0410
0630
03dc
0000
0000
ENDCHAR
STARTCHAR 11-74
ENCODING 11114
SWIDTH 1024 0
DWIDTH 16 0
BBX 16 16 0 -2
BITMAP
0000
0000
0000
0000
0000
0000
1c70
0410
0410
0410
0410
0410
0630
03dc
0008
000e
ENDCHAR
STARTCHAR 11-75
ENCODING 11115
SWIDTH 1024 0
DWIDTH 16 0
BBX 16 16 0 -2
BITMAP
0000
0000
0080
0140
0080
0000
1c70
0410
0410
0410
0410
0410
0630
03dc
0000
0000
ENDCHAR
STARTCHAR 11-76
ENCODING 11116
SWIDTH 1024 0
DWIDTH 16 0
BBX 16 16 0 -2
BITMAP
0000
0000
0000
0320
04c0
0000
1c70
0410
0410
0410
0410
0410
0630
03dc
0000
0000
ENDCHAR
STARTCHAR 11-77
ENCODING 11117
SWIDTH 1024 0
DWIDTH 16 0
BBX 16 16 0 -2
BITMAP
0020
0040
0080
0360
0360
0000
1c70
0410
0410
0410
0410
0410
0630
03dc
0000
0000
ENDCHAR
STARTCHAR 11-78
ENCODING 11118
SWIDTH 1024 0
DWIDTH 16 0
BBX 16 16 0 -2
BITMAP
0200
0100
0080
0360
0360
0000
1c70
0410
0410
0410
0410
0410
0630
03dc
0000
0000
ENDCHAR
STARTCHAR 11-79
ENCODING 11119
SWIDTH 1024 0
DWIDTH 16 0
BBX 16 16 0 -2
BITMAP
0220
0140
0080
0360
0360
0000
1c70
0410
0410
0410
0410
0410
0630
03dc
0000
0000
ENDCHAR
STARTCHAR 11-80
ENCODING 11120
SWIDTH 1024 0
DWIDTH 16 0
BBX 16 16 0 -2
BITMAP
0000
03e0
0000
0360
0360
0000
1c70
0410
0410
0410
0410
0410
0630
03dc
0000
0000
ENDCHAR
STARTCHAR 11-81
ENCODING 11121
SWIDTH 1024 0
DWIDTH 16 0
BBX 16 16 0 -2
BITMAP
0000
0000
0100
0280
0440
0000
799e
1188
1bd8
0a50
0a50
0e70
0420
0420
0000
0000
ENDCHAR
STARTCHAR 11-82
ENCODING 11122
SWIDTH 1024 0
DWIDTH 16 0
BBX 16 16 0 -2
BITMAP
0000
0000
0020
0040
0080
0000
1e3c
0410
0630
0220
0360
0140
00c0
0180
1300
1e00
ENDCHAR
STARTCHAR 11-83
ENCODING 11123
SWIDTH 1024 0
DWIDTH 16 0
BBX 16 16 0 -2
BITMAP
0000
0000
0000
0360
0360
0000
1e3c
0410
0630
0220
0360
0140
00c0
0180
1300
1e00
ENDCHAR
STARTCHAR 11-84
ENCODING 11124
SWIDTH 1024 0
DWIDTH 16 0
BBX 16 16 0 -2
BITMAP
0000
0000
0080
0140
0220
0000
1e3c
0410
0630
0220
0360
0140
00c0
0180
1300
1e00
ENDCHAR
STARTCHAR 11-85
ENCODING 11125
SWIDTH 1024 0
DWIDTH 16 0
BBX 16 16 0 -2
BITMAP
0000
0000
0040
0080
0100
0000
0ff0
0820
0840
0080
0100
0210
0410
0ff0
0000
0000
ENDCHAR
STARTCHAR 11-86
ENCODING 11126
SWIDTH 1024 0
DWIDTH 16 0
BBX 16 16 0 -2
BITMAP
0000
0000
0220
0140
0080
0000
0ff0
0820
0840
0080
0100
0210
0410
0ff0
0000
0000
ENDCHAR
STARTCHAR 11-87
ENCODING 11127
SWIDTH 1024 0
DWIDTH 16 0
BBX 16 16 0 -2
BITMAP
0000
0000
0000
0180
0180
0000
0ff0
0820
0840
0080
0100
0210
0410
0ff0
0000
0000
ENDCHAR
STARTCHAR 16-01
ENCODING 12321
SWIDTH 1024 0
DWIDTH 16 0
BBX 16 16 0 -2
BITMAP
0000
ffff
0100
0300
0200
0600
0400
07f0
0010
0010
0010
0010
0010
0020
01c0
0000
ENDCHAR
STARTCHAR 16-02
ENCODING 12322
SWIDTH 1024 0
DWIDTH 16 0
BBX 16 16 0 -2
BITMAP
0000
0100
0100
0100
0100
0100
0100
0100
0100
0100
0100
0100
0100
0100
ffff
0000
ENDCHAR
STARTCHAR 16-03
ENCODING 12323
SWIDTH 1024 0
DWIDTH 16 0
BBX 16 16 0 -2
BITMAP
0000
ffff
0100
0100
0100
0100
0100
0100
0100
0100
0100
0100
0100
0100
0100
0000
ENDCHAR
STARTCHAR 16-04
ENCODING 12324
SWIDTH 1024 0
DWIDTH 16 0
BBX 16 16 0 -2
BITMAP
0000
ffff
0410
0410
0410
0410
0410
0410
0410
0410
0410
0410
0410
0410
0810
3010
ENDCHAR
STARTCHAR 16-05
ENCODING 12325
SWIDTH 1024 0
DWIDTH 16 0
BBX 16 16 0 -2
BITMAP
0000
7ffc
0104
1904
0d04
0704
0204
0704
0584
0c8c
1808
3008
e078
0000
ffff
0000
ENDCHAR
STARTCHAR 16-06
ENCODING 12326
SWIDTH 1024 0
DWIDTH 16 0
BBX 16 16 0 -2
BITMAP
0000
7ffe
0100
0100
3ffc
0100
0100
0100
ffff
0200
0610
0418
0c08
08fc
1f84
7006
ENDCHAR
STARTCHAR 16-07
ENCODING 12327
SWIDTH 1024 0
DWIDTH 16 0
BBX 16 16 0 -2
BITMAP
0000
7ffe
0240
0240
0240
3e7c
2244
2244
2244
3e7c
0240
0240
0440
0440
0840
1040
ENDCHAR
STARTCHAR 16-08
ENCODING 12328
SWIDTH 1024 0
DWIDTH 16 0
BBX 16 16 0 -2
BITMAP
0000
ffff
0420
0420
7ffe
4422
4422
4422
4a52
494a
494a
5082
5102
4002
4002
4006
ENDCHAR
STARTCHAR 16-09
ENCODING 12329
SWIDTH 1024 0
DWIDTH 16 0
BBX 16 16 0 -2
BITMAP
0000
0100
0100
0100
0100
0100
0100
0100
0100
0100
0100
0100
0100
0100
0100
0000
ENDCHAR
STARTCHAR 16-10
ENCODING 12330
SWIDTH 1024 0
DWIDTH 16 0
BBX 16 16 0 -2
BITMAP
0000
1008
0810
0420
0240
0180
0100
0100
0100
0100
0100
0100
0100
0100
0100
0000
ENDCHAR
STARTCHAR 16-11
ENCODING 12331
SWIDTH 1024 0
DWIDTH 16 0
BBX 16 16 0 -2
BITMAP
0000
7ff8
0008
0208
0208
0208
3fe8
0208
0208
0208
7ff8
0208
0208
020d
0207
0202
ENDCHAR
STARTCHAR 16-12
ENCODING 12332
SWIDTH 1024 0
DWIDTH 16 0
BBX 16 16 0 -2
BITMAP
0100
0100
01fc
1f00
0100
0100
01f8
3f00
0100
0100
01fe
7f00
0100
0100
0100
0100
ENDCHAR
STARTCHAR 16-13
ENCODING 12333
SWIDTH 1024 0
DWIDTH 16 0
BBX 16 16 0 -2
BITMAP
0100
0100
0100
7ffe
0100
0100
0100
3ffc
0100
0100
0100
ffff
0100
0100
0100
0100
ENDCHAR
STARTCHAR 16-14
ENCODING 12334
SWIDTH 1024 0
DWIDTH 16 0
BBX 16 16 0 -2
BITMAP
0240
0240
1248
1248
1248
ffff
0810
0410
0420
1ff8
0100
0100
3ffc
0100
0100
0100
ENDCHAR
STARTCHAR 16-15
ENCODING 12335
SWIDTH 1024 0
DWIDTH 16 0
BBX 16 16 0 -2
BITMAP
0000
0400
0400
0a00
1a00
1200
3300
0100
0100
0180
0080
0040
0060
0030
000c
0003
ENDCHAR
STARTCHAR 16-16
ENCODING 12336
SWIDTH 1024 0
DWIDTH 16 0
BBX 16 16 0 -2
BITMAP
0000
0000
3e00
0200
0200
0200
0300
0100
0100
0180
0080
0040
0060
0030
000c
0003
ENDCHAR
STARTCHAR 16-17
ENCODING 12337
SWIDTH 1024 0
DWIDTH 16 0
BBX 16 16 0 -2
BITMAP
0000
0006
000c
0018
0730
01e0
00c0
01e0
0330
2600
2400
2c00
3800
3000
6000
0000
ENDCHAR
STARTCHAR 16-18
ENCODING 12338
SWIDTH 1024 0
DWIDTH 16 0
BBX 16 16 0 -2
BITMAP
0030
01e0
3f00
0200
0200
0200
0200
0200
ffff
0200
0200
0200
0200
0202
0306
01fc
ENDCHAR
STARTCHAR 16-19
ENCODING 12339
SWIDTH 1024 0
DWIDTH 16 0
BBX 16 16 0 -2
BITMAP
0038
00e0
0780
3d00
0100
1100
3104
610c
c158
0160
1130
3118
610c
c107
0100
0100
ENDCHAR
STARTCHAR 16-20
ENCODING 12340
SWIDTH 1024 0
DWIDTH 16 0
BBX 16 16 0 -2
BITMAP
0800
0800
0800
0800
0800
0800
0800
0800
0800
0800
0800
0800
0801
0c03
07fe
0000
ENDCHAR
STARTCHAR 16-21
ENCODING 12341
SWIDTH 1024 0
DWIDTH 16 0
BBX 16 16 0 -2
BITMAP
0800
0800
0800
080e
087a
0bc2
0e02
f802
0802
0802
080e
0800
0801
0c03
07fe
0000
ENDCHAR
STARTCHAR 16-22
ENCODING 12342
SWIDTH 1024 0
DWIDTH 16 0
BBX 16 16 0 -2
BITMAP
0820
1820
3020
2020
6020
c220
6620
3420
0c20
1820
1220
3320
2120
7fa1
c0b3
001e
ENDCHAR
STARTCHAR 16-23
ENCODING 12343
SWIDTH 1024 0
DWIDTH 16 0
BBX 16 16 0 -2
BITMAP
1020
1020
3020
2220
2320
6120
4fa0
f8a0
0020
0020
7f20
4120
4120
4121
4133
7f1e
ENDCHAR
STARTCHAR 16-24
ENCODING 12344
SWIDTH 1024 0
DWIDTH 16 0
BBX 16 16 0 -2
BITMAP
1020
1020
1020
1020
1fa0
1020
1020
1020
1020
ff20
8120
8120
8120
8121
8133
ff1e
ENDCHAR
STARTCHAR 16-25
ENCODING 12345
SWIDTH 1024 0
DWIDTH 16 0
BBX 16 16 0 -2
BITMAP
1006
10fc
fe80
1080
10ff
1c88
f088
1188
3308
0000
1ff8
0060
0380
0c02
1806
0ffc
ENDCHAR
STARTCHAR 16-26
ENCODING 12346
SWIDTH 1024 0
DWIDTH 16 0
BBX 16 16 0 -2
BITMAP
0820
0820
ffa0
4120
6320
2220
2220
ffa0
0820
0820
0820
ffa0
0820
0821
0833
081e
ENDCHAR
STARTCHAR 16-27
ENCODING 12347
SWIDTH 1024 0
DWIDTH 16 0
BBX 16 16 0 -2
BITMAP
0820
0820
ffa0
0820
7f20
4120
4120
7f20
4120
4120
7f20
0820
ffa1
0821
0833
081e
ENDCHAR
STARTCHAR 16-28
ENCODING 12348
SWIDTH 1024 0
DWIDTH 16 0
BBX 16 16 0 -2
BITMAP
0640
7c40
9140
4a40
0040
2040
4440
2840
1040
2240
ff40
1140
5441
d641
9263
103e
ENDCHAR
STARTCHAR 16-29
ENCODING 12349
SWIDTH 1024 0
DWIDTH 16 0
BBX 16 16 0 -2
BITMAP
0000
3ffc
0000
0000
0000
0000
ffff
0100
0100
0100
0100
0100
0100
0100
0100
0700
ENDCHAR
STARTCHAR 16-30
ENCODING 12350
SWIDTH 1024 0
DWIDTH 16 0
BBX 16 16 0 -2
BITMAP
0000
3ffc
0000
0000
0000
ffff
0000
0000
0000
0000
3ffc
0000
0000
0000
ffff
0000
ENDCHAR
STARTCHAR 16-31
ENCODING 12351
SWIDTH 1024 0
DWIDTH 16 0
BBX 16 16 0 -2
BITMAP
0100
0100
4102
4102
4102
4102
7ffe
0000
0000
0000
3ffc
0000
0000
0000
ffff
0000
ENDCHAR
STARTCHAR 16-32
ENCODING 12352
SWIDTH 1024 0
DWIDTH 16 0
BBX 16 16 0 -2
BITMAP
0200
0410
0808
3ffc
0004
2010
4422
fe7f
0201
0000
0000
1ffc
0000
0000
ffff
0000
ENDCHAR
STARTCHAR 16-33
ENCODING 12353
SWIDTH 1024 0
DWIDTH 16 0
BBX 16 16 0 -2
BITMAP
0100
0100
ffff
0000
1ff8
1008
1008
1ff8
0000
7ffe
4002
4002
7ffe
4002
4002
7ffe
ENDCHAR
STARTCHAR 16-34
ENCODING 12354
SWIDTH 1024 0
DWIDTH 16 0
BBX 16 16 0 -2
BITMAP
0100
ffff
0000
77ee
4422
77ae
44a2
ffff
8001
1ff8
1008
1ff8
1008
1ff8
1008
ffff
ENDCHAR
STARTCHAR 16-35
ENCODING 12355
SWIDTH 1024 0
DWIDTH 16 0
BBX 16 16 0 -2
BITMAP
0400
0400
0dff
0810
1810
1010
1010
3010
7010
d010
1010
1010
1010
1010
1010
1070
ENDCHAR
STARTCHAR 16-36
ENCODING 12356
SWIDTH 1024 0
DWIDTH 16 0
BBX 16 16 0 -2
BITMAP
0100
0380
02c0
0660
0c30
1818
310c
e107
0100
0100
ffff
0100
0100
0100
0100
0100
ENDCHAR
STARTCHAR 16-37
ENCODING 12357
SWIDTH 1024 0
DWIDTH 16 0
BBX 16 16 0 -2
BITMAP
0100
0380
02c0
0660
0c30
1818
300c
e107
0100
0100
4102
4102
4102
4102
7ffe
0000
ENDCHAR
STARTCHAR 16-38
ENCODING 12358
SWIDTH 1024 0
DWIDTH 16 0
BBX 16 16 0 -2
BITMAP
0406
043c
0de0
0820
1820
1020
3020
73ff
d020
1020
1020
1020
1020
1021
1033
101e
ENDCHAR
STARTCHAR 16-39
ENCODING 12359
SWIDTH 1024 0
DWIDTH 16 0
BBX 16 16 0 -2
BITMAP
0400
04fe
0c10
0810
1810
1010
3010
71ff
d010
1010
1010
1010
1010
1010
1010
1010
ENDCHAR
STARTCHAR 16-40
ENCODING 12360
SWIDTH 1024 0
DWIDTH 16 0
BBX 16 16 0 -2
BITMAP
0880
0880
1880
11ff
3100
2300
66fc
a018
2030
2060
20c0
2180
2300
2201
2303
21fe
ENDCHAR
STARTCHAR 16-41
ENCODING 12361
SWIDTH 1024 0
DWIDTH 16 0
BBX 16 16 0 -2
BITMAP
0480
0480
0c80
08fe
1982
1102
3302
7062
d032
1012
1002
1002
1002
1006
1004
101c
ENDCHAR
STARTCHAR 16-42
ENCODING 12362
SWIDTH 1024 0
DWIDTH 16 0
BBX 16 16 0 -2
BITMAP
0400
05fe
0c00
0800
1800
1000
3000
70fc
d000
1000
1000
1000
1000
1000
13ff
1000
ENDCHAR
STARTCHAR 16-43
ENCODING 12363
SWIDTH 1024 0
DWIDTH 16 0
BBX 16 16 0 -2
BITMAP
0820
0820
1820
1124
3124
2326
6222
a623
2024
20e4
200c
2008
2018
2030
2060
21c0
ENDCHAR
STARTCHAR 16-44
ENCODING 12364
SWIDTH 1024 0
DWIDTH 16 0
BBX 16 16 0 -2
BITMAP
0820
0870
1850
10d8
318c
2306
66fb
a000
2000
21fc
2004
200c
2008
2018
2010
2030
ENDCHAR
STARTCHAR 16-45
ENCODING 12365
SWIDTH 1024 0
DWIDTH 16 0
BBX 16 16 0 -2
BITMAP
0510
0510
0d10
0910
1911
1113
31de
7110
d110
1110
1110
1110
1110
1111
11db
170e
ENDCHAR
STARTCHAR 16-46
ENCODING 12366
SWIDTH 1024 0
DWIDTH 16 0
BBX 16 16 0 -2
BITMAP
0440
0440
0c40
08fe
1890
1190
3010
7010
d1ff
1010
1010
1010
1010
1010
1010
1010
ENDCHAR
STARTCHAR 16-47
ENCODING 12367
SWIDTH 1024 0
DWIDTH 16 0
BBX 16 16 0 -2
BITMAP
0888
0888
1888
118c
3104
2306
6603
a1fc
2044
2044
2044
20c4
2084
210c
2308
2638
ENDCHAR
STARTCHAR 16-48
ENCODING 12368
SWIDTH 1024 0
DWIDTH 16 0
BBX 16 16 0 -2
BITMAP
0800
0bfe
1880
1080
3080
21f8
6108
a108
2308
2208
23f8
2010
2010
2010
27ff
2000
ENDCHAR
STARTCHAR 16-49
ENCODING 12369
SWIDTH 1024 0
DWIDTH 16 0
BBX 16 16 0 -2
BITMAP
0420
0420
0c20
09ff
1840
1040
3040
707e
d042
1042
1042
1042
10c2
1086
1184
131c
ENDCHAR
STARTCHAR 16-50
ENCODING 12370
SWIDTH 1024 0
DWIDTH 16 0
BBX 16 16 0 -2
BITMAP
0448
0448
0ccc
0884
1986
1102
3123
7320
d020
1060
1044
10c4
1086
1182
111e
13f3
ENDCHAR
STARTCHAR 16-51
ENCODING 12371
SWIDTH 1024 0
DWIDTH 16 0
BBX 16 16 0 -2
BITMAP
0820
0820
1820
17ff
3020
2020
63fe
a222
2222
2222
2222
2222
2226
2020
2020
2020
ENDCHAR
STARTCHAR 16-52
ENCODING 12372
SWIDTH 1024 0
DWIDTH 16 0
BBX 16 16 0 -2
BITMAP
0400
05fc
0c04
08c8
1870
1020
33ff
7021
d022
1024
1020
1020
1020
1020
1020
10e0
ENDCHAR
STARTCHAR 16-53
ENCODING 12373
SWIDTH 1024 0
DWIDTH 16 0
BBX 16 16 0 -2
BITMAP
08c0
0860
1830
1010
3080
2080
6080
a080
2286
2282
2683
2481
2c84
2084
20cc
2078
ENDCHAR
STARTCHAR 16-54
ENCODING 12374
SWIDTH 1024 0
DWIDTH 16 0
BBX 16 16 0 -2
BITMAP
0800
0bfc
1884
108c
3088
209e
6082
a1c6
2144
216c
2338
2210
2638
2c6c
38c6
2383
ENDCHAR
STARTCHAR 16-55
ENCODING 12375
SWIDTH 1024 0
DWIDTH 16 0
BBX 16 16 0 -2
BITMAP
0400
05ff
0d00
0900
197c
1144
3144
7144
d144
1144
114c
1140
1340
1241
1663
103e
ENDCHAR
STARTCHAR 16-56
ENCODING 12376
SWIDTH 1024 0
DWIDTH 16 0
BBX 16 16 0 -2
BITMAP
0406
041c
0df0
0900
1900
11ff
3108
7108
d108
1108
1108
1308
1208
1608
1c08
1008
ENDCHAR
STARTCHAR 16-57
ENCODING 12377
SWIDTH 1024 0
DWIDTH 16 0
BBX 16 16 0 -2
BITMAP
0420
0420
0c20
0bfe
1820
1020
3020
77ff
d020
1070
1050
10d8
1088
118c
1306
1603
ENDCHAR
STARTCHAR 16-58
ENCODING 12378
SWIDTH 1024 0
DWIDTH 16 0
BBX 16 16 0 -2
BITMAP
0440
0440
0c40
0bff
1840
1040
30fc
7084
d084
11cc
1148
1378
1630
1078
10cc
1387
ENDCHAR
STARTCHAR 16-59
ENCODING 12379
SWIDTH 1024 0
DWIDTH 16 0
BBX 16 16 0 -2
BITMAP
0100
0380
02c0
0660
0c30
1818
300c
e817
0810
0810
1c38
1428
366c
63c6
c183
8101
ENDCHAR
STARTCHAR 16-60
ENCODING 12380
SWIDTH 1024 0
DWIDTH 16 0
BBX 16 16 0 -2
BITMAP
0420
0420
0c22
0922
1926
1124
332c
7220
d070
1050
1050
10d8
1088
118c
1306
1603
ENDCHAR
STARTCHAR 16-61
ENCODING 12381
SWIDTH 1024 0
DWIDTH 16 0
BBX 16 16 0 -2
BITMAP
0a00
0a7e
1a22
1222
37a2
22b6
6294
a294
269c
2488
2588
271c
2114
23b6
22a2
2663
ENDCHAR
STARTCHAR 16-62
ENCODING 12382
SWIDTH 1024 0
DWIDTH 16 0
BBX 16 16 0 -2
BITMAP
0820
0870
1850
10d8
318c
2326
6623
a0a8
20a8
21ac
2124
2326
2222
2020
2020
20e0
ENDCHAR
STARTCHAR 16-63
ENCODING 12383
SWIDTH 1024 0
DWIDTH 16 0
BBX 16 16 0 -2
BITMAP
0480
0480
0c80
09ff
1911
1313
3612
7054
d054
1054
10d6
1092
1193
1010
1010
1070
ENDCHAR
STARTCHAR 16-64
ENCODING 12384
SWIDTH 1024 0
DWIDTH 16 0
BBX 16 16 0 -2
BITMAP
0800
0a48
1a48
1248
3248
27ff
6248
a248
2248
2248
2278
2200
2200
2200
23ff
2000
ENDCHAR
STARTCHAR 16-65
ENCODING 12385
SWIDTH 1024 0
DWIDTH 16 0
BBX 16 16 0 -2
BITMAP
0800
0800
1bff
1249
3249
2249
6249
a249
22c9
228f
2381
2201
2201
2201
23ff
2000
ENDCHAR
STARTCHAR 16-66
ENCODING 12386
SWIDTH 1024 0
DWIDTH 16 0
BBX 16 16 0 -2
BITMAP
0420
0420
0c20
0820
1bfe
1222
3222
7222
d222
13fe
1222
1222
1222
1222
13fe
1000
ENDCHAR
STARTCHAR 16-67
ENCODING 12387
SWIDTH 1024 0
DWIDTH 16 0
BBX 16 16 0 -2
BITMAP
0400
05fc
0d04
0904
1904
11fc
3104
7104
d104
11fc
1104
1104
1104
1104
17ff
1000
ENDCHAR
STARTCHAR 16-68
ENCODING 12388
SWIDTH 1024 0
DWIDTH 16 0
BBX 16 16 0 -2
BITMAP
0800
0bfe
1820
1124
31ac
20a8
60a8
a020
27ff
2020
2020
2020
2020
2020
2020
2020
ENDCHAR
STARTCHAR 16-69
ENCODING 12389
SWIDTH 1024 0
DWIDTH 16 0
BBX 16 16 0 -2
BITMAP
0400
05fe
0c10
0810
1830
1020
3068
70ec
d1a6
1323
1020
1020
1020
1000
13ff
1000
ENDCHAR
STARTCHAR 16-70
ENCODING 12390
SWIDTH 1024 0
DWIDTH 16 0
BBX 16 16 0 -2
BITMAP
0800
0bfc
1a04
1204
3204
2204
63fc
a200
2200
2200
23fe
2202
2202
2202
2202
23fe
ENDCHAR
STARTCHAR 16-71
ENCODING 12391
SWIDTH 1024 0
DWIDTH 16 0
BBX 16 16 0 -2
BITMAP
0800
0bfe
1820
1020
1020
3120
2120
613e
a120
2120
2120
2120
2120
2120
27ff
2000
ENDCHAR
STARTCHAR 16-72
ENCODING 12392
SWIDTH 1024 0
DWIDTH 16 0
BBX 16 16 0 -2
BITMAP
0440
0440
0c40
0bff
1840
10d0
3090
71ff
d391
1691
1091
1091
1091
1093
1010
1010
ENDCHAR
STARTCHAR 16-73
ENCODING 12393
SWIDTH 1024 0
DWIDTH 16 0
BBX 16 16 0 -2
BITMAP
0420
0420
0c20
0bfe
1820
1020
3020
7020
d7ff
1040
1040
10c4
1084
10be
11e2
1303
ENDCHAR
STARTCHAR 16-74
ENCODING 12394
SWIDTH 1024 0
DWIDTH 16 0
BBX 16 16 0 -2
BITMAP
0800
0bfe
1842
1042
30c2
2086
6184
a31c
2000
21fe
2102
2102
2102
2102
2102
21fe
ENDCHAR
STARTCHAR 16-75
ENCODING 12395
SWIDTH 1024 0
DWIDTH 16 0
BBX 16 16 0 -2
BITMAP
0a20
0a20
1a20
1222
3226
23bc
6220
a220
2220
2220
2220
2220
2220
2221
23b3
2e1e
ENDCHAR
STARTCHAR 16-76
ENCODING 12396
SWIDTH 1024 0
DWIDTH 16 0
BBX 16 16 0 -2
BITMAP
0840
0840
1840
13fc
3244
2244
6244
a244
2fff
20a0
20b0
2190
2118
230c
2606
2c03
ENDCHAR
STARTCHAR 16-77
ENCODING 12397
SWIDTH 1024 0
DWIDTH 16 0
BBX 16 16 0 -2
BITMAP
0420
0420
0c20
0820
183f
1020
3020
7020
d020
13fe
1202
1202
1202
1202
1202
13fe
ENDCHAR
STARTCHAR 16-78
ENCODING 12398
SWIDTH 1024 0
DWIDTH 16 0
BBX 16 16 0 -2
BITMAP
08c0
0860
1820
1084
3084
208c
6088
a298
2296
22b3
26e1
24c0
2080
2382
2ec6
207c
ENDCHAR
STARTCHAR 16-79
ENCODING 12399
SWIDTH 1024 0
DWIDTH 16 0
BBX 16 16 0 -2
BITMAP
0100
0380
06c0
0c70
381c
e007
1ff0
0000
0000
7ffe
0100
1108
1108
310c
6106
0700
ENDCHAR
STARTCHAR 16-80
ENCODING 12400
SWIDTH 1024 0
DWIDTH 16 0
BBX 16 16 0 -2
BITMAP
0480
0480
0cf8
0988
1b18
10b0
3060
70f0
d19c
1707
10e0
1030
1000
11c0
1070
1018
ENDCHAR
STARTCHAR 16-81
ENCODING 12401
SWIDTH 1024 0
DWIDTH 16 0
BBX 16 16 0 -2
BITMAP
0800
0bfe
1a22
1222
3222
23fe
6222
a222
2222
23fe
2222
2222
2222
2222
2622
2426
ENDCHAR
STARTCHAR 16-82
ENCODING 12402
SWIDTH 1024 0
DWIDTH 16 0
BBX 16 16 0 -2
BITMAP
0800
0bff
1a01
1201
3201
2279
6249
a249
2249
2249
2279
2201
2201
2201
23ff
2000
ENDCHAR
STARTCHAR 16-83
ENCODING 12403
SWIDTH 1024 0
DWIDTH 16 0
BBX 16 16 0 -2
BITMAP
0422
0422
0dfe
0824
182c
1028
33ff
7030
d060
11c6
135c
1070
1040
1041
1063
103e
ENDCHAR
STARTCHAR 16-84
ENCODING 12404
SWIDTH 1024 0
DWIDTH 16 0
BBX 16 16 0 -2
BITMAP
0420
0470
0c50
08d8
198c
1306
3603
71fc
d000
1000
11fc
1104
1104
1104
1104
11fc
ENDCHAR
STARTCHAR 16-85
ENCODING 12405
SWIDTH 1024 0
DWIDTH 16 0
BBX 16 16 0 -2
BITMAP
0100
0380
06c0
0c70
381c
e007
0ff0
0000
0000
7ffe
0080
0080
10fc
1080
1080
ffff
ENDCHAR
STARTCHAR 16-86
ENCODING 12406
SWIDTH 1024 0
DWIDTH 16 0
BBX 16 16 0 -2
BITMAP
0400
05fc
0d04
0904
19fc
1104
3104
71fc
d121
1133
1116
1118
1108
110c
11e6
1703
ENDCHAR
STARTCHAR 16-87
ENCODING 12407
SWIDTH 1024 0
DWIDTH 16 0
BBX 16 16 0 -2
BITMAP
0806
083c
1be0
1020
3020
2020
67ff
a020
2020
2020
23fe
2202
2202
2202
2202
23fe
ENDCHAR
STARTCHAR 16-88
ENCODING 12408
SWIDTH 1024 0
DWIDTH 16 0
BBX 16 16 0 -2
BITMAP
0480
04fc
0d88
0910
1bff
1100
3100
717c
d144
1144
1144
114c
1140
1141
1263
103e
ENDCHAR
STARTCHAR 16-89
ENCODING 12409
SWIDTH 1024 0
DWIDTH 16 0
BBX 16 16 0 -2
BITMAP
0420
0470
0cd8
098c
1b06
1603
31fc
7020
d020
1020
11fc
1020
1020
1020
17ff
1000
ENDCHAR
STARTCHAR 16-90
ENCODING 12410
SWIDTH 1024 0
DWIDTH 16 0
BBX 16 16 0 -2
BITMAP
0840
0840
1840
107f
30c1
2e93
6192
a010
2010
2138
2628
2c28
206c
2044
20c6
2183
ENDCHAR
STARTCHAR 16-91
ENCODING 12411
SWIDTH 1024 0
DWIDTH 16 0
BBX 16 16 0 -2
BITMAP
0448
0448
0ccc
0884
1986
1303
32fd
7084
d084
10fc
1084
1084
10fc
1084
1084
108c
ENDCHAR
STARTCHAR 16-92
ENCODING 12412
SWIDTH 1024 0
DWIDTH 16 0
BBX 16 16 0 -2
BITMAP
0820
0920
1920
11fe
3320
2620
6020
a7ff
2088
2088
2088
2088
2188
2109
2309
2607
ENDCHAR
STARTCHAR 16-93
ENCODING 12413
SWIDTH 1024 0
DWIDTH 16 0
BBX 16 16 0 -2
BITMAP
0820
0820
1820
17ff
3400
241e
64f0
a420
2420
25ff
2420
2420
2c20
2821
2833
201e
ENDCHAR
STARTCHAR 16-94
ENCODING 12414
SWIDTH 1024 0
DWIDTH 16 0
BBX 16 16 0 -2
BITMAP
0400
05ff
0c40
0844
18c4
109e
31f3
7000
d010
1010
10fe
1010
1010
1010
1010
11ff
ENDCHAR
STARTCHAR 17-01
ENCODING 12577
SWIDTH 1024 0
DWIDTH 16 0
BBX 16 16 0 -2
BITMAP
0820
0820
1820
17ff
3040
20c8
6198
a312
21b6
2064
20cc
2198
2730
206c
21c6
2f03
ENDCHAR
STARTCHAR 17-02
ENCODING 12578
SWIDTH 1024 0
DWIDTH 16 0
BBX 16 16 0 -2
BITMAP
0820
0820
19ff
1048
3084
2303
60fc
a000
23ff
2040
2080
21fe
2002
2002
2006
201c
ENDCHAR
STARTCHAR 17-03
ENCODING 12579
SWIDTH 1024 0
DWIDTH 16 0
BBX 16 16 0 -2
BITMAP
0820
0a22
1b26
1124
3124
2020
6020
a7ff
2088
2088
2088
2088
2188
2109
2309
2607
ENDCHAR
STARTCHAR 17-04
ENCODING 12580
SWIDTH 1024 0
DWIDTH 16 0
BBX 16 16 0 -2
BITMAP
0180
03c0
0e70
381c
e7e7
0000
0ff0
0020
0040
1ff8
0000
7ffe
0200
0410
08f8
1f8c
ENDCHAR
STARTCHAR 17-05
ENCODING 12581
SWIDTH 1024 0
DWIDTH 16 0
BBX 16 16 0 -2
BITMAP
0420
0420
0d24
09a4
18ac
10a8
3020
73fe
d020
1070
1070
10a8
10a8
1124
1222
1020
ENDCHAR
STARTCHAR 17-06
ENCODING 12582
SWIDTH 1024 0
DWIDTH 16 0
BBX 16 16 0 -2
BITMAP
0420
0460
0c40
09fc
1954
1154
3154
7154
d154
1154
1154
1154
1154
1154
17ff
1000
ENDCHAR
STARTCHAR 17-07
ENCODING 12583
SWIDTH 1024 0
DWIDTH 16 0
BBX 16 16 0 -2
BITMAP
0420
0420
0c20
0bff
1a01
1241
3040
73ff
d044
1084
108c
11e8
1018
103c
10e6
1382
ENDCHAR
STARTCHAR 17-08
ENCODING 12584
SWIDTH 1024 0
DWIDTH 16 0
BBX 16 16 0 -2
BITMAP
0820
0bfe
1822
1022
37ff
2022
6022
a3fe
2020
2020
23fe
2020
2020
27ff
2020
2020
ENDCHAR
STARTCHAR 17-09
ENCODING 12585
SWIDTH 1024 0
DWIDTH 16 0
BBX 16 16 0 -2
BITMAP
0880
0888
1988
113c
33e6
2000
6020
a120
21fe
2320
2020
27ff
2020
2020
2020
2020
ENDCHAR
STARTCHAR 17-10
ENCODING 12586
SWIDTH 1024 0
DWIDTH 16 0
BBX 16 16 0 -2
BITMAP
0800
0bfe
1a02
1202
32fa
2202
6202
a2fa
228a
228a
228a
22fa
2202
2202
2202
220e
ENDCHAR
STARTCHAR 17-11
ENCODING 12587
SWIDTH 1024 0
DWIDTH 16 0
BBX 16 16 0 -2
BITMAP
0410
0414
0c16
0812
1bff
1010
3010
77d0
d118
1108
1108
1108
11cc
1705
1007
1002
ENDCHAR
STARTCHAR 17-12
ENCODING 12588
SWIDTH 1024 0
DWIDTH 16 0
BBX 16 16 0 -2
BITMAP
0900
0900
19fe
1302
3202
25f2
6112
a112
21f2
2112
2112
2112
21f2
2006
2004
201c
ENDCHAR
STARTCHAR 17-13
ENCODING 12589
SWIDTH 1024 0
DWIDTH 16 0
BBX 16 16 0 -2
BITMAP
1100
1100
110f
3109
2fe9
6229
6229
a269
2649
2449
24c9
2789
21c9
2369
262f
2c00
ENDCHAR
STARTCHAR 17-14
ENCODING 12590
SWIDTH 1024 0
DWIDTH 16 0
BBX 16 16 0 -2
BITMAP
0840
0840
1bff
1040
30c0
20be
6182
a104
2308
257f
2908
2108
2108
2108
2108
2138
ENDCHAR
STARTCHAR 17-15
ENCODING 12591
SWIDTH 1024 0
DWIDTH 16 0
BBX 16 16 0 -2
BITMAP
0800
0bff
1a00
1200
32fe
2200
6200
a3ff
2248
2249
224b
224a
264c
2444
2c76
21c3
ENDCHAR
STARTCHAR 17-16
ENCODING 12592
SWIDTH 1024 0
DWIDTH 16 0
BBX 16 16 0 -2
BITMAP
0400
05fe
0d02
0902
19fe
1100
3100
71ff
d101
1179
1149
1349
1249
127b
1402
100e
ENDCHAR
STARTCHAR 17-17
ENCODING 12593
SWIDTH 1024 0
DWIDTH 16 0
BBX 16 16 0 -2
BITMAP
1003
178e
1178
3108
2308
6208
67ff
a088
2888
2588
2508
2708
227f
2700
25c0
2c7f
ENDCHAR
STARTCHAR 17-18
ENCODING 12594
SWIDTH 1024 0
DWIDTH 16 0
BBX 16 16 0 -2
BITMAP
0904
098c
1888
13fe
3202
2202
6202
a202
23fe
2088
2088
2088
2188
2109
2309
2607
ENDCHAR
STARTCHAR 17-19
ENCODING 12595
SWIDTH 1024 0
DWIDTH 16 0
BBX 16 16 0 -2
BITMAP
0820
0820
1bfe
1020
3020
23fe
6202
a202
21fc
2008
2010
27ff
2020
2020
2020
20e0
ENDCHAR
STARTCHAR 17-20
ENCODING 12596
SWIDTH 1024 0
DWIDTH 16 0
BBX 16 16 0 -2
BITMAP
0800
0bfe
1a22
1222
33fe
2222
6222
a3fe
2000
2040
23fe
2042
20c2
2086
2184
271c
ENDCHAR
STARTCHAR 17-21
ENCODING 12597
SWIDTH 1024 0
DWIDTH 16 0
BBX 16 16 0 -2
BITMAP
0420
0422
0dfe
0824
1828
13ff
3020
7040
d1fc
1608
1010
13ff
1010
1010
1010
1070
ENDCHAR
STARTCHAR 17-22
ENCODING 12598
SWIDTH 1024 0
DWIDTH 16 0
BBX 16 16 0 -2
BITMAP
0806
083c
1be0
1042
3266
232c
6148
a040
27ff
2088
2188
2118
23d0
2078
20cc
2386
ENDCHAR
STARTCHAR 17-23
ENCODING 12599
SWIDTH 1024 0
DWIDTH 16 0
BBX 16 16 0 -2
BITMAP
0400
0578
0d48
0948
1948
1178
3100
7100
d1fc
1004
1004
13ff
1000
1088
118c
1306
ENDCHAR
STARTCHAR 17-24
ENCODING 12600
SWIDTH 1024 0
DWIDTH 16 0
BBX 16 16 0 -2
BITMAP
0824
0826
1822
17ff
3020
2222
6326
a12c
2020
2030
20b8
21ac
2326
2223
2020
20e0
ENDCHAR
STARTCHAR 17-25
ENCODING 12601
SWIDTH 1024 0
DWIDTH 16 0
BBX 16 16 0 -2
BITMAP
0820
0870
1850
10d8
318c
2306
66fb
a020
2020
23fe
2020
2124
2124
2326
2623
20e0
ENDCHAR
STARTCHAR 17-26
ENCODING 12602
SWIDTH 1024 0
DWIDTH 16 0
BBX 16 16 0 -2
BITMAP
0820
0920
1920
13fe
3220
2420
6020
a7ff
2000
2000
23fe
2202
2202
2202
2202
23fe
ENDCHAR
STARTCHAR 17-27
ENCODING 12603
SWIDTH 1024 0
DWIDTH 16 0
BBX 16 16 0 -2
BITMAP
0800
0bff
1820
1020
31fc
2044
6044
a044
23ff
2000
21fe
2102
2102
2102
2102
21fe
ENDCHAR
STARTCHAR 17-28
ENCODING 12604
SWIDTH 1024 0
DWIDTH 16 0
BBX 16 16 0 -2
BITMAP
0400
05fc
0d04
0904
19fc
1000
33fe
7222
d222
1222
13fe
1200
1200
1201
1303
11fe
ENDCHAR
STARTCHAR 17-29
ENCODING 12605
SWIDTH 1024 0
DWIDTH 16 0
BBX 16 16 0 -2
BITMAP
0824
0822
1bff
1020
3020
23fe
6222
a222
23fe
2222
2222
23fe
2222
2222
2222
2226
ENDCHAR
STARTCHAR 17-30
ENCODING 12606
SWIDTH 1024 0
DWIDTH 16 0
BBX 16 16 0 -2
BITMAP
0420
0420
0dfc
0904
1904
11fc
3104
7104
d1fd
1113
1116
1118
1108
110c
11e6
1703
ENDCHAR
STARTCHAR 17-31
ENCODING 12607
SWIDTH 1024 0
DWIDTH 16 0
BBX 16 16 0 -2
BITMAP
0820
0a22
1b26
1124
3020
23fe
6202
a202
23fe
2202
2202
23fe
2202
2202
2202
220e
ENDCHAR
STARTCHAR 17-32
ENCODING 12608
SWIDTH 1024 0
DWIDTH 16 0
BBX 16 16 0 -2
BITMAP
1040
1040
17fe
3402
2402
61f8
6000
a000
27fe
2090
2090
2090
2190
2111
2313
260e
ENDCHAR
STARTCHAR 17-33
ENCODING 12609
SWIDTH 1024 0
DWIDTH 16 0
BBX 16 16 0 -2
BITMAP
0820
0820
1bfe
1222
33fe
2222
6222
a3fe
2000
27ff
2080
20fc
2004
2004
200c
2038
ENDCHAR
STARTCHAR 17-34
ENCODING 12610
SWIDTH 1024 0
DWIDTH 16 0
BBX 16 16 0 -2
BITMAP
1020
1020
17ff
3020
2124
6124
6124
a2aa
22aa
2471
2050
20d8
2088
218c
2306
2603
ENDCHAR
STARTCHAR 17-35
ENCODING 12611
SWIDTH 1024 0
DWIDTH 16 0
BBX 16 16 0 -2
BITMAP
0480
0480
0dff
0904
1a8c
10d8
3070
71dc
d707
1060
11cc
1038
11e3
100e
1078
13c0
ENDCHAR
STARTCHAR 17-36
ENCODING 12612
SWIDTH 1024 0
DWIDTH 16 0
BBX 16 16 0 -2
BITMAP
1040
11c0
171f
3111
2111
6ff1
6111
a111
2391
2351
2751
2511
2d11
291f
2100
2100
ENDCHAR
STARTCHAR 17-37
ENCODING 12613
SWIDTH 1024 0
DWIDTH 16 0
BBX 16 16 0 -2
BITMAP
0908
0908
1908
1fe8
301f
2289
66c9
a449
2289
2289
2389
2109
2119
2393
22b2
26e6
ENDCHAR
STARTCHAR 17-38
ENCODING 12614
SWIDTH 1024 0
DWIDTH 16 0
BBX 16 16 0 -2
BITMAP
0820
0820
1bff
1040
3044
209e
61e2
a000
21fe
2102
21fe
2102
21fe
2102
2102
2106
ENDCHAR
STARTCHAR 17-39
ENCODING 12615
SWIDTH 1024 0
DWIDTH 16 0
BBX 16 16 0 -2
BITMAP
0890
0990
1f10
141f
3431
27ea
6488
a488
2488
2488
249c
2494
2494
2496
28b2
20a3
ENDCHAR
STARTCHAR 17-40
ENCODING 12616
SWIDTH 1024 0
DWIDTH 16 0
BBX 16 16 0 -2
BITMAP
0820
083e
1820
13ff
3201
2222
6238
a2e0
2222
221e
2200
2248
2648
2449
2cc9
2187
ENDCHAR
STARTCHAR 17-41
ENCODING 12617
SWIDTH 1024 0
DWIDTH 16 0
BBX 16 16 0 -2
BITMAP
0400
05fe
0d00
09fc
1900
11fc
3100
7100
d7ff
1122
1136
1114
1118
110c
11e6
1703
ENDCHAR
STARTCHAR 17-42
ENCODING 12618
SWIDTH 1024 0
DWIDTH 16 0
BBX 16 16 0 -2
BITMAP
0900
0900
190f
13e9
3489
2089
6089
a7f9
2089
2089
2089
21c9
2149
236f
2630
2c00
ENDCHAR
STARTCHAR 17-43
ENCODING 12619
SWIDTH 1024 0
DWIDTH 16 0
BBX 16 16 0 -2
BITMAP
0804
0b18
18e0
131c
3040
2fff
6080
a1fc
2304
2dfc
2104
21fc
2104
2104
2104
211c
ENDCHAR
STARTCHAR 17-44
ENCODING 12620
SWIDTH 1024 0
DWIDTH 16 0
BBX 16 16 0 -2
BITMAP
0820
0820
1bfe
1202
3202
2100
61de
a152
2352
2252
27d2
2c96
2190
2111
2313
260e
ENDCHAR
STARTCHAR 17-45
ENCODING 12621
SWIDTH 1024 0
DWIDTH 16 0
BBX 16 16 0 -2
BITMAP
0444
0444
0cc6
09a3
1820
1064
3044
707e
d1c3
1010
1018
1048
1142
1143
1365
123c
ENDCHAR
STARTCHAR 17-46
ENCODING 12622
SWIDTH 1024 0
DWIDTH 16 0
BBX 16 16 0 -2
BITMAP
0820
0820
1bff
1201
3201
20fc
6084
a084
20fc
2080
2080
20fe
2082
2082
2082
20fe
ENDCHAR
STARTCHAR 17-47
ENCODING 12623
SWIDTH 1024 0
DWIDTH 16 0
BBX 16 16 0 -2
BITMAP
0450
0450
0c50
09fc
1954
1154
3154
71fc
d154
1154
1154
17ff
1000
1088
118c
1306
ENDCHAR
STARTCHAR 17-48
ENCODING 12624
SWIDTH 1024 0
DWIDTH 16 0
BBX 16 16 0 -2
BITMAP
0880
0880
19ff
1104
328c
28d8
6870
a9dc
2f07
2820
2922
2b76
2a54
28d8
218c
2307
ENDCHAR
STARTCHAR 17-49
ENCODING 12625
SWIDTH 1024 0
DWIDTH 16 0
BBX 16 16 0 -2
BITMAP
0840
0a44
1a4c
16e8
34b0
2198
630c
a647
2040
2246
26ec
24a0
21b0
2118
230c
2607
ENDCHAR
STARTCHAR 17-50
ENCODING 12626
SWIDTH 1024 0
DWIDTH 16 0
BBX 16 16 0 -2
BITMAP
0800
0bde
1a52
1252
3252
23de
6252
a252
2252
23de
2252
2252
2252
2252
22d2
2426
ENDCHAR
STARTCHAR 17-51
ENCODING 12627
SWIDTH 1024 0
DWIDTH 16 0
BBX 16 16 0 -2
BITMAP
0820
0a22
1b26
1124
3124
2020
63fe
a202
2202
22fa
228a
228a
22fa
2202
2202
220e
ENDCHAR
STARTCHAR 17-52
ENCODING 12628
SWIDTH 1024 0
DWIDTH 16 0
BBX 16 16 0 -2
BITMAP
0884
0884
1bff
1084
3084
20fc
6084
a084
20fc
2084
2084
23ff
2000
2084
2186
2303
ENDCHAR
STARTCHAR 17-53
ENCODING 12629
SWIDTH 1024 0
DWIDTH 16 0
BBX 16 16 0 -2
BITMAP
0800
0bfe
1a02
1222
32fa
2222
6222
a2fa
2202
22fa
228a
228a
22fa
2202
2202
240e
ENDCHAR
STARTCHAR 17-54
ENCODING 12630
SWIDTH 1024 0
DWIDTH 16 0
BBX 16 16 0 -2
BITMAP
0810
0810
ff90
0810
7f10
4110
4110
7f10
4110
4138
7f28
0828
ffec
0844
08c6
0983
ENDCHAR
STARTCHAR 17-55
ENCODING 12631
SWIDTH 1024 0
DWIDTH 16 0
BBX 16 16 0 -2
BITMAP
0820
0820
1820
17ff
3000
21fc
6104
a104
2104
21fc
2020
2124
2124
2326
2623
20e0
ENDCHAR
STARTCHAR 17-56
ENCODING 12632
SWIDTH 1024 0
DWIDTH 16 0
BBX 16 16 0 -2
BITMAP
0820
0820
1fff
1020
33fe
2022
67ff
a022
23fe
2020
2120
213e
2120
23a0
26e0
2c3f
ENDCHAR
STARTCHAR 17-57
ENCODING 12633
SWIDTH 1024 0
DWIDTH 16 0
BBX 16 16 0 -2
BITMAP
1020
1020
17ff
3401
2401
61fc
6000
a000
27ff
2020
2124
2124
2326
2222
2623
20e0
ENDCHAR
STARTCHAR 17-58
ENCODING 12634
SWIDTH 1024 0
DWIDTH 16 0
BBX 16 16 0 -2
BITMAP
0800
0bfe
1a22
1222
33fe
2222
6222
a3fe
2020
27ff
20a8
20ac
21a4
2326
2623
2020
ENDCHAR
STARTCHAR 17-59
ENCODING 12635
SWIDTH 1024 0
DWIDTH 16 0
BBX 16 16 0 -2
BITMAP
0820
0820
1bfe
1020
37ff
2088
6188
a70f
2040
207c
20c4
218c
2358
2070
20dc
2787
ENDCHAR
STARTCHAR 17-60
ENCODING 12636
SWIDTH 1024 0
DWIDTH 16 0
BBX 16 16 0 -2
BITMAP
0820
0820
1fff
1020
33fe
2222
63fe
a222
2222
23fe
20a8
20a8
21ac
2726
2e23
2020
ENDCHAR
STARTCHAR 17-61
ENCODING 12637
SWIDTH 1024 0
DWIDTH 16 0
BBX 16 16 0 -2
BITMAP
0820
0820
1fff
1020
33fe
2222
63fe
a020
23fe
2022
2fff
2022
23fe
2020
2020
2060
ENDCHAR
STARTCHAR 17-62
ENCODING 12638
SWIDTH 1024 0
DWIDTH 16 0
BBX 16 16 0 -2
BITMAP
080a
0be9
1809
1008
37ff
2088
6088
a288
22e8
2288
228c
2284
2284
23f5
2e07
2802
ENDCHAR
STARTCHAR 17-63
ENCODING 12639
SWIDTH 1024 0
DWIDTH 16 0
BBX 16 16 0 -2
BITMAP
0888
0888
1fff
1088
3088
2020
63fe
a222
2222
2222
27ff
2050
20d8
218c
2306
2603
ENDCHAR
STARTCHAR 17-64
ENCODING 12640
SWIDTH 1024 0
DWIDTH 16 0
BBX 16 16 0 -2
BITMAP
100c
1078
17c2
3266
232c
6108
6040
a3fc
2244
23fc
2244
2244
2fff
2204
2204
221c
ENDCHAR
STARTCHAR 17-65
ENCODING 12641
SWIDTH 1024 0
DWIDTH 16 0
BBX 16 16 0 -2
BITMAP
0904
098c
1888
17ff
3000
23c2
6252
a252
23d2
2252
2252
23d2
2242
2242
2242
22ce
ENDCHAR
STARTCHAR 17-66
ENCODING 12642
SWIDTH 1024 0
DWIDTH 16 0
BBX 16 16 0 -2
BITMAP
080c
0838
1be0
1020
37ff
2020
63fe
a222
23fe
2222
23fe
2020
23fe
2020
2020
27ff
ENDCHAR
STARTCHAR 17-67
ENCODING 12643
SWIDTH 1024 0
DWIDTH 16 0
BBX 16 16 0 -2
BITMAP
0820
0820
1bfe
1020
31fc
2050
63ff
a088
2104
23fe
2505
2104
21fc
2104
2104
21fc
ENDCHAR
STARTCHAR 17-68
ENCODING 12644
SWIDTH 1024 0
DWIDTH 16 0
BBX 16 16 0 -2
BITMAP
0806
083c
1be0
1020
33fe
2222
6222
a3fe
2020
27ff
2421
2429
243d
25e5
2401
2403
ENDCHAR
STARTCHAR 17-69
ENCODING 12645
SWIDTH 1024 0
DWIDTH 16 0
BBX 16 16 0 -2
BITMAP
1104
1104
17ff
3104
2104
6040
6040
a7ff
2080
2100
23fe
2502
2102
2102
2102
21fe
ENDCHAR
STARTCHAR 17-70
ENCODING 12646
SWIDTH 1024 0
DWIDTH 16 0
BBX 16 16 0 -2
BITMAP
0800
0bfe
1a22
1222
33fe
2222
6222
a3fe
2000
27ff
2122
2136
2114
2118
21cc
2707
ENDCHAR
STARTCHAR 17-71
ENCODING 12647
SWIDTH 1024 0
DWIDTH 16 0
BBX 16 16 0 -2
BITMAP
1000
17fc
1404
3434
25e4
6444
65f4
a554
2554
25f4
2444
2444
2454
2475
25d5
2803
ENDCHAR
STARTCHAR 17-72
ENCODING 12648
SWIDTH 1024 0
DWIDTH 16 0
BBX 16 16 0 -2
BITMAP
0400
05fc
0d04
09fc
1904
1104
31fc
7000
d7ff
1100
13ff
1649
10d9
13b3
1062
11ce
ENDCHAR
STARTCHAR 17-73
ENCODING 12649
SWIDTH 1024 0
DWIDTH 16 0
BBX 16 16 0 -2
BITMAP
0800
0bfe
1a02
1202
33fe
2200
62fe
a220
2244
22fe
2212
2210
26fe
2410
2c10
21ff
ENDCHAR
STARTCHAR 17-74
ENCODING 12650
SWIDTH 1024 0
DWIDTH 16 0
BBX 16 16 0 -2
BITMAP
0820
08ac
19a6
1723
3068
2018
61fe
af02
2102
21fe
2102
2102
21fe
2102
2102
21fe
ENDCHAR
STARTCHAR 17-75
ENCODING 12651
SWIDTH 1024 0
DWIDTH 16 0
BBX 16 16 0 -2
BITMAP
1020
1020
17ff
3104
218c
6088
67ff
a421
2421
23fe
2222
2222
2222
2226
2020
2020
ENDCHAR
STARTCHAR 17-76
ENCODING 12652
SWIDTH 1024 0
DWIDTH 16 0
BBX 16 16 0 -2
BITMAP
0420
0440
0dfc
0904
19fc
1104
3104
71fc
d000
13fe
1020
11fc
1020
1020
17ff
1000
ENDCHAR
STARTCHAR 17-77
ENCODING 12653
SWIDTH 1024 0
DWIDTH 16 0
BBX 16 16 0 -2
BITMAP
0800
0bff
1848
13ff
3249
2249
6279
a000
2040
23ff
2084
208c
21e8
2038
20ee
2383
ENDCHAR
STARTCHAR 17-78
ENCODING 12654
SWIDTH 1024 0
DWIDTH 16 0
BBX 16 16 0 -2
BITMAP
1090
1390
1e12
3252
2256
6fd4
6254
a210
2710
26b8
2aa8
2a28
322c
2264
2246
22c3
ENDCHAR
STARTCHAR 17-79
ENCODING 12655
SWIDTH 1024 0
DWIDTH 16 0
BBX 16 16 0 -2
BITMAP
0820
0820
1bfe
1104
318c
2088
67ff
a000
2000
21fc
2104
2104
21fc
2104
2104
21fc
ENDCHAR
STARTCHAR 17-80
ENCODING 12656
SWIDTH 1024 0
DWIDTH 16 0
BBX 16 16 0 -2
BITMAP
1000
17ff
1041
327a
2240
67e0
6c3f
a800
27fe
2402
27fe
2402
27fe
2402
2402
240e
ENDCHAR
STARTCHAR 17-81
ENCODING 12657
SWIDTH 1024 0
DWIDTH 16 0
BBX 16 16 0 -2
BITMAP
0840
0840
1bfe
1090
330c
2cf3
6110
a7b0
2060
21c0
273c
2044
21ec
2018
2070
21c0
ENDCHAR
STARTCHAR 17-82
ENCODING 12658
SWIDTH 1024 0
DWIDTH 16 0
BBX 16 16 0 -2
BITMAP
0800
0bfe
1800
11fc
3104
2104
61fc
a000
2000
23fe
2222
2222
23fe
2222
2222
23fe
ENDCHAR
STARTCHAR 17-83
ENCODING 12659
SWIDTH 1024 0
DWIDTH 16 0
BBX 16 16 0 -2
BITMAP
1000
1fff
1040
30c0
2080
67fe
6492
a492
24f2
2492
2492
24f2
2492
2492
2492
27fe
ENDCHAR
STARTCHAR 17-84
ENCODING 12660
SWIDTH 1024 0
DWIDTH 16 0
BBX 16 16 0 -2
BITMAP
1100
17de
110a
310a
27ca
610a
611a
a1d2
2736
2000
2020
27ff
2050
20d8
218c
2707
ENDCHAR
STARTCHAR 17-85
ENCODING 12661
SWIDTH 1024 0
DWIDTH 16 0
BBX 16 16 0 -2
BITMAP
0806
083c
1be0
1210
33ff
2210
62fe
a282
2282
22fe
2282
2682
24fe
2c82
2082
20fe
ENDCHAR
STARTCHAR 17-86
ENCODING 12662
SWIDTH 1024 0
DWIDTH 16 0
BBX 16 16 0 -2
BITMAP
1000
1fdf
1491
3493
2792
6496
6494
a492
2791
2491
2491
2491
2797
2c90
2090
2090
ENDCHAR
STARTCHAR 17-87
ENCODING 12663
SWIDTH 1024 0
DWIDTH 16 0
BBX 16 16 0 -2
BITMAP
0820
0820
1bfe
1222
3222
23fe
6222
a222
23fe
2020
27fe
2104
2098
2070
21dc
2707
ENDCHAR
STARTCHAR 17-88
ENCODING 12664
SWIDTH 1024 0
DWIDTH 16 0
BBX 16 16 0 -2
BITMAP
0820
0bfe
1820
11fc
3020
27ff
6020
a044
2188
2052
27ff
2021
20a8
23ae
2623
2020
ENDCHAR
STARTCHAR 17-89
ENCODING 12665
SWIDTH 1024 0
DWIDTH 16 0
BBX 16 16 0 -2
BITMAP
0840
0840
1fff
1088
328a
2104
63fe
ad05
2104
21fc
2104
2104
21fc
2104
2104
21fc
ENDCHAR
STARTCHAR 17-90
ENCODING 12666
SWIDTH 1024 0
DWIDTH 16 0
BBX 16 16 0 -2
BITMAP
0800
0bff
1a08
1210
32fe
2282
6282
a2fe
2282
2282
22fe
2210
2654
24d6
2d93
2030
ENDCHAR
STARTCHAR 17-91
ENCODING 12667
SWIDTH 1024 0
DWIDTH 16 0
BBX 16 16 0 -2
BITMAP
0800
0bfc
1a04
1204
33fc
2000
67fe
a402
27fe
2402
27fe
2402
27fe
2204
2606
2c03
ENDCHAR
STARTCHAR 17-92
ENCODING 12668
SWIDTH 1024 0
DWIDTH 16 0
BBX 16 16 0 -2
BITMAP
1020
1020
17ff
3020
21fc
6104
61fc
a104
21fc
2104
21fc
2000
27ff
2088
218c
2707
ENDCHAR
STARTCHAR 17-93
ENCODING 12669
SWIDTH 1024 0
DWIDTH 16 0
BBX 16 16 0 -2
BITMAP
0820
0820
1bff
1210
32fe
2212
63ff
a212
2212
22fe
2200
22fe
2682
2482
2c82
20fe
ENDCHAR
STARTCHAR 17-94
ENCODING 12670
SWIDTH 1024 0
DWIDTH 16 0
BBX 16 16 0 -2
BITMAP
1020
1020
17ff
3000
21fc
6104
61fc
a000
27ff
2401
24f9
2489
2489
24f9
2401
2407
ENDCHAR
STARTCHAR 18-01
ENCODING 12833
SWIDTH 1024 0
DWIDTH 16 0
BBX 16 16 0 -2
BITMAP
1006
103c
13c2
3466
2624
6240
60c8
a190
20a4
207e
23c3
2020
27ff
2050
218c
2707
ENDCHAR
STARTCHAR 18-02
ENCODING 12834
SWIDTH 1024 0
DWIDTH 16 0
BBX 16 16 0 -2
BITMAP
100e
17f8
1400
37fe
2402
67fe
6400
a7ff
2421
24e7
27bd
2421
2ce7
2bbd
3821
20e7
ENDCHAR
STARTCHAR 18-03
ENCODING 12835
SWIDTH 1024 0
DWIDTH 16 0
BBX 16 16 0 -2
BITMAP
1104
1088
17ff
3090
23fe
6092
6092
a7ff
2092
2092
23fe
2098
2194
2396
2693
2090
ENDCHAR
STARTCHAR 18-04
ENCODING 12836
SWIDTH 1024 0
DWIDTH 16 0
BBX 16 16 0 -2
BITMAP
0820
0870
18d8
118c
3777
2000
61fc
a104
21fc
2104
21fc
2300
22fe
2682
2c82
20fe
ENDCHAR
STARTCHAR 18-05
ENCODING 12837
SWIDTH 1024 0
DWIDTH 16 0
BBX 16 16 0 -2
BITMAP
0820
0820
1bfe
1202
328a
218c
6326
a070
20d8
218c
2707
21fc
2104
2104
2104
21fc
ENDCHAR
STARTCHAR 18-06
ENCODING 12838
SWIDTH 1024 0
DWIDTH 16 0
BBX 16 16 0 -2
BITMAP
0840
087c
18c4
11ac
3358
2030
60c0
a700
21fe
2220
2020
27ff
2020
2222
2222
23fe
ENDCHAR
STARTCHAR 18-07
ENCODING 12839
SWIDTH 1024 0
DWIDTH 16 0
BBX 16 16 0 -2
BITMAP
0904
0888
1bfe
1020
3020
21fc
6020
a020
23fe
2040
2080
21fe
2310
2c10
2010
21ff
ENDCHAR
STARTCHAR 18-08
ENCODING 12840
SWIDTH 1024 0
DWIDTH 16 0
BBX 16 16 0 -2
BITMAP
0488
0488
0d8c
0b46
18c8
108c
31f6
7000
d7de
1042
1252
114a
10c6
114a
1252
10c6
ENDCHAR
STARTCHAR 18-09
ENCODING 12841
SWIDTH 1024 0
DWIDTH 16 0
BBX 16 16 0 -2
BITMAP
1004
1784
1004
3fc4
203f
6784
6024
a034
2794
2014
2004
2784
2484
2484
2484
279c
ENDCHAR
STARTCHAR 18-10
ENCODING 12842
SWIDTH 1024 0
DWIDTH 16 0
BBX 16 16 0 -2
BITMAP
1208
1208
1208
3fbf
2000
64a2
64a2
a4a2
25b6
2514
2114
21d4
2714
2c04
207f
2000
ENDCHAR
STARTCHAR 18-11
ENCODING 12843
SWIDTH 1024 0
DWIDTH 16 0
BBX 16 16 0 -2
BITMAP
1020
1020
17fe
3402
2000
63fc
6040
a1a2
2626
2054
2190
2638
2054
2196
2613
2060
ENDCHAR
STARTCHAR 18-12
ENCODING 12844
SWIDTH 1024 0
DWIDTH 16 0
BBX 16 16 0 -2
BITMAP
0840
0888
18f8
1204
3489
278f
6020
a050
218c
2727
2040
2190
2066
218c
2038
23e0
ENDCHAR
STARTCHAR 18-13
ENCODING 12845
SWIDTH 1024 0
DWIDTH 16 0
BBX 16 16 0 -2
BITMAP
1020
1040
17fe
3442
257a
648a
6552
a462
25d2
2402
27fe
2020
2532
2513
2d05
28fc
ENDCHAR
STARTCHAR 18-14
ENCODING 12846
SWIDTH 1024 0
DWIDTH 16 0
BBX 16 16 0 -2
BITMAP
0820
0a22
1a22
13fe
3000
23de
6252
a252
23de
2252
2252
23de
2252
2252
22d2
2426
ENDCHAR
STARTCHAR 18-15
ENCODING 12847
SWIDTH 1024 0
DWIDTH 16 0
BBX 16 16 0 -2
BITMAP
1020
1020
17ff
3104
2088
67ff
6000
a3fe
2202
23fe
2202
23fe
2088
2189
2309
2e07
ENDCHAR
STARTCHAR 18-16
ENCODING 12848
SWIDTH 1024 0
DWIDTH 16 0
BBX 16 16 0 -2
BITMAP
1100
11de
1322
36a6
2154
6088
6104
a6fb
2000
2000
23fe
2020
2124
2326
2623
20e0
ENDCHAR
STARTCHAR 18-17
ENCODING 12849
SWIDTH 1024 0
DWIDTH 16 0
BBX 16 16 0 -2
BITMAP
0820
0820
1bfe
1104
3088
27ff
6000
a3fe
2202
23fe
2202
23fe
2020
27ff
2020
2020
ENDCHAR
STARTCHAR 18-18
ENCODING 12850
SWIDTH 1024 0
DWIDTH 16 0
BBX 16 16 0 -2
BITMAP
0954
0954
1fff
1154
3354
2677
6000
a7ff
2421
2421
23fe
2222
2222
2222
2226
2020
ENDCHAR
STARTCHAR 18-19
ENCODING 12851
SWIDTH 1024 0
DWIDTH 16 0
BBX 16 16 0 -2
BITMAP
1088
1088
17ff
3088
2288
6200
67ff
ac01
2bf9
2249
23f9
2249
23f9
2249
225b
2006
ENDCHAR
STARTCHAR 18-20
ENCODING 12852
SWIDTH 1024 0
DWIDTH 16 0
BBX 16 16 0 -2
BITMAP
0800
0bff
1848
13ff
3249
2249
63ff
a000
21fe
2000
23ff
2020
2124
2326
2623
20e0
ENDCHAR
STARTCHAR 18-21
ENCODING 12853
SWIDTH 1024 0
DWIDTH 16 0
BBX 16 16 0 -2
BITMAP
0800
0bde
1842
114a
30c6
214a
6022
a070
21dc
2707
2020
21c8
2032
21c4
2018
21e0
ENDCHAR
STARTCHAR 18-22
ENCODING 12854
SWIDTH 1024 0
DWIDTH 16 0
BBX 16 16 0 -2
BITMAP
1108
1108
1fe8
311f
27d2
6572
6552
a7da
254a
254e
27c4
2104
2fee
210a
211b
2111
ENDCHAR
STARTCHAR 18-23
ENCODING 12855
SWIDTH 1024 0
DWIDTH 16 0
BBX 16 16 0 -2
BITMAP
1000
17df
1451
37df
2410
6451
63cf
a000
2088
23fe
2088
2088
27ff
2088
218c
2707
ENDCHAR
STARTCHAR 18-24
ENCODING 12856
SWIDTH 1024 0
DWIDTH 16 0
BBX 16 16 0 -2
BITMAP
1202
1104
17ff
3020
23fe
6020
67ff
a222
2124
27ff
2000
23fe
2202
2202
2202
23fe
ENDCHAR
STARTCHAR 18-25
ENCODING 12857
SWIDTH 1024 0
DWIDTH 16 0
BBX 16 16 0 -2
BITMAP
0820
09fc
1924
11fc
3020
27ff
6000
a1fc
2104
21fc
2104
21fc
2104
21fc
2088
2306
ENDCHAR
STARTCHAR 18-26
ENCODING 12858
SWIDTH 1024 0
DWIDTH 16 0
BBX 16 16 0 -2
BITMAP
1104
1088
17ff
3050
23fe
6252
639e
a202
23fe
2202
23fe
2004
27ff
2104
2084
201c
ENDCHAR
STARTCHAR 18-27
ENCODING 12859
SWIDTH 1024 0
DWIDTH 16 0
BBX 16 16 0 -2
BITMAP
1108
1108
1928
354f
210a
6fea
683a
a82a
2baa
2aae
2aa4
2aa4
2bae
282a
286a
201b
ENDCHAR
STARTCHAR 18-28
ENCODING 12860
SWIDTH 1024 0
DWIDTH 16 0
BBX 16 16 0 -2
BITMAP
1004
13e8
1451
328a
2104
66fb
6000
a1fc
2104
2104
21fc
2000
2104
218c
2088
27ff
ENDCHAR
STARTCHAR 18-29
ENCODING 12861
SWIDTH 1024 0
DWIDTH 16 0
BBX 16 16 0 -2
BITMAP
1000
17fe
1402
37fe
2400
64fc
6408
a5fe
2410
2430
25ce
2442
24e4
279f
2884
218c
ENDCHAR
STARTCHAR 18-30
ENCODING 12862
SWIDTH 1024 0
DWIDTH 16 0
BBX 16 16 0 -2
BITMAP
1122
1224
16ad
3122
2225
62af
67a4
a022
23ff
2220
2312
2294
2288
2615
2427
2cc2
ENDCHAR
STARTCHAR 18-31
ENCODING 12863
SWIDTH 1024 0
DWIDTH 16 0
BBX 16 16 0 -2
BITMAP
1006
103c
17e2
3246
2124
67ff
6401
a505
21c4
237f
2254
25d4
2094
21bf
2304
2604
ENDCHAR
STARTCHAR 18-32
ENCODING 12864
SWIDTH 1024 0
DWIDTH 16 0
BBX 16 16 0 -2
BITMAP
0bde
0a52
1bde
1000
33fe
2222
6222
a3fe
2222
2222
23fe
2020
27ff
2020
2020
2020
ENDCHAR
STARTCHAR 18-33
ENCODING 12865
SWIDTH 1024 0
DWIDTH 16 0
BBX 16 16 0 -2
BITMAP
090a
090b
1909
17c8
303f
27c8
6448
a448
245c
27d4
2114
2594
2554
2935
2125
2363
ENDCHAR
STARTCHAR 18-34
ENCODING 12866
SWIDTH 1024 0
DWIDTH 16 0
BBX 16 16 0 -2
BITMAP
0820
0bfe
1820
1104
37ff
2104
6000
a3fe
2202
23fe
2202
23fe
2202
23fe
2104
2603
ENDCHAR
STARTCHAR 18-35
ENCODING 12867
SWIDTH 1024 0
DWIDTH 16 0
BBX 16 16 0 -2
BITMAP
1000
17df
1451
37df
2451
67df
6401
a4f9
2489
2489
24f9
2489
2489
24f9
2401
2407
ENDCHAR
STARTCHAR 18-36
ENCODING 12868
SWIDTH 1024 0
DWIDTH 16 0
BBX 16 16 0 -2
BITMAP
1222
1124
1020
37ff
20a8
61ac
6727
a120
21c4
237f
2654
21d4
20bf
2184
2304
2604
ENDCHAR
STARTCHAR 18-37
ENCODING 12869
SWIDTH 1024 0
DWIDTH 16 0
BBX 16 16 0 -2
BITMAP
1000
17ff
1000
33fe
2202
63fe
6224
a248
22fe
2390
22fc
2290
26fc
2490
2cff
2000
ENDCHAR
STARTCHAR 18-38
ENCODING 12870
SWIDTH 1024 0
DWIDTH 16 0
BBX 16 16 0 -2
BITMAP
1000
17fc
14a4
34a4
27bc
60a0
62a0
aebe
28a2
28a2
2fbe
28a2
28a2
2fbe
2041
203f
ENDCHAR
STARTCHAR 18-39
ENCODING 12871
SWIDTH 1024 0
DWIDTH 16 0
BBX 16 16 0 -2
BITMAP
04f8
0488
0c88
08f8
1800
13de
3252
7252
d3de
1020
17ff
10a8
11ac
1326
1623
1020
ENDCHAR
STARTCHAR 18-40
ENCODING 12872
SWIDTH 1024 0
DWIDTH 16 0
BBX 16 16 0 -2
BITMAP
100e
17f8
1242
3124
27ff
6421
6292
a285
247c
2080
21fc
2304
2698
2070
21dc
2707
ENDCHAR
STARTCHAR 18-41
ENCODING 12873
SWIDTH 1024 0
DWIDTH 16 0
BBX 16 16 0 -2
BITMAP
1020
17ff
1000
33fe
2202
62fa
628a
a2fa
2202
23fe
2104
21fc
2104
21fc
2104
27ff
ENDCHAR
STARTCHAR 18-42
ENCODING 12874
SWIDTH 1024 0
DWIDTH 16 0
BBX 16 16 0 -2
BITMAP
1288
1288
1fe8
329f
2292
6432
67d2
a45a
2f4a
254e
2544
2544
274e
20ca
209b
2391
ENDCHAR
STARTCHAR 18-43
ENCODING 12875
SWIDTH 1024 0
DWIDTH 16 0
BBX 16 16 0 -2
BITMAP
0800
0bfe
1a92
1292
33fe
2000
67ff
a000
23fe
2202
23fe
2061
20b2
212c
2623
2020
ENDCHAR
STARTCHAR 18-44
ENCODING 12876
SWIDTH 1024 0
DWIDTH 16 0
BBX 16 16 0 -2
BITMAP
0820
0850
198c
1777
3000
23fe
6222
a2aa
2222
23fe
2000
21fc
2104
21fc
2104
21fc
ENDCHAR
STARTCHAR 18-45
ENCODING 12877
SWIDTH 1024 0
DWIDTH 16 0
BBX 16 16 0 -2
BITMAP
10f8
1110
17ff
3244
2387
627c
6200
a3ff
2200
227c
2200
227c
2200
22fe
2482
20fe
ENDCHAR
STARTCHAR 18-46
ENCODING 12878
SWIDTH 1024 0
DWIDTH 16 0
BBX 16 16 0 -2
BITMAP
1108
1208
17c8
345f
27d2
6472
67d2
a11a
2fea
220e
23c4
2244
264e
24ca
2c9b
2991
ENDCHAR
STARTCHAR 18-47
ENCODING 12879
SWIDTH 1024 0
DWIDTH 16 0
BBX 16 16 0 -2
BITMAP
0820
0a8a
1a52
1326
3252
228a
6222
a3fe
2104
2607
2080
21fc
2748
2030
20dc
2787
ENDCHAR
STARTCHAR 18-48
ENCODING 12880
SWIDTH 1024 0
DWIDTH 16 0
BBX 16 16 0 -2
BITMAP
1114
1116
17d2
3110
2ffe
6110
67d4
a114
27d4
2554
27dc
2548
27c9
211d
27d7
2132
ENDCHAR
STARTCHAR 18-49
ENCODING 12881
SWIDTH 1024 0
DWIDTH 16 0
BBX 16 16 0 -2
BITMAP
1000
1fff
1090
37fe
2492
6492
67fe
a204
2384
26bf
2484
2b94
2124
237f
2604
2c04
ENDCHAR
STARTCHAR 18-50
ENCODING 12882
SWIDTH 1024 0
DWIDTH 16 0
BBX 16 16 0 -2
BITMAP
0820
0bff
1a01
11fe
30a4
232b
6030
a1fe
2702
21fe
2102
21fe
2102
21fe
2084
2303
ENDCHAR
STARTCHAR 18-51
ENCODING 12883
SWIDTH 1024 0
DWIDTH 16 0
BBX 16 16 0 -2
BITMAP
1400
14bf
1702
3414
2488
63bf
6409
a78a
2a28
222e
2fa8
2228
2328
22b8
246c
28c7
ENDCHAR
STARTCHAR 18-52
ENCODING 12884
SWIDTH 1024 0
DWIDTH 16 0
BBX 16 16 0 -2
BITMAP
1010
14fe
1692
32fe
2010
61ff
6000
aefc
2284
22fc
2280
22fe
2282
26fe
2500
2cff
ENDCHAR
STARTCHAR 18-53
ENCODING 12885
SWIDTH 1024 0
DWIDTH 16 0
BBX 16 16 0 -2
BITMAP
1200
17fe
1d54
3154
27ff
6154
6154
a3fe
2000
2204
23de
2654
2d54
20ff
2384
2e04
ENDCHAR
STARTCHAR 18-54
ENCODING 12886
SWIDTH 1024 0
DWIDTH 16 0
BBX 16 16 0 -2
BITMAP
1020
1020
17ff
3441
24a1
628a
64f9
a000
23fe
2292
23fe
2000
27ff
2020
2020
20e0
ENDCHAR
STARTCHAR 18-55
ENCODING 12887
SWIDTH 1024 0
DWIDTH 16 0
BBX 16 16 0 -2
BITMAP
1104
1555
1555
328a
2451
6000
63fe
a202
2020
27ff
20a8
20a8
21ac
2326
2623
2020
ENDCHAR
STARTCHAR 18-56
ENCODING 12888
SWIDTH 1024 0
DWIDTH 16 0
BBX 16 16 0 -2
BITMAP
1000
17ff
1124
3222
27ff
6222
6376
a2aa
2376
2222
2376
22aa
2376
2222
2222
2206
ENDCHAR
STARTCHAR 18-57
ENCODING 12889
SWIDTH 1024 0
DWIDTH 16 0
BBX 16 16 0 -2
BITMAP
1020
1020
17ff
3448
25fe
6448
67ff
a420
25fe
2522
25fe
2522
2d22
29fe
3884
2303
ENDCHAR
STARTCHAR 18-58
ENCODING 12890
SWIDTH 1024 0
DWIDTH 16 0
BBX 16 16 0 -2
BITMAP
1104
17df
1104
37df
2104
628a
6451
a1fc
2104
21fc
2104
21fc
2104
21fc
2088
2306
ENDCHAR
STARTCHAR 18-59
ENCODING 12891
SWIDTH 1024 0
DWIDTH 16 0
BBX 16 16 0 -2
BITMAP
10c3
179e
1410
37df
2514
6924
6000
a3fc
2204
23fc
2204
23fc
2204
23fc
2108
2e07
ENDCHAR
STARTCHAR 18-60
ENCODING 12892
SWIDTH 1024 0
DWIDTH 16 0
BBX 16 16 0 -2
BITMAP
1100
113e
1fe2
3122
27be
6122
6fe2
a03e
27a2
24a2
27be
2494
2794
2495
24b5
25e3
ENDCHAR
STARTCHAR 18-61
ENCODING 12893
SWIDTH 1024 0
DWIDTH 16 0
BBX 16 16 0 -2
BITMAP
0900
093e
1fe2
12a2
32be
22a2
67e2
a13e
2122
27e2
213e
2394
2554
2935
2125
2163
ENDCHAR
STARTCHAR 18-62
ENCODING 12894
SWIDTH 1024 0
DWIDTH 16 0
BBX 16 16 0 -2
BITMAP
1244
1148
17fe
3090
2fff
6204
67fe
aa21
23fc
2220
23fc
2220
23ff
2551
2d49
2803
ENDCHAR
STARTCHAR 18-63
ENCODING 12895
SWIDTH 1024 0
DWIDTH 16 0
BBX 16 16 0 -2
BITMAP
1108
1108
1fef
3448
228f
6fe1
600f
a7c8
244f
27c8
244f
27c8
244f
2448
2449
24c7
ENDCHAR
STARTCHAR 18-64
ENCODING 12896
SWIDTH 1024 0
DWIDTH 16 0
BBX 16 16 0 -2
BITMAP
11f8
1610
13fe
3202
23fe
6110
61de
a111
23cf
2000
23fe
2222
23fe
2094
2191
270f
ENDCHAR
STARTCHAR 18-65
ENCODING 12897
SWIDTH 1024 0
DWIDTH 16 0
BBX 16 16 0 -2
BITMAP
1020
17ff
1000
33de
2252
63de
6088
a3fe
2088
23fe
2088
27ff
2091
270a
21e4
2303
ENDCHAR
STARTCHAR 18-66
ENCODING 12898
SWIDTH 1024 0
DWIDTH 16 0
BBX 16 16 0 -2
BITMAP
1100
13ff
16cc
3078
28cc
6fff
6924
a9fc
2924
29fc
2820
29fc
2820
27ff
2154
2252
ENDCHAR
STARTCHAR 18-67
ENCODING 12899
SWIDTH 1024 0
DWIDTH 16 0
BBX 16 16 0 -2
BITMAP
1000
17fe
1492
37fe
2000
610a
661f
a2b4
2114
225e
27d4
2154
211e
2554
2954
211f
ENDCHAR
STARTCHAR 18-68
ENCODING 12900
SWIDTH 1024 0
DWIDTH 16 0
BBX 16 16 0 -2
BITMAP
1514
17ff
1924
37df
228a
62ca
6493
a3fe
2202
23fe
2202
23fe
2202
23fe
2104
2603
ENDCHAR
STARTCHAR 18-69
ENCODING 12901
SWIDTH 1024 0
DWIDTH 16 0
BBX 16 16 0 -2
BITMAP
0080
0080
1ffe
1080
1080
1080
1080
ffff
0080
0180
0140
0340
0640
0c41
3863
e03e
ENDCHAR
STARTCHAR 18-70
ENCODING 12902
SWIDTH 1024 0
DWIDTH 16 0
BBX 16 16 0 -2
BITMAP
0420
0c30
3a1c
e607
0410
0410
0ff8
380c
0000
0420
0420
0c20
0820
1821
3033
e01e
ENDCHAR
STARTCHAR 18-71
ENCODING 12903
SWIDTH 1024 0
DWIDTH 16 0
BBX 16 16 0 -2
BITMAP
000e
0078
3fc0
2040
2040
207c
2040
2040
2fff
2110
2110
6110
4310
c211
0613
0c0e
ENDCHAR
STARTCHAR 18-72
ENCODING 12904
SWIDTH 1024 0
DWIDTH 16 0
BBX 16 16 0 -2
BITMAP
0404
0404
3f3f
2424
2424
2424
2424
ff7f
0404
0c0c
0c0c
1c1c
1514
3535
6365
c0c3
ENDCHAR
STARTCHAR 18-73
ENCODING 12905
SWIDTH 1024 0
DWIDTH 16 0
BBX 16 16 0 -2
BITMAP
0000
3c3c
2424
2424
2424
27e4
2004
2004
2004
3ffc
0420
0c20
0820
1821
3033
e01e
ENDCHAR
STARTCHAR 18-74
ENCODING 12906
SWIDTH 1024 0
DWIDTH 16 0
BBX 16 16 0 -2
BITMAP
0100
0100
ffff
0000
0810
0c30
0420
1ff8
1008
1008
1ff8
0420
0c20
1821
3033
e01e
ENDCHAR
STARTCHAR 18-75
ENCODING 12907
SWIDTH 1024 0
DWIDTH 16 0
BBX 16 16 0 -2
BITMAP
0020
7c20
0060
0044
00c4
fe9e
29f2
2800
28fc
2884
2884
2884
68fc
4801
cc03
87fe
ENDCHAR
STARTCHAR 18-76
ENCODING 12908
SWIDTH 1024 0
DWIDTH 16 0
BBX 16 16 0 -2
BITMAP
1010
5050
5050
fefe
9090
1010
1010
feff
2848
2848
2848
2848
6ac8
4c89
c989
8307
ENDCHAR
STARTCHAR 18-77
ENCODING 12909
SWIDTH 1024 0
DWIDTH 16 0
BBX 16 16 0 -2
BITMAP
1010
11fe
9528
557c
5528
11fe
ff10
297c
2954
297c
2954
297c
6a29
48c5
cc01
87ff
ENDCHAR
STARTCHAR 18-78
ENCODING 12910
SWIDTH 1024 0
DWIDTH 16 0
BBX 16 16 0 -2
BITMAP
4000
47c0
4040
4040
4040
4040
40e0
40a0
41b0
4110
4318
460c
4c06
6000
3fff
0000
ENDCHAR
STARTCHAR 18-79
ENCODING 12911
SWIDTH 1024 0
DWIDTH 16 0
BBX 16 16 0 -2
BITMAP
3004
180c
0818
0010
3ffc
2104
3ffc
2104
3ffc
0420
7ffe
0420
ffff
0810
381c
e007
ENDCHAR
STARTCHAR 18-80
ENCODING 12912
SWIDTH 1024 0
DWIDTH 16 0
BBX 16 16 0 -2
BITMAP
0000
7ffe
4002
4002
4002
5ffa
4002
4002
4002
5ffa
4002
4002
4002
4002
4002
400e
ENDCHAR
STARTCHAR 18-81
ENCODING 12913
SWIDTH 1024 0
DWIDTH 16 0
BBX 16 16 0 -2
BITMAP
0000
1ff8
1008
1008
1008
7ffe
1008
1008
1008
7ffe
1008
1008
1008
1008
1008
1038
ENDCHAR
STARTCHAR 18-82
ENCODING 12914
SWIDTH 1024 0
DWIDTH 16 0
BBX 16 16 0 -2
BITMAP
0000
7ffe
4002
4002
4002
47e2
4422
4422
4422
4422
47e2
4002
4002
4002
4002
400e
ENDCHAR
STARTCHAR 18-83
ENCODING 12915
SWIDTH 1024 0
DWIDTH 16 0
BBX 16 16 0 -2
BITMAP
0000
1ff8
1008
1008
11f8
1108
1108
1108
7ffe
4002
4002
4002
4002
4002
4002
400e
ENDCHAR
STARTCHAR 18-84
ENCODING 12916
SWIDTH 1024 0
DWIDTH 16 0
BBX 16 16 0 -2
BITMAP
0100
0100
0100
7ffe
4102
4102
4102
0380
0280
0280
0680
0480
0c80
1881
30c3
e07e
ENDCHAR
STARTCHAR 18-85
ENCODING 12917
SWIDTH 1024 0
DWIDTH 16 0
BBX 16 16 0 -2
BITMAP
0000
7ffe
4002
4002
4ff2
0810
0810
0ff0
0810
0810
0ff0
0810
0810
0810
ffff
0000
ENDCHAR
STARTCHAR 18-86
ENCODING 12918
SWIDTH 1024 0
DWIDTH 16 0
BBX 16 16 0 -2
BITMAP
0000
7ffe
4002
5ffa
0000
7ffe
0200
0d06
718c
0698
1cc0
71e0
06b0
1c9c
f187
0700
ENDCHAR
STARTCHAR 18-87
ENCODING 12919
SWIDTH 1024 0
DWIDTH 16 0
BBX 16 16 0 -2
BITMAP
0000
7ffe
4002
4002
3f00
12fc
1244
1e44
126c
1228
1e38
1210
1238
1e2c
3266
02c3
ENDCHAR
STARTCHAR 18-88
ENCODING 12920
SWIDTH 1024 0
DWIDTH 16 0
BBX 16 16 0 -2
BITMAP
0100
0100
0100
ffff
0240
0660
0c30
1818
338c
e0e7
0000
0000
0070
01c0
0700
0c00
ENDCHAR
STARTCHAR 18-89
ENCODING 12921
SWIDTH 1024 0
DWIDTH 16 0
BBX 16 16 0 -2
BITMAP
0020
6222
3326
1124
0020
03fe
0020
0020
1020
17ff
3020
2020
6020
4020
c020
0020
ENDCHAR
STARTCHAR 18-90
ENCODING 12922
SWIDTH 1024 0
DWIDTH 16 0
BBX 16 16 0 -2
BITMAP
0000
63fe
3202
1202
0202
03fe
0210
0210
13ff
1210
3210
2218
6208
42cd
c387
0e02
ENDCHAR
STARTCHAR 18-91
ENCODING 12923
SWIDTH 1024 0
DWIDTH 16 0
BBX 16 16 0 -2
BITMAP
0020
6120
3120
11fe
0320
0620
0020
07ff
1088
1088
3088
2088
6188
4109
c309
0607
ENDCHAR
STARTCHAR 18-92
ENCODING 12924
SWIDTH 1024 0
DWIDTH 16 0
BBX 16 16 0 -2
BITMAP
0020
6070
3050
10d8
018c
0306
06fb
0000
1000
11fc
3104
2104
6104
4104
c104
01fc
ENDCHAR
STARTCHAR 18-93
ENCODING 12925
SWIDTH 1024 0
DWIDTH 16 0
BBX 16 16 0 -2
BITMAP
0020
63fe
3022
1022
07ff
0022
0022
03fe
1020
1020
33fe
2020
6020
47ff
c020
0020
ENDCHAR
STARTCHAR 18-94
ENCODING 12926
SWIDTH 1024 0
DWIDTH 16 0
BBX 16 16 0 -2
BITMAP
0080
60fc
3188
1318
0610
03fe
0222
0222
1222
13fe
3090
2090
6190
4111
c313
0e0e
ENDCHAR
STARTCHAR 19-01
ENCODING 13089
SWIDTH 1024 0
DWIDTH 16 0
BBX 16 16 0 -2
BITMAP
0006
603c
33e2
1126
0094
03fe
0022
0022
17ff
1022
3022
23fe
6020
4020
c020
00e0
ENDCHAR
STARTCHAR 19-02
ENCODING 13090
SWIDTH 1024 0
DWIDTH 16 0
BBX 16 16 0 -2
BITMAP
0014
6012
3012
17ff
0410
05d2
0412
05d6
1554
155c
3548
25c8
641d
4c35
c867
18c2
ENDCHAR
STARTCHAR 19-03
ENCODING 13091
SWIDTH 1024 0
DWIDTH 16 0
BBX 16 16 0 -2
BITMAP
0020
6020
33fe
1020
01fc
0050
07ff
0088
1104
16fb
3020
23fe
6050
40d8
c18c
0707
ENDCHAR
STARTCHAR 19-04
ENCODING 13092
SWIDTH 1024 0
DWIDTH 16 0
BBX 16 16 0 -2
BITMAP
0020
6222
3222
13fe
0000
07ff
0000
01fc
1104
1104
31fc
2088
60d8
4050
c7ff
0000
ENDCHAR
STARTCHAR 19-05
ENCODING 13093
SWIDTH 1024 0
DWIDTH 16 0
BBX 16 16 0 -2
BITMAP
0000
67ff
3090
1090
03fe
0292
0292
03fe
1020
17ff
30a8
21ac
6124
4326
c623
0020
ENDCHAR
STARTCHAR 19-06
ENCODING 13094
SWIDTH 1024 0
DWIDTH 16 0
BBX 16 16 0 -2
BITMAP
0000
67ff
3401
15fd
0104
0104
01fc
0104
1104
11fc
3020
27ff
6000
4088
c18c
0707
ENDCHAR
STARTCHAR 19-07
ENCODING 13095
SWIDTH 1024 0
DWIDTH 16 0
BBX 16 16 0 -2
BITMAP
0482
c48e
6fd8
2490
0490
079f
0494
0494
2794
2494
2494
6fd4
4514
4594
cca4
0804
ENDCHAR
STARTCHAR 19-08
ENCODING 13096
SWIDTH 1024 0
DWIDTH 16 0
BBX 16 16 0 -2
BITMAP
0000
05ef
c549
6549
25e9
0529
052f
05e8
2548
2d49
294f
69e6
4000
4524
cdb6
1893
ENDCHAR
STARTCHAR 19-09
ENCODING 13097
SWIDTH 1024 0
DWIDTH 16 0
BBX 16 16 0 -2
BITMAP
0080
0180
0100
0fe0
0820
0820
0820
0820
0820
0820
0820
0820
1820
1021
3033
e01e
ENDCHAR
STARTCHAR 19-10
ENCODING 13098
SWIDTH 1024 0
DWIDTH 16 0
BBX 16 16 0 -2
BITMAP
0000
3ffe
2002
2002
3ffe
2000
23f0
2210
2210
2210
2210
2210
6210
4611
cc1b
180e
ENDCHAR
STARTCHAR 19-11
ENCODING 13099
SWIDTH 1024 0
DWIDTH 16 0
BBX 16 16 0 -2
BITMAP
0000
3ff8
2008
2008
27e8
2108
2208
27e8
2428
2428
27e8
2428
242c
6425
47e7
c002
ENDCHAR
STARTCHAR 19-12
ENCODING 13100
SWIDTH 1024 0
DWIDTH 16 0
BBX 16 16 0 -2
BITMAP
3ffc
2004
2124
2244
2ff4
2284
27e4
22a4
2ff4
22a4
27e4
22c4
26a4
6eb5
4a97
c002
ENDCHAR
STARTCHAR 19-13
ENCODING 13101
SWIDTH 1024 0
DWIDTH 16 0
BBX 16 16 0 -2
BITMAP
1f88
4252
2424
1ff8
e007
0ff0
0810
0ff0
0420
7ffe
0000
0fe0
0820
1821
3033
e01e
ENDCHAR
STARTCHAR 19-14
ENCODING 13102
SWIDTH 1024 0
DWIDTH 16 0
BBX 16 16 0 -2
BITMAP
63fe
3220
13fc
0220
03fc
1220
33ff
6009
c525
0893
0000
0fe0
0820
1821
3033
e01e
ENDCHAR
STARTCHAR 19-15
ENCODING 13103
SWIDTH 1024 0
DWIDTH 16 0
BBX 16 16 0 -2
BITMAP
0000
0100
4102
4102
4102
4ff2
4102
4102
4102
4102
4102
5ffa
4002
4002
7ffe
0000
ENDCHAR
STARTCHAR 19-16
ENCODING 13104
SWIDTH 1024 0
DWIDTH 16 0
BBX 16 16 0 -2
BITMAP
0000
0000
7ffe
0002
0002
0002
0002
0072
03c2
1e02
7002
0006
0004
0004
000c
0000
ENDCHAR
STARTCHAR 19-17
ENCODING 13105
SWIDTH 1024 0
DWIDTH 16 0
BBX 16 16 0 -2
BITMAP
0008
0088
0088
0088
0088
0088
0088
0088
0088
0088
0088
0008
0008
0008
0008
0038
ENDCHAR
STARTCHAR 19-18
ENCODING 13106
SWIDTH 1024 0
DWIDTH 16 0
BBX 16 16 0 -2
BITMAP
0000
7ff8
0208
0208
0208
220a
220a
660a
440b
c409
8c09
0818
1810
3010
e0f0
0000
ENDCHAR
STARTCHAR 19-19
ENCODING 13107
SWIDTH 1024 0
DWIDTH 16 0
BBX 16 16 0 -2
BITMAP
0902
0992
0892
0812
7fd2
0812
0892
0992
0b12
0e12
0412
0e02
1a02
3342
e1c2
008e
ENDCHAR
STARTCHAR 19-20
ENCODING 13108
SWIDTH 1024 0
DWIDTH 16 0
BBX 16 16 0 -2
BITMAP
0002
7f92
0012
0012
0012
0012
ffd2
1212
1212
1212
1212
1202
3202
2242
6242
c1ce
ENDCHAR
STARTCHAR 19-21
ENCODING 13109
SWIDTH 1024 0
DWIDTH 16 0
BBX 16 16 0 -2
BITMAP
0000
3ffc
0084
0184
030c
0e08
3838
0000
fe7f
2211
2211
2211
6231
4221
c663
8c46
ENDCHAR
STARTCHAR 19-22
ENCODING 13110
SWIDTH 1024 0
DWIDTH 16 0
BBX 16 16 0 -2
BITMAP
0002
3f92
2092
2092
2092
3f92
2092
2092
2092
3f92
2092
2082
2082
6082
4082
c38e
ENDCHAR
STARTCHAR 19-23
ENCODING 13111
SWIDTH 1024 0
DWIDTH 16 0
BBX 16 16 0 -2
BITMAP
0802
0812
0812
ff92
2212
2212
2212
3612
1412
1c12
0812
1c02
1402
3602
6302
c18e
ENDCHAR
STARTCHAR 19-24
ENCODING 13112
SWIDTH 1024 0
DWIDTH 16 0
BBX 16 16 0 -2
BITMAP
0401
0e09
1b09
3189
60c9
df69
0009
0009
7fc9
0849
0849
0841
0841
09c1
0801
0807
ENDCHAR
STARTCHAR 19-25
ENCODING 13113
SWIDTH 1024 0
DWIDTH 16 0
BBX 16 16 0 -2
BITMAP
2002
2012
3f92
2092
2092
7c92
6492
e492
2492
3c92
2392
2002
2002
2042
30c2
1f8e
ENDCHAR
STARTCHAR 19-26
ENCODING 13114
SWIDTH 1024 0
DWIDTH 16 0
BBX 16 16 0 -2
BITMAP
2400
24fe
2412
ff12
2452
2452
24d2
ffb3
24a7
24a5
2425
2424
2464
644c
44c8
c5b8
ENDCHAR
STARTCHAR 19-27
ENCODING 13115
SWIDTH 1024 0
DWIDTH 16 0
BBX 16 16 0 -2
BITMAP
0802
0812
7f92
0812
0812
0812
ffd2
0012
0812
0812
7f92
0802
0802
0802
ffc2
000e
ENDCHAR
STARTCHAR 19-28
ENCODING 13116
SWIDTH 1024 0
DWIDTH 16 0
BBX 16 16 0 -2
BITMAP
0002
ff92
2212
2212
3e12
2212
2212
2212
3e12
2212
2212
2202
3e02
e202
0202
020e
ENDCHAR
STARTCHAR 19-29
ENCODING 13117
SWIDTH 1024 0
DWIDTH 16 0
BBX 16 16 0 -2
BITMAP
1000
10fe
1012
7c12
1012
1012
1052
fe32
2012
201a
2436
6623
4222
4f66
f9c4
819c
ENDCHAR
STARTCHAR 19-30
ENCODING 13118
SWIDTH 1024 0
DWIDTH 16 0
BBX 16 16 0 -2
BITMAP
0002
ff92
0012
0012
7f12
4112
4112
4112
7f12
0012
4112
6302
2202
0202
ff82
000e
ENDCHAR
STARTCHAR 19-31
ENCODING 13119
SWIDTH 1024 0
DWIDTH 16 0
BBX 16 16 0 -2
BITMAP
0401
2489
2489
2489
2489
5549
5549
8e29
0409
0409
7fc9
0401
0401
0401
ffe1
0007
ENDCHAR
STARTCHAR 19-32
ENCODING 13120
SWIDTH 1024 0
DWIDTH 16 0
BBX 16 16 0 -2
BITMAP
0901
0909
0909
79e9
0909
0909
79e9
0909
0909
39e9
e909
0901
0901
1901
3101
6107
ENDCHAR
STARTCHAR 19-33
ENCODING 13121
SWIDTH 1024 0
DWIDTH 16 0
BBX 16 16 0 -2
BITMAP
1202
1112
1f92
7812
0d92
0612
1b52
61d2
1212
1112
1f92
7802
0d82
0602
1b42
e1ce
ENDCHAR
STARTCHAR 19-34
ENCODING 13122
SWIDTH 1024 0
DWIDTH 16 0
BBX 16 16 0 -2
BITMAP
2202
2212
ff92
2212
2212
3e12
2212
2212
3e12
2212
2212
ff82
0002
2602
6302
c18e
ENDCHAR
STARTCHAR 19-35
ENCODING 13123
SWIDTH 1024 0
DWIDTH 16 0
BBX 16 16 0 -2
BITMAP
0401
0409
ffe9
0409
7fc9
4449
7fc9
0409
7fc9
0449
ffe9
0441
7fc1
0401
0401
0c07
ENDCHAR
STARTCHAR 19-36
ENCODING 13124
SWIDTH 1024 0
DWIDTH 16 0
BBX 16 16 0 -2
BITMAP
0401
0409
7fc9
4049
4049
2009
3bc9
2a49
6a49
4a49
fa49
12c1
3201
2221
6261
c1c7
ENDCHAR
STARTCHAR 19-37
ENCODING 13125
SWIDTH 1024 0
DWIDTH 16 0
BBX 16 16 0 -2
BITMAP
0001
7bc9
0849
6b49
1089
2949
4229
0009
7bc9
0849
4849
3281
1281
2901
4a81
8467
ENDCHAR
STARTCHAR 19-38
ENCODING 13126
SWIDTH 1024 0
DWIDTH 16 0
BBX 16 16 0 -2
BITMAP
0401
0409
0409
ffe9
0009
3f89
2089
2089
2089
3f89
0409
2481
2481
64c1
c461
1c07
ENDCHAR
STARTCHAR 19-39
ENCODING 13127
SWIDTH 1024 0
DWIDTH 16 0
BBX 16 16 0 -2
BITMAP
0401
2449
24c9
6e89
4a09
1b09
3189
60e9
0409
2449
24c9
6e81
4a01
1b01
3181
e0e7
ENDCHAR
STARTCHAR 19-40
ENCODING 13128
SWIDTH 1024 0
DWIDTH 16 0
BBX 16 16 0 -2
BITMAP
0801
0809
fff9
1089
1489
2449
7fe9
a459
2449
3fc9
2449
2449
3fc1
0411
0631
03e7
ENDCHAR
STARTCHAR 19-41
ENCODING 13129
SWIDTH 1024 0
DWIDTH 16 0
BBX 16 16 0 -2
BITMAP
0001
7f89
4089
4089
4f89
4889
4889
ffc9
8049
9e49
9249
9241
9241
9e41
8041
81c7
ENDCHAR
STARTCHAR 19-42
ENCODING 13130
SWIDTH 1024 0
DWIDTH 16 0
BBX 16 16 0 -2
BITMAP
0401
0409
7fc9
1109
0e09
3189
7fc9
4009
5209
5f89
5209
4201
4f81
c201
8201
3fe7
ENDCHAR
STARTCHAR 19-43
ENCODING 13131
SWIDTH 1024 0
DWIDTH 16 0
BBX 16 16 0 -2
BITMAP
0401
0409
ffe9
0409
7fc9
4449
7fc9
4449
7fc9
0489
1fc9
f061
0081
ffe1
2081
1387
ENDCHAR
STARTCHAR 19-44
ENCODING 13132
SWIDTH 1024 0
DWIDTH 16 0
BBX 16 16 0 -2
BITMAP
0000
f792
1092
5292
3192
5292
0892
1c12
3712
e1d2
0812
7202
0c82
7102
0602
780e
ENDCHAR
STARTCHAR 19-45
ENCODING 13133
SWIDTH 1024 0
DWIDTH 16 0
BBX 16 16 0 -2
BITMAP
0001
7f81
1109
0a09
ffc9
1489
2509
4c09
ffc9
9249
a249
dfc1
9241
9241
9e41
8047
ENDCHAR
STARTCHAR 19-46
ENCODING 13134
SWIDTH 1024 0
DWIDTH 16 0
BBX 16 16 0 -2
BITMAP
0001
7ffd
5105
5b85
4a85
7ffd
448d
5525
5525
5525
5525
5f71
c451
8c51
98d9
308b
ENDCHAR
STARTCHAR 19-47
ENCODING 13135
SWIDTH 1024 0
DWIDTH 16 0
BBX 16 16 0 -2
BITMAP
0001
7fe5
4925
4925
7fe5
1005
3ff5
6415
ff95
2495
2495
3f91
0511
1fb1
70a1
0063
ENDCHAR
STARTCHAR 19-48
ENCODING 13136
SWIDTH 1024 0
DWIDTH 16 0
BBX 16 16 0 -2
BITMAP
0401
0a09
3189
eee9
0009
7fc9
4449
5549
4449
7fc9
0009
3f81
2081
3f81
2081
3f87
ENDCHAR
STARTCHAR 19-49
ENCODING 13137
SWIDTH 1024 0
DWIDTH 16 0
BBX 16 16 0 -2
BITMAP
0201
13e5
1205
7ff5
00a5
0095
7ff5
4045
5f45
4445
5555
75e1
4641
58d1
4151
8633
ENDCHAR
STARTCHAR 19-50
ENCODING 13138
SWIDTH 1024 0
DWIDTH 16 0
BBX 16 16 0 -2
BITMAP
0802
3e22
2222
3e22
2222
3e22
2222
7f22
4922
7f22
4922
7f02
0002
ff82
2202
420e
ENDCHAR
STARTCHAR 19-51
ENCODING 13139
SWIDTH 1024 0
DWIDTH 16 0
BBX 16 16 0 -2
BITMAP
0c31
79e5
4105
7df5
5145
9245
0005
3fc5
2045
3fc5
2045
3fc1
2041
3fc1
1081
e073
ENDCHAR
STARTCHAR 19-52
ENCODING 13140
SWIDTH 1024 0
DWIDTH 16 0
BBX 16 16 0 -2
BITMAP
1e01
2409
ff89
4089
7f89
2209
3b89
2249
79c9
0009
7f89
4881
7f81
1501
3441
63c7
ENDCHAR
STARTCHAR 19-53
ENCODING 13141
SWIDTH 1024 0
DWIDTH 16 0
BBX 16 16 0 -2
BITMAP
5141
7ff5
9245
7df5
28a5
2ca5
4935
3fe5
2025
3fe5
2025
3fe1
2021
3fe1
1041
6033
ENDCHAR
STARTCHAR 19-54
ENCODING 13142
SWIDTH 1024 0
DWIDTH 16 0
BBX 16 16 0 -2
BITMAP
0201
7ff5
4845
7df5
4845
5ce5
5ad5
6b55
4485
5ce5
4485
5ce1
4481
dce1
8481
0883
ENDCHAR
STARTCHAR 19-55
ENCODING 13143
SWIDTH 1024 0
DWIDTH 16 0
BBX 16 16 0 -2
BITMAP
7ff1
4015
7ff5
4105
5d75
4105
5fe5
54a5
5ff5
4a15
7fd5
5251
5fd1
42b1
87a1
3ce3
ENDCHAR
STARTCHAR 19-56
ENCODING 13144
SWIDTH 1024 0
DWIDTH 16 0
BBX 16 16 0 -2
BITMAP
1020
1020
1020
1020
ff20
1120
1120
1120
1120
1120
3120
2120
2320
6221
4233
c61e
ENDCHAR
STARTCHAR 19-57
ENCODING 13145
SWIDTH 1024 0
DWIDTH 16 0
BBX 16 16 0 -2
BITMAP
0310
0e10
3810
2010
207f
3f91
2211
2211
2211
2211
2211
2231
6221
4223
c262
02ce
ENDCHAR
STARTCHAR 19-58
ENCODING 13146
SWIDTH 1024 0
DWIDTH 16 0
BBX 16 16 0 -2
BITMAP
0808
0808
0808
ff88
007f
3e09
2209
2209
2209
2209
2209
2219
2291
6333
4262
c0ce
ENDCHAR
STARTCHAR 19-59
ENCODING 13147
SWIDTH 1024 0
DWIDTH 16 0
BBX 16 16 0 -2
BITMAP
0100
0100
3ffc
0104
0304
060c
1c08
7038
0000
1010
ff7f
1111
3131
2323
6262
cece
ENDCHAR
STARTCHAR 19-60
ENCODING 13148
SWIDTH 1024 0
DWIDTH 16 0
BBX 16 16 0 -2
BITMAP
0310
0e10
7810
0810
08ff
7f11
0811
0811
0811
ff91
0811
0831
0821
0863
08c2
398e
ENDCHAR
STARTCHAR 19-61
ENCODING 13149
SWIDTH 1024 0
DWIDTH 16 0
BBX 16 16 0 -2
BITMAP
0010
fe10
1010
1010
11ff
1011
3e11
2211
6211
6211
a231
2221
2223
3e62
0042
00ce
ENDCHAR
STARTCHAR 19-62
ENCODING 13150
SWIDTH 1024 0
DWIDTH 16 0
BBX 16 16 0 -2
BITMAP
0820
1820
1020
7c20
45fe
4422
4422
4422
7c22
4422
4422
4462
4442
7c46
00c4
019c
ENDCHAR
STARTCHAR 19-63
ENCODING 13151
SWIDTH 1024 0
DWIDTH 16 0
BBX 16 16 0 -2
BITMAP
0310
0e10
7810
4010
407f
7f91
4011
4011
4011
5f11
5111
5111
9131
1123
1122
1f66
ENDCHAR
STARTCHAR 19-64
ENCODING 13152
SWIDTH 1024 0
DWIDTH 16 0
BBX 16 16 0 -2
BITMAP
4420
6c20
2820
fe20
11fe
1022
7c22
1022
1022
1e22
f062
1042
3046
20c4
6084
c19c
ENDCHAR
STARTCHAR 19-65
ENCODING 13153
SWIDTH 1024 0
DWIDTH 16 0
BBX 16 16 0 -2
BITMAP
0810
0810
7f10
0810
087f
ff91
0011
0811
0811
7f11
0811
0831
0821
0f23
3862
e0ce
ENDCHAR
STARTCHAR 19-66
ENCODING 13154
SWIDTH 1024 0
DWIDTH 16 0
BBX 16 16 0 -2
BITMAP
1010
1010
3210
2210
7f7e
0112
0812
4812
7f12
8812
0812
ffb2
0822
0826
0864
08cc
ENDCHAR
STARTCHAR 19-67
ENCODING 13155
SWIDTH 1024 0
DWIDTH 16 0
BBX 16 16 0 -2
BITMAP
0010
7f90
4010
4010
5f7f
4411
4411
5f11
4411
4411
4411
5f11
4033
4022
7fa2
006e
ENDCHAR
STARTCHAR 19-68
ENCODING 13156
SWIDTH 1024 0
DWIDTH 16 0
BBX 16 16 0 -2
BITMAP
0002
7f92
0812
1f12
3112
6b12
0612
0c02
3802
e08e
0080
7ffe
0102
0302
0e06
781c
ENDCHAR
STARTCHAR 19-69
ENCODING 13157
SWIDTH 1024 0
DWIDTH 16 0
BBX 16 16 0 -2
BITMAP
0808
0808
ff88
0808
087f
7f09
4109
4109
4109
7f09
1409
1409
341b
2452
66d2
c3b6
ENDCHAR
STARTCHAR 19-70
ENCODING 13158
SWIDTH 1024 0
DWIDTH 16 0
BBX 16 16 0 -2
BITMAP
2008
2008
7fc8
4008
c03f
3f89
2489
2489
2489
ffc9
4889
4889
4899
7fd3
0132
0f6e
ENDCHAR
STARTCHAR 19-71
ENCODING 13159
SWIDTH 1024 0
DWIDTH 16 0
BBX 16 16 0 -2
BITMAP
0810
0810
7f10
4110
417f
7f11
4111
4111
7f11
4011
4211
4211
4f31
7923
c062
00ce
ENDCHAR
STARTCHAR 19-72
ENCODING 13160
SWIDTH 1024 0
DWIDTH 16 0
BBX 16 16 0 -2
BITMAP
0010
ff10
0210
2410
18ff
7f11
4911
4911
7f11
4911
4911
7f11
4933
4922
4922
4b66
ENDCHAR
STARTCHAR 19-73
ENCODING 13161
SWIDTH 1024 0
DWIDTH 16 0
BBX 16 16 0 -2
BITMAP
4910
6b10
2a10
7f10
147f
1411
ff91
2211
2211
7f11
c291
0211
3e33
20a2
21a2
1f66
ENDCHAR
STARTCHAR 19-74
ENCODING 13162
SWIDTH 1024 0
DWIDTH 16 0
BBX 16 16 0 -2
BITMAP
0810
0810
ff90
4110
637f
2211
2211
ff91
0011
0011
7f11
4111
4133
4122
4122
7f66
ENDCHAR
STARTCHAR 19-75
ENCODING 13163
SWIDTH 1024 0
DWIDTH 16 0
BBX 16 16 0 -2
BITMAP
0810
0810
ff90
0810
497f
4911
4911
aa91
aa91
1c11
1c11
2a11
6b33
c9a2
0822
0866
ENDCHAR
STARTCHAR 19-76
ENCODING 13164
SWIDTH 1024 0
DWIDTH 16 0
BBX 16 16 0 -2
BITMAP
0010
ff90
0810
1010
7f7f
5511
5511
5d11
5511
5511
5d11
5511
5531
5523
7f62
00ce
ENDCHAR
STARTCHAR 19-77
ENCODING 13165
SWIDTH 1024 0
DWIDTH 16 0
BBX 16 16 0 -2
BITMAP
0008
ff88
8088
be88
80bf
be89
8089
0009
7f09
4109
7f09
4119
7f11
4113
4132
7f66
ENDCHAR
STARTCHAR 19-78
ENCODING 13166
SWIDTH 1024 0
DWIDTH 16 0
BBX 16 16 0 -2
BITMAP
0010
7f10
4110
4110
7f7f
0011
7f11
4111
7f11
4111
7f11
4131
7f21
2223
6362
c1ce
ENDCHAR
STARTCHAR 19-79
ENCODING 13167
SWIDTH 1024 0
DWIDTH 16 0
BBX 16 16 0 -2
BITMAP
2410
2410
6610
d310
347f
2611
7a11
0011
ff11
1111
9911
5531
3321
5523
9962
334e
ENDCHAR
STARTCHAR 19-80
ENCODING 13168
SWIDTH 1024 0
DWIDTH 16 0
BBX 16 16 0 -2
BITMAP
0010
ff90
1410
7f10
557f
5511
7f11
0011
7f11
0011
ff91
0811
2a33
6b22
c9a2
186e
ENDCHAR
STARTCHAR 19-81
ENCODING 13169
SWIDTH 1024 0
DWIDTH 16 0
BBX 16 16 0 -2
BITMAP
0040
fcc4
049e
7df3
4010
7dff
0511
05ff
0c12
0bff
3801
0100
7ffe
0202
0c06
f01c
ENDCHAR
STARTCHAR 19-82
ENCODING 13170
SWIDTH 1024 0
DWIDTH 16 0
BBX 16 16 0 -2
BITMAP
2008
3f08
6208
4408
ffbf
4889
4889
7f89
0809
3089
c989
3519
ce11
3513
c532
1c66
ENDCHAR
STARTCHAR 19-83
ENCODING 13171
SWIDTH 1024 0
DWIDTH 16 0
BBX 16 16 0 -2
BITMAP
4908
ffc8
4908
4f08
403f
7f89
0009
7f09
4109
7f09
4109
7f19
4111
7f13
2232
c1a6
ENDCHAR
STARTCHAR 19-84
ENCODING 13172
SWIDTH 1024 0
DWIDTH 16 0
BBX 16 16 0 -2
BITMAP
0708
7c08
0808
ffc8
123f
3f09
d2c9
1e09
0009
7f89
4089
5e99
5291
5e93
40b2
43a6
ENDCHAR
STARTCHAR 19-85
ENCODING 13173
SWIDTH 1024 0
DWIDTH 16 0
BBX 16 16 0 -2
BITMAP
4908
2a08
0808
7f88
123f
ffc9
2109
4889
b249
1409
0909
7f99
0891
2a13
6b32
c9a6
ENDCHAR
STARTCHAR 19-86
ENCODING 13174
SWIDTH 1024 0
DWIDTH 16 0
BBX 16 16 0 -2
BITMAP
103e
102a
7f2a
113e
112a
312a
633e
0000
4208
f784
5288
52aa
52a9
52aa
528a
b586
ENDCHAR
STARTCHAR 19-87
ENCODING 13175
SWIDTH 1024 0
DWIDTH 16 0
BBX 16 16 0 -2
BITMAP
2208
2208
ff88
2208
7f7f
4909
7f09
4909
7f09
0809
ff89
8899
8a91
be93
82b2
81a6
ENDCHAR
STARTCHAR 19-88
ENCODING 13176
SWIDTH 1024 0
DWIDTH 16 0
BBX 16 16 0 -2
BITMAP
0408
0788
0408
7fc8
485f
7f09
4849
5fc9
5489
5f89
5489
5f89
4419
aa93
2952
4736
ENDCHAR
STARTCHAR 19-89
ENCODING 13177
SWIDTH 1024 0
DWIDTH 16 0
BBX 16 16 0 -2
BITMAP
1108
37c8
621f
9492
37f2
604a
a7ce
2444
27ce
245b
24d1
0100
7ffe
0202
0c06
f01c
ENDCHAR
STARTCHAR 19-90
ENCODING 13178
SWIDTH 1024 0
DWIDTH 16 0
BBX 16 16 0 -2
BITMAP
0808
ff88
0008
f788
94bf
f789
2209
ff89
2209
ff89
2209
ff89
3209
e289
3911
e0d3
ENDCHAR
STARTCHAR 19-91
ENCODING 13179
SWIDTH 1024 0
DWIDTH 16 0
BBX 16 16 0 -2
BITMAP
1000
1000
1ffe
3002
2002
6002
dfe2
0002
0002
01e2
0f06
3804
0004
000c
0008
0038
ENDCHAR
STARTCHAR 19-92
ENCODING 13180
SWIDTH 1024 0
DWIDTH 16 0
BBX 16 16 0 -2
BITMAP
1000
1000
1ffe
3002
2002
6102
d102
1102
1382
1282
16c6
1c64
1004
1fec
0008
0038
ENDCHAR
STARTCHAR 19-93
ENCODING 13181
SWIDTH 1024 0
DWIDTH 16 0
BBX 16 16 0 -2
BITMAP
1000
1000
1fff
3001
2101
6921
cd61
0541
0101
3ff9
0301
07c1
0d63
1932
2106
011c
ENDCHAR
STARTCHAR 19-94
ENCODING 13182
SWIDTH 1024 0
DWIDTH 16 0
BBX 16 16 0 -2
BITMAP
1000
1000
1ffe
3002
6802
cff2
1902
0102
3ffa
0102
1112
1112
1112
1ff6
0004
001c
ENDCHAR
STARTCHAR 20-01
ENCODING 13345
SWIDTH 1024 0
DWIDTH 16 0
BBX 16 16 0 -2
BITMAP
1000
1000
3ffe
2102
6382
c6c2
0c62
383a
07c2
0002
0fe2
0822
0826
0fe4
000c
0038
ENDCHAR
STARTCHAR 20-02
ENCODING 13346
SWIDTH 1024 0
DWIDTH 16 0
BBX 16 16 0 -2
BITMAP
1000
1000
3fff
6401
c8f9
1e09
1209
1ef9
1281
1e81
12f9
7e09
0a09
1a0b
321a
0676
ENDCHAR
STARTCHAR 20-03
ENCODING 13347
SWIDTH 1024 0
DWIDTH 16 0
BBX 16 16 0 -2
BITMAP
1000
1000
3fff
6001
d071
2651
229d
3601
22f9
3e49
0859
3e31
0821
0e73
38da
0006
ENDCHAR
STARTCHAR 20-04
ENCODING 13348
SWIDTH 1024 0
DWIDTH 16 0
BBX 16 16 0 -2
BITMAP
8092
8124
8248
8124
9892
b000
e040
83fe
8202
828a
8252
8222
8a52
da8a
7202
03fe
ENDCHAR
STARTCHAR 20-05
ENCODING 13349
SWIDTH 1024 0
DWIDTH 16 0
BBX 16 16 0 -2
BITMAP
0000
7ffe
4100
4100
43f0
4610
4c30
4060
4040
40e0
41b0
4318
5e0e
4000
7ffe
0000
ENDCHAR
STARTCHAR 20-06
ENCODING 13350
SWIDTH 1024 0
DWIDTH 16 0
BBX 16 16 0 -2
BITMAP
0000
7ffe
4080
4480
4498
44e8
4788
5c88
4498
4480
4404
460c
43f8
4000
7ffe
0000
ENDCHAR
STARTCHAR 20-07
ENCODING 13351
SWIDTH 1024 0
DWIDTH 16 0
BBX 16 16 0 -2
BITMAP
0000
7ffe
4000
4000
4ff8
4080
4080
4080
4080
4080
4080
5ffc
4000
4000
7ffe
0000
ENDCHAR
STARTCHAR 20-08
ENCODING 13352
SWIDTH 1024 0
DWIDTH 16 0
BBX 16 16 0 -2
BITMAP
0000
7ffe
4080
4080
5ffc
4000
43e0
4220
4220
4620
4424
4c24
581c
4000
7ffe
0000
ENDCHAR
STARTCHAR 20-09
ENCODING 13353
SWIDTH 1024 0
DWIDTH 16 0
BBX 16 16 0 -2
BITMAP
0000
7ffe
4200
4620
44f0
4f18
4000
4220
5ffc
4220
4420
4420
4820
4000
7ffe
0000
ENDCHAR
STARTCHAR 20-10
ENCODING 13354
SWIDTH 1024 0
DWIDTH 16 0
BBX 16 16 0 -2
BITMAP
0000
7ffe
4080
4080
5ffc
4080
4490
4490
4aa8
51c4
4360
4630
5c1c
4000
7ffe
0000
ENDCHAR
STARTCHAR 20-11
ENCODING 13355
SWIDTH 1024 0
DWIDTH 16 0
BBX 16 16 0 -2
BITMAP
0000
7ffe
4000
4210
4a10
4a10
4efe
4210
4210
5e10
4a10
4a10
527c
4000
7ffe
0000
ENDCHAR
STARTCHAR 20-12
ENCODING 13356
SWIDTH 1024 0
DWIDTH 16 0
BBX 16 16 0 -2
BITMAP
0000
7ffe
4080
4888
4888
4ff8
4080
4000
4ff8
4080
47f0
4080
5ffc
4000
7ffe
0000
ENDCHAR
STARTCHAR 20-13
ENCODING 13357
SWIDTH 1024 0
DWIDTH 16 0
BBX 16 16 0 -2
BITMAP
0000
7ffe
4400
4ffc
5924
436c
46c8
4018
4ff8
4808
4ff8
4808
4ff8
4000
7ffe
0000
ENDCHAR
STARTCHAR 20-14
ENCODING 13358
SWIDTH 1024 0
DWIDTH 16 0
BBX 16 16 0 -2
BITMAP
0000
7ffe
4080
43e0
4e38
79ce
4000
5f04
5124
5f24
5124
5f24
5104
530c
4000
7ffe
ENDCHAR
STARTCHAR 20-15
ENCODING 13359
SWIDTH 1024 0
DWIDTH 16 0
BBX 16 16 0 -2
BITMAP
0000
7ffe
4420
5f20
44f8
5f28
5528
5f28
5528
5f28
446a
5f4a
44c6
4000
7ffe
0000
ENDCHAR
STARTCHAR 20-16
ENCODING 13360
SWIDTH 1024 0
DWIDTH 16 0
BBX 16 16 0 -2
BITMAP
7ffe
4000
5f7c
5144
5f7c
4000
4ff8
4888
4ff8
4888
4ff8
4080
5ffc
4080
7ffe
0000
ENDCHAR
STARTCHAR 20-17
ENCODING 13361
SWIDTH 1024 0
DWIDTH 16 0
BBX 16 16 0 -2
BITMAP
0000
7ffe
4100
4100
5ffc
4220
4ff8
7a2e
43e0
4000
4f78
4948
4f78
4000
7ffe
0000
ENDCHAR
STARTCHAR 20-18
ENCODING 13362
SWIDTH 1024 0
DWIDTH 16 0
BBX 16 16 0 -2
BITMAP
7ffe
4080
5ffc
4080
4ff8
4000
5ffc
5224
5ffc
4808
4ff8
4808
4ff8
4630
4c18
7ffe
ENDCHAR
STARTCHAR 20-19
ENCODING 13363
SWIDTH 1024 0
DWIDTH 16 0
BBX 16 16 0 -2
BITMAP
0000
ffff
2040
20e0
21b0
2318
2e0e
21f0
2000
23f8
2208
2208
23f8
3000
1fff
0000
ENDCHAR
STARTCHAR 20-20
ENCODING 13364
SWIDTH 1024 0
DWIDTH 16 0
BBX 16 16 0 -2
BITMAP
0000
fffe
4000
4ff8
4808
4ff8
4808
4ff8
4100
5ffc
4220
47c0
4170
4e18
6000
3ffe
ENDCHAR
STARTCHAR 20-21
ENCODING 13365
SWIDTH 1024 0
DWIDTH 16 0
BBX 16 16 0 -2
BITMAP
0000
ffff
2000
2ffe
2000
27fc
2404
27fc
2400
2ffe
2c92
37fe
2492
2496
3000
1fff
ENDCHAR
STARTCHAR 20-22
ENCODING 13366
SWIDTH 1024 0
DWIDTH 16 0
BBX 16 16 0 -2
BITMAP
0000
fff8
0008
0408
0408
0408
0408
0408
ffe8
0408
0408
0408
040c
0405
0407
0002
ENDCHAR
STARTCHAR 20-23
ENCODING 13367
SWIDTH 1024 0
DWIDTH 16 0
BBX 16 16 0 -2
BITMAP
1248
1248
1248
1248
1248
1248
ffff
1248
1248
1248
1248
1248
1248
1248
1248
1248
ENDCHAR
STARTCHAR 20-24
ENCODING 13368
SWIDTH 1024 0
DWIDTH 16 0
BBX 16 16 0 -2
BITMAP
0100
0100
0100
7ffe
0100
1108
1108
1008
ffff
1008
1008
1008
1008
1008
1ff8
0000
ENDCHAR
STARTCHAR 20-25
ENCODING 13369
SWIDTH 1024 0
DWIDTH 16 0
BBX 16 16 0 -2
BITMAP
2208
2208
ff88
2208
3e08
2208
3e7f
2208
ff88
5408
5408
5788
6008
4008
7f08
0008
ENDCHAR
STARTCHAR 20-26
ENCODING 13370
SWIDTH 1024 0
DWIDTH 16 0
BBX 16 16 0 -2
BITMAP
2104
47e8
8010
53ca
2004
4bc9
f81f
23c4
aa55
abd5
2104
0100
ffff
0100
0100
0100
ENDCHAR
STARTCHAR 20-27
ENCODING 13371
SWIDTH 1024 0
DWIDTH 16 0
BBX 16 16 0 -2
BITMAP
0100
0100
0100
01fc
0100
0100
0100
ffff
0100
0100
01e0
0138
010c
0100
0100
0100
ENDCHAR
STARTCHAR 20-28
ENCODING 13372
SWIDTH 1024 0
DWIDTH 16 0
BBX 16 16 0 -2
BITMAP
0100
0100
01ff
0100
0100
3ffc
2004
2004
3f84
2084
2084
3f84
2004
2004
3ffc
0000
ENDCHAR
STARTCHAR 20-29
ENCODING 13373
SWIDTH 1024 0
DWIDTH 16 0
BBX 16 16 0 -2
BITMAP
0100
0100
01ff
0100
0100
3ffc
2004
2094
2c94
2324
2cc4
2124
2614
2004
3ffc
0000
ENDCHAR
STARTCHAR 20-30
ENCODING 13374
SWIDTH 1024 0
DWIDTH 16 0
BBX 16 16 0 -2
BITMAP
0300
0e00
78fe
4082
4082
4082
4082
4082
4082
4082
4082
5e82
f082
009e
0080
0080
ENDCHAR
STARTCHAR 20-31
ENCODING 13375
SWIDTH 1024 0
DWIDTH 16 0
BBX 16 16 0 -2
BITMAP
0000
0000
fefe
1082
1082
1082
1082
1082
1082
1082
1e82
7082
c082
009e
0080
0080
ENDCHAR
STARTCHAR 20-32
ENCODING 13376
SWIDTH 1024 0
DWIDTH 16 0
BBX 16 16 0 -2
BITMAP
0000
ffbf
10a1
10a1
30a1
21a1
6121
c721
0021
7fa1
40a1
40a1
40a7
40a0
40a0
7fa0
ENDCHAR
STARTCHAR 20-33
ENCODING 13377
SWIDTH 1024 0
DWIDTH 16 0
BBX 16 16 0 -2
BITMAP
0800
183e
1022
7f22
5522
5522
5522
5522
5522
5522
55a2
5722
5c2e
7020
c020
0020
ENDCHAR
STARTCHAR 20-34
ENCODING 13378
SWIDTH 1024 0
DWIDTH 16 0
BBX 16 16 0 -2
BITMAP
0000
f7be
94a2
94a2
f7a2
0022
7f22
0022
ffa2
1022
2022
7f22
012e
0120
0320
0e20
ENDCHAR
STARTCHAR 20-35
ENCODING 13379
SWIDTH 1024 0
DWIDTH 16 0
BBX 16 16 0 -2
BITMAP
0800
0ff0
1820
3040
6080
bfff
2000
2000
2000
2000
2000
2000
6000
4000
c000
0000
ENDCHAR
STARTCHAR 20-36
ENCODING 13380
SWIDTH 1024 0
DWIDTH 16 0
BBX 16 16 0 -2
BITMAP
0000
3fff
2000
200c
2078
2fc0
2080
2080
2080
3fff
2080
2080
6080
4082
c0c6
007c
ENDCHAR
STARTCHAR 20-37
ENCODING 13381
SWIDTH 1024 0
DWIDTH 16 0
BBX 16 16 0 -2
BITMAP
0000
3fff
2000
2000
27fc
2040
2040
2040
2040
3fff
2040
2040
6040
4040
c040
0040
ENDCHAR
STARTCHAR 20-38
ENCODING 13382
SWIDTH 1024 0
DWIDTH 16 0
BBX 16 16 0 -2
BITMAP
0000
3fff
2000
2038
27e0
2420
2420
2420
27fe
2420
2430
2790
6c18
400a
dfee
0004
ENDCHAR
STARTCHAR 20-39
ENCODING 13383
SWIDTH 1024 0
DWIDTH 16 0
BBX 16 16 0 -2
BITMAP
0000
3fff
2040
2040
27fc
2040
2040
2ffe
2000
2040
2040
27fc
6040
4040
cffe
0000
ENDCHAR
STARTCHAR 20-40
ENCODING 13384
SWIDTH 1024 0
DWIDTH 16 0
BBX 16 16 0 -2
BITMAP
0000
3fff
2000
2000
2ffe
2100
2308
227c
2fc6
2000
2040
2040
67fc
4040
c040
1fff
ENDCHAR
STARTCHAR 20-41
ENCODING 13385
SWIDTH 1024 0
DWIDTH 16 0
BBX 16 16 0 -2
BITMAP
0000
3fff
2000
2040
2ffe
2040
27fc
2444
27fc
2444
27fc
6040
5fff
4040
c040
0040
ENDCHAR
STARTCHAR 20-42
ENCODING 13386
SWIDTH 1024 0
DWIDTH 16 0
BBX 16 16 0 -2
BITMAP
0000
3fff
2000
2090
27fe
2090
2090
2fff
2000
23fc
2204
2204
63fc
4204
c204
03fc
ENDCHAR
STARTCHAR 20-43
ENCODING 13387
SWIDTH 1024 0
DWIDTH 16 0
BBX 16 16 0 -2
BITMAP
0000
3fff
2040
2080
27fc
2404
27fc
2404
27fc
2041
2f63
2156
6358
464c
dc47
01c0
ENDCHAR
STARTCHAR 20-44
ENCODING 13388
SWIDTH 1024 0
DWIDTH 16 0
BBX 16 16 0 -2
BITMAP
0000
7fff
4000
431c
5e70
4410
4410
5f7e
4410
4e38
4d38
d554
9454
a492
0411
0410
ENDCHAR
STARTCHAR 20-45
ENCODING 13389
SWIDTH 1024 0
DWIDTH 16 0
BBX 16 16 0 -2
BITMAP
0000
7fff
4210
4210
5ffe
4210
4000
4ffc
4884
4ffc
4080
4ffc
c080
87f8
8080
3fff
ENDCHAR
STARTCHAR 20-46
ENCODING 13390
SWIDTH 1024 0
DWIDTH 16 0
BBX 16 16 0 -2
BITMAP
0000
7fff
4210
4210
4f90
423f
4fa2
4212
5fd6
4414
479c
4488
c488
8c9c
8896
19b3
ENDCHAR
STARTCHAR 20-47
ENCODING 13391
SWIDTH 1024 0
DWIDTH 16 0
BBX 16 16 0 -2
BITMAP
0000
7fff
4208
4208
5fbf
4208
471c
5aab
4208
4000
4580
44c6
c443
8409
8618
03f0
ENDCHAR
STARTCHAR 20-48
ENCODING 13392
SWIDTH 1024 0
DWIDTH 16 0
BBX 16 16 0 -2
BITMAP
0000
7fff
4210
5fff
4210
47fc
4444
47fc
4444
47fc
4040
5fff
d041
9051
97f9
100b
ENDCHAR
STARTCHAR 20-49
ENCODING 13393
SWIDTH 1024 0
DWIDTH 16 0
BBX 16 16 0 -2
BITMAP
7fff
510a
5f09
407f
5f08
511c
5f14
5136
5363
5ffc
4884
4ffc
c884
8ffc
8080
0080
ENDCHAR
STARTCHAR 20-50
ENCODING 13394
SWIDTH 1024 0
DWIDTH 16 0
BBX 16 16 0 -2
BITMAP
3fff
2040
27fc
2404
27fc
6248
464c
cdc6
0000
7f7f
4444
5f5f
5151
5f5f
c444
9555
ENDCHAR
STARTCHAR 20-51
ENCODING 13395
SWIDTH 1024 0
DWIDTH 16 0
BBX 16 16 0 -2
BITMAP
0200
0200
0200
ffff
0400
0400
0c80
0880
1990
1118
3108
630c
c204
027e
07c2
0c03
ENDCHAR
STARTCHAR 20-52
ENCODING 13396
SWIDTH 1024 0
DWIDTH 16 0
BBX 16 16 0 -2
BITMAP
1008
1008
1008
1008
1018
3010
2010
2010
2030
2824
6824
4c26
4462
4442
5e4f
f2f9
ENDCHAR
STARTCHAR 20-53
ENCODING 13397
SWIDTH 1024 0
DWIDTH 16 0
BBX 16 16 0 -2
BITMAP
0100
0100
0100
ffff
0240
0660
0c30
1918
310c
e307
0220
0630
0c10
09f8
1f08
300c
ENDCHAR
STARTCHAR 20-54
ENCODING 13398
SWIDTH 1024 0
DWIDTH 16 0
BBX 16 16 0 -2
BITMAP
0200
0200
0610
0418
0c08
08fc
3f84
0000
1010
1010
1010
3232
2222
6262
4f4f
f9f9
ENDCHAR
STARTCHAR 20-55
ENCODING 13399
SWIDTH 1024 0
DWIDTH 16 0
BBX 16 16 0 -2
BITMAP
0100
0100
ffff
0100
3ffc
2104
2104
3ffc
2104
2104
3ffc
0400
0c18
080c
1ffe
f003
ENDCHAR
STARTCHAR 20-56
ENCODING 13400
SWIDTH 1024 0
DWIDTH 16 0
BBX 16 16 0 -2
BITMAP
0410
0808
3ffc
0004
2010
4922
fbbd
0ee0
3838
e10f
0100
110c
1166
3132
6110
0700
ENDCHAR
STARTCHAR 20-57
ENCODING 13401
SWIDTH 1024 0
DWIDTH 16 0
BBX 16 16 0 -2
BITMAP
0100
0100
0100
3ff8
0108
0108
ffff
0000
7ffc
080c
0c18
0670
03c0
0e70
381c
e007
ENDCHAR
STARTCHAR 20-58
ENCODING 13402
SWIDTH 1024 0
DWIDTH 16 0
BBX 16 16 0 -2
BITMAP
7ffc
080c
0c18
0670
03c0
0e70
381c
e007
0000
fefe
4242
6666
2c2c
1818
6c6c
c6c7
ENDCHAR
STARTCHAR 20-59
ENCODING 13403
SWIDTH 1024 0
DWIDTH 16 0
BBX 16 16 0 -2
BITMAP
0100
ffff
0100
3ffc
2104
2104
3ffc
0100
7ffc
080c
0c18
0670
03c0
0e70
381c
e007
ENDCHAR
STARTCHAR 20-60
ENCODING 13404
SWIDTH 1024 0
DWIDTH 16 0
BBX 16 16 0 -2
BITMAP
0000
fefe
4242
6666
2c2c
1818
6c6c
c6c7
0000
fefe
4242
6666
2c2c
1818
6c6c
c6c7
ENDCHAR
STARTCHAR 20-61
ENCODING 13405
SWIDTH 1024 0
DWIDTH 16 0
BBX 16 16 0 -2
BITMAP
0000
7efe
4202
4202
4202
7efe
4000
41fe
7e42
4046
406c
4038
7e10
4038
40ec
4387
ENDCHAR
STARTCHAR 20-62
ENCODING 13406
SWIDTH 1024 0
DWIDTH 16 0
BBX 16 16 0 -2
BITMAP
1000
10fe
1082
7c82
108e
1080
fefe
20a2
20a2
20b6
6894
499c
7d08
c51c
0336
0663
ENDCHAR
STARTCHAR 20-63
ENCODING 13407
SWIDTH 1024 0
DWIDTH 16 0
BBX 16 16 0 -2
BITMAP
0000
7f7e
4122
4122
7f22
4022
4036
5f14
4014
5f1c
4408
5508
d51c
9514
a536
0c63
ENDCHAR
STARTCHAR 20-64
ENCODING 13408
SWIDTH 1024 0
DWIDTH 16 0
BBX 16 16 0 -2
BITMAP
1ff0
0460
0380
1c78
0000
7e7e
2424
1818
2424
ffff
9009
9ff9
1008
1ff8
1008
ffff
ENDCHAR
STARTCHAR 20-65
ENCODING 13409
SWIDTH 1024 0
DWIDTH 16 0
BBX 16 16 0 -2
BITMAP
0000
3ffc
2004
2004
2004
2004
3ffc
0100
0100
fffe
0102
0302
0606
0c04
380c
e038
ENDCHAR
STARTCHAR 20-66
ENCODING 13410
SWIDTH 1024 0
DWIDTH 16 0
BBX 16 16 0 -2
BITMAP
0000
3ffc
2004
2004
2004
2004
3ffc
0000
0000
fffe
0102
0302
0606
0c04
380c
e038
ENDCHAR
STARTCHAR 20-67
ENCODING 13411
SWIDTH 1024 0
DWIDTH 16 0
BBX 16 16 0 -2
BITMAP
0000
7ffe
4000
4000
4000
47e0
4420
4420
4420
4420
47e0
4000
4000
4000
7ffe
0000
ENDCHAR
STARTCHAR 20-68
ENCODING 13412
SWIDTH 1024 0
DWIDTH 16 0
BBX 16 16 0 -2
BITMAP
0100
0100
0100
ffff
2000
2000
2000
1ffc
0000
0000
1ff8
1008
1008
1008
1ff8
0000
ENDCHAR
STARTCHAR 20-69
ENCODING 13413
SWIDTH 1024 0
DWIDTH 16 0
BBX 16 16 0 -2
BITMAP
0000
03ff
f820
8820
8820
8838
882c
8826
8820
8820
8820
f820
0020
0020
0020
0020
ENDCHAR
STARTCHAR 20-70
ENCODING 13414
SWIDTH 1024 0
DWIDTH 16 0
BBX 16 16 0 -2
BITMAP
0000
03fe
f022
9022
9022
97ff
9022
9022
9022
93fe
9020
f020
0060
0040
00c0
0180
ENDCHAR
STARTCHAR 20-71
ENCODING 13415
SWIDTH 1024 0
DWIDTH 16 0
BBX 16 16 0 -2
BITMAP
0220
0220
f220
9222
9226
93bc
9220
9220
9220
9220
9220
f220
0220
0221
03b3
0e1e
ENDCHAR
STARTCHAR 20-72
ENCODING 13416
SWIDTH 1024 0
DWIDTH 16 0
BBX 16 16 0 -2
BITMAP
0000
03fe
fa22
8a22
8a22
8a22
8a22
8bfe
8a00
8a00
8a00
fa00
0201
0303
01fe
0000
ENDCHAR
STARTCHAR 20-73
ENCODING 13417
SWIDTH 1024 0
DWIDTH 16 0
BBX 16 16 0 -2
BITMAP
0020
0026
f83c
8be0
8820
8820
8924
8924
8924
8924
8924
f9fc
0020
0021
0033
001e
ENDCHAR
STARTCHAR 20-74
ENCODING 13418
SWIDTH 1024 0
DWIDTH 16 0
BBX 16 16 0 -2
BITMAP
0050
0050
78d0
4892
4896
499c
4a90
4890
4890
4890
4890
7890
0090
0091
0093
008e
ENDCHAR
STARTCHAR 20-75
ENCODING 13419
SWIDTH 1024 0
DWIDTH 16 0
BBX 16 16 0 -2
BITMAP
0007
007c
3fc0
2000
3ffe
2002
2002
3ffe
2000
2000
2ffe
2802
6802
4802
cffe
0000
ENDCHAR
STARTCHAR 20-76
ENCODING 13420
SWIDTH 1024 0
DWIDTH 16 0
BBX 16 16 0 -2
BITMAP
0010
0010
7c10
45ff
4410
4410
45fe
4482
44c6
446c
4438
7c10
0038
006c
00c6
0183
ENDCHAR
STARTCHAR 20-77
ENCODING 13421
SWIDTH 1024 0
DWIDTH 16 0
BBX 16 16 0 -2
BITMAP
0000
3ffc
2004
2004
2004
3ffc
0000
7ffe
0100
0100
ffff
0240
0660
0c30
381c
e007
ENDCHAR
STARTCHAR 20-78
ENCODING 13422
SWIDTH 1024 0
DWIDTH 16 0
BBX 16 16 0 -2
BITMAP
0020
0020
f820
88a8
88ac
89a6
8b23
8820
8822
8826
88e4
f80c
0018
0030
0060
01c0
ENDCHAR
STARTCHAR 20-79
ENCODING 13423
SWIDTH 1024 0
DWIDTH 16 0
BBX 16 16 0 -2
BITMAP
0000
03ff
f200
9200
927c
9244
9244
9244
9244
9244
924c
f240
0640
0441
0c63
003e
ENDCHAR
STARTCHAR 20-80
ENCODING 13424
SWIDTH 1024 0
DWIDTH 16 0
BBX 16 16 0 -2
BITMAP
7ff0
0210
021e
0602
0c02
3806
e11c
0100
ffff
0100
0100
3ffc
2004
2004
2004
3ffc
ENDCHAR
STARTCHAR 20-81
ENCODING 13425
SWIDTH 1024 0
DWIDTH 16 0
BBX 16 16 0 -2
BITMAP
0100
0106
fd8c
05d8
0d60
1930
311c
e107
0700
0000
3ffc
2004
2004
2004
3ffc
0000
ENDCHAR
STARTCHAR 20-82
ENCODING 13426
SWIDTH 1024 0
DWIDTH 16 0
BBX 16 16 0 -2
BITMAP
0000
03fe
f800
8800
8800
8800
8fff
8880
8880
8880
8988
f90c
0104
013e
03e3
0601
ENDCHAR
STARTCHAR 20-83
ENCODING 13427
SWIDTH 1024 0
DWIDTH 16 0
BBX 16 16 0 -2
BITMAP
0024
00e4
f784
9084
9084
9084
97ff
9084
9084
9084
9084
f084
0184
0104
0304
0604
ENDCHAR
STARTCHAR 20-84
ENCODING 13428
SWIDTH 1024 0
DWIDTH 16 0
BBX 16 16 0 -2
BITMAP
0000
07fe
f802
8802
89f2
8802
8802
89f2
8912
8912
8912
f9f2
0002
0002
0002
000e
ENDCHAR
STARTCHAR 20-85
ENCODING 13429
SWIDTH 1024 0
DWIDTH 16 0
BBX 16 16 0 -2
BITMAP
0000
03fe
f202
9202
9202
93fe
9200
9240
9242
924e
9278
f240
0640
0441
0c63
003e
ENDCHAR
STARTCHAR 20-86
ENCODING 13430
SWIDTH 1024 0
DWIDTH 16 0
BBX 16 16 0 -2
BITMAP
0020
0070
f8d8
898c
8b06
8efb
8800
8800
8bfe
8842
8842
f842
0042
004e
0040
0040
ENDCHAR
STARTCHAR 20-87
ENCODING 13431
SWIDTH 1024 0
DWIDTH 16 0
BBX 16 16 0 -2
BITMAP
0108
0108
f308
9208
963f
9489
9689
9389
9109
9109
9319
f251
0253
07f2
0c22
006e
ENDCHAR
STARTCHAR 20-88
ENCODING 13432
SWIDTH 1024 0
DWIDTH 16 0
BBX 16 16 0 -2
BITMAP
0006
001c
f9f0
8910
8910
8910
89ff
8910
8910
8918
f908
01c8
070c
0005
07f7
0002
ENDCHAR
STARTCHAR 20-89
ENCODING 13433
SWIDTH 1024 0
DWIDTH 16 0
BBX 16 16 0 -2
BITMAP
0000
03fe
f800
8800
8800
8800
8fff
8820
8820
8924
f926
0322
0223
0621
0020
00e0
ENDCHAR
STARTCHAR 20-90
ENCODING 13434
SWIDTH 1024 0
DWIDTH 16 0
BBX 16 16 0 -2
BITMAP
0020
0020
7c20
4420
443f
4420
4420
4420
4420
45fe
4502
7d02
0102
0102
0102
01fe
ENDCHAR
STARTCHAR 20-91
ENCODING 13435
SWIDTH 1024 0
DWIDTH 16 0
BBX 16 16 0 -2
BITMAP
0124
0124
f124
9124
97ff
9124
9124
9124
9124
9124
913c
f100
0100
0100
01ff
0000
ENDCHAR
STARTCHAR 20-92
ENCODING 13436
SWIDTH 1024 0
DWIDTH 16 0
BBX 16 16 0 -2
BITMAP
0000
01fe
f902
8902
8902
8902
8902
8902
8902
8902
89fe
f800
0084
0084
0186
0303
ENDCHAR
STARTCHAR 20-93
ENCODING 13437
SWIDTH 1024 0
DWIDTH 16 0
BBX 16 16 0 -2
BITMAP
0100
0100
f100
93fe
9202
9602
91f2
9112
9112
9112
9112
f1f2
0002
0002
0006
001c
ENDCHAR
STARTCHAR 20-94
ENCODING 13438
SWIDTH 1024 0
DWIDTH 16 0
BBX 16 16 0 -2
BITMAP
0020
0020
f020
93fe
9020
9020
9020
9020
97ff
9040
9040
f0c4
0084
00be
01e2
0303
ENDCHAR
STARTCHAR 21-01
ENCODING 13601
SWIDTH 1024 0
DWIDTH 16 0
BBX 16 16 0 -2
BITMAP
0084
0084
f884
8884
8bff
8884
8884
8884
8884
88fc
8884
f884
0084
0084
0084
00fc
ENDCHAR
STARTCHAR 21-02
ENCODING 13602
SWIDTH 1024 0
DWIDTH 16 0
BBX 16 16 0 -2
BITMAP
0110
0150
f150
9356
925a
9672
9652
9ad2
9252
9252
9256
f250
0250
0241
0263
023e
ENDCHAR
STARTCHAR 21-03
ENCODING 13603
SWIDTH 1024 0
DWIDTH 16 0
BBX 16 16 0 -2
BITMAP
0100
0100
7ffe
0810
0c30
0420
ffff
0000
0000
1ff8
1008
1008
1008
1008
1ff8
0000
ENDCHAR
STARTCHAR 21-04
ENCODING 13604
SWIDTH 1024 0
DWIDTH 16 0
BBX 16 16 0 -2
BITMAP
0090
0090
f7fe
9092
9092
97fe
9490
9490
97ff
9091
9091
f093
0192
0116
0310
0610
ENDCHAR
STARTCHAR 21-05
ENCODING 13605
SWIDTH 1024 0
DWIDTH 16 0
BBX 16 16 0 -2
BITMAP
0020
0020
f020
93fe
9222
9222
9222
9222
9222
97ff
9050
f0d8
0088
018c
0306
0603
ENDCHAR
STARTCHAR 21-06
ENCODING 13606
SWIDTH 1024 0
DWIDTH 16 0
BBX 16 16 0 -2
BITMAP
0040
0040
78c0
4884
4984
493e
4be3
4800
4800
4800
49fe
7902
0102
0102
0102
01fe
ENDCHAR
STARTCHAR 21-07
ENCODING 13607
SWIDTH 1024 0
DWIDTH 16 0
BBX 16 16 0 -2
BITMAP
0100
0100
f17f
9108
97c8
9108
9108
9108
91c8
9708
9108
f108
0108
0108
0108
0338
ENDCHAR
STARTCHAR 21-08
ENCODING 13608
SWIDTH 1024 0
DWIDTH 16 0
BBX 16 16 0 -2
BITMAP
0010
0010
7c10
4410
45ff
4410
4410
4410
4410
44fe
4482
7c82
0082
0082
0082
00fe
ENDCHAR
STARTCHAR 21-09
ENCODING 13609
SWIDTH 1024 0
DWIDTH 16 0
BBX 16 16 0 -2
BITMAP
0200
0200
f21e
9212
9fd2
9252
9252
9252
9252
9252
9252
f652
0452
04d2
0c9e
1980
ENDCHAR
STARTCHAR 21-10
ENCODING 13610
SWIDTH 1024 0
DWIDTH 16 0
BBX 16 16 0 -2
BITMAP
0020
0020
f820
8bff
8a01
8a01
8880
8886
889c
88f0
8880
f880
0080
0081
00c3
007e
ENDCHAR
STARTCHAR 21-11
ENCODING 13611
SWIDTH 1024 0
DWIDTH 16 0
BBX 16 16 0 -2
BITMAP
0000
03ff
f810
8830
8820
89fe
8902
8902
8902
8902
89fe
f902
0102
0102
0102
01fe
ENDCHAR
STARTCHAR 21-12
ENCODING 13612
SWIDTH 1024 0
DWIDTH 16 0
BBX 16 16 0 -2
BITMAP
0000
03ff
f884
8884
88fc
8884
8884
8884
88fc
8884
8884
f887
00fc
0384
0004
0004
ENDCHAR
STARTCHAR 21-13
ENCODING 13613
SWIDTH 1024 0
DWIDTH 16 0
BBX 16 16 0 -2
BITMAP
0020
0020
f7ff
9020
93fe
9022
93fe
9220
9220
93ff
9051
f051
00db
018c
0306
0e03
ENDCHAR
STARTCHAR 21-14
ENCODING 13614
SWIDTH 1024 0
DWIDTH 16 0
BBX 16 16 0 -2
BITMAP
0001
0fe9
f109
9109
9109
93c9
9249
9249
9749
95c9
9089
f181
0101
0301
0601
0c07
ENDCHAR
STARTCHAR 21-15
ENCODING 13615
SWIDTH 1024 0
DWIDTH 16 0
BBX 16 16 0 -2
BITMAP
0104
018c
f888
8bfe
8820
8820
8820
89fc
8820
8820
f820
07ff
0020
0020
0020
0020
ENDCHAR
STARTCHAR 21-16
ENCODING 13616
SWIDTH 1024 0
DWIDTH 16 0
BBX 16 16 0 -2
BITMAP
0010
0010
7c92
44d2
4456
4454
4410
45ff
4410
4438
4438
7c54
0054
0092
0111
0010
ENDCHAR
STARTCHAR 21-17
ENCODING 13617
SWIDTH 1024 0
DWIDTH 16 0
BBX 16 16 0 -2
BITMAP
0020
0020
f020
97ff
9020
9020
9020
93fe
9000
9000
91fc
f104
0104
0104
0104
01fc
ENDCHAR
STARTCHAR 21-18
ENCODING 13618
SWIDTH 1024 0
DWIDTH 16 0
BBX 16 16 0 -2
BITMAP
0020
0120
f120
9120
93fe
9220
9420
9020
97ff
90a8
90a8
f1ac
0124
0326
0623
0020
ENDCHAR
STARTCHAR 21-19
ENCODING 13619
SWIDTH 1024 0
DWIDTH 16 0
BBX 16 16 0 -2
BITMAP
0010
0030
f820
89fe
8902
8902
8902
89fe
8902
8902
8902
f9fe
0102
0102
0102
01fe
ENDCHAR
STARTCHAR 21-20
ENCODING 13620
SWIDTH 1024 0
DWIDTH 16 0
BBX 16 16 0 -2
BITMAP
0090
0090
f092
9696
9394
9090
9090
9090
909c
9396
9693
f090
0190
0111
0313
0e0e
ENDCHAR
STARTCHAR 21-21
ENCODING 13621
SWIDTH 1024 0
DWIDTH 16 0
BBX 16 16 0 -2
BITMAP
0040
0040
f3fe
9202
9242
9040
9040
97ff
9084
918c
9108
f3d8
0070
00d8
018c
0706
ENDCHAR
STARTCHAR 21-22
ENCODING 13622
SWIDTH 1024 0
DWIDTH 16 0
BBX 16 16 0 -2
BITMAP
0000
03fe
f800
8800
89fc
8904
8904
89fc
8904
8904
8904
f9fc
0000
0000
07ff
0000
ENDCHAR
STARTCHAR 21-23
ENCODING 13623
SWIDTH 1024 0
DWIDTH 16 0
BBX 16 16 0 -2
BITMAP
0088
0088
7988
4908
4b7f
4b08
4d08
491c
491c
492a
492a
7949
0108
0108
0108
0108
ENDCHAR
STARTCHAR 21-24
ENCODING 13624
SWIDTH 1024 0
DWIDTH 16 0
BBX 16 16 0 -2
BITMAP
0100
017e
f312
9212
9612
96ff
9a12
9212
9212
927e
9210
f210
0210
0230
0220
0260
ENDCHAR
STARTCHAR 21-25
ENCODING 13625
SWIDTH 1024 0
DWIDTH 16 0
BBX 16 16 0 -2
BITMAP
0020
003e
7c62
44c6
45ac
4418
4430
44e8
440f
4419
4433
7cea
0006
000c
0038
01e0
ENDCHAR
STARTCHAR 21-26
ENCODING 13626
SWIDTH 1024 0
DWIDTH 16 0
BBX 16 16 0 -2
BITMAP
0020
0020
7bff
4840
4840
48fe
4882
4982
4afe
4882
4882
78fe
0082
0082
0082
008e
ENDCHAR
STARTCHAR 21-27
ENCODING 13627
SWIDTH 1024 0
DWIDTH 16 0
BBX 16 16 0 -2
BITMAP
0020
0060
f040
93ff
9201
9201
9279
9249
9249
9249
9249
f279
0201
0201
0201
0207
ENDCHAR
STARTCHAR 21-28
ENCODING 13628
SWIDTH 1024 0
DWIDTH 16 0
BBX 16 16 0 -2
BITMAP
0088
0088
fbff
8888
8800
8904
8984
888c
88c8
8858
8830
f870
0058
00cc
0186
0303
ENDCHAR
STARTCHAR 21-29
ENCODING 13629
SWIDTH 1024 0
DWIDTH 16 0
BBX 16 16 0 -2
BITMAP
0020
0120
f120
93fe
9220
9020
9020
97ff
9000
9000
91fc
f104
0104
0104
0104
01fc
ENDCHAR
STARTCHAR 21-30
ENCODING 13630
SWIDTH 1024 0
DWIDTH 16 0
BBX 16 16 0 -2
BITMAP
0000
07ef
f129
9129
9129
97ea
912a
912a
9129
97e9
9129
f129
0329
026b
0648
0dc8
ENDCHAR
STARTCHAR 21-31
ENCODING 13631
SWIDTH 1024 0
DWIDTH 16 0
BBX 16 16 0 -2
BITMAP
0100
01ff
f104
9304
9274
9654
9654
9a54
9254
9254
9274
f204
0204
0204
0204
021c
ENDCHAR
STARTCHAR 21-32
ENCODING 13632
SWIDTH 1024 0
DWIDTH 16 0
BBX 16 16 0 -2
BITMAP
0000
03fc
f204
9204
93fc
9204
9204
93fc
9204
9204
93fc
f090
0090
0191
0313
0e0e
ENDCHAR
STARTCHAR 21-33
ENCODING 13633
SWIDTH 1024 0
DWIDTH 16 0
BBX 16 16 0 -2
BITMAP
0088
0088
f78f
9088
9088
9000
93fe
9020
9020
97ff
9020
f020
0020
0020
0020
00e0
ENDCHAR
STARTCHAR 21-34
ENCODING 13634
SWIDTH 1024 0
DWIDTH 16 0
BBX 16 16 0 -2
BITMAP
0020
0020
f7ff
9000
91fc
9104
91fc
9000
97ff
9002
900c
f030
0020
0020
0020
00e0
ENDCHAR
STARTCHAR 21-35
ENCODING 13635
SWIDTH 1024 0
DWIDTH 16 0
BBX 16 16 0 -2
BITMAP
0204
030c
7908
4bfc
4a04
4a04
4a04
4a04
4bfc
4890
4890
7890
0190
0111
031b
0e0e
ENDCHAR
STARTCHAR 21-36
ENCODING 13636
SWIDTH 1024 0
DWIDTH 16 0
BBX 16 16 0 -2
BITMAP
1000
103e
ff22
1122
3122
6122
c73e
0000
ffff
0008
1f88
1088
1088
1f88
0008
0038
ENDCHAR
STARTCHAR 21-37
ENCODING 13637
SWIDTH 1024 0
DWIDTH 16 0
BBX 16 16 0 -2
BITMAP
000c
0038
f3e0
9020
97ff
90a8
91ac
9727
9000
93f8
9048
f04e
00c2
0082
0182
070e
ENDCHAR
STARTCHAR 21-38
ENCODING 13638
SWIDTH 1024 0
DWIDTH 16 0
BBX 16 16 0 -2
BITMAP
0000
01fc
f000
97ff
9000
91fc
9000
9000
91fc
9000
9000
f1fc
0104
0104
0104
01fc
ENDCHAR
STARTCHAR 21-39
ENCODING 13639
SWIDTH 1024 0
DWIDTH 16 0
BBX 16 16 0 -2
BITMAP
0060
00f0
f198
930c
9ef7
9000
91fc
9004
9008
9010
9020
f3fc
0204
0204
0204
03fc
ENDCHAR
STARTCHAR 21-40
ENCODING 13640
SWIDTH 1024 0
DWIDTH 16 0
BBX 16 16 0 -2
BITMAP
0000
01fc
7904
4904
49fc
4800
4bfe
4a22
4a22
4a22
4bfe
7a00
0200
0201
0303
01fe
ENDCHAR
STARTCHAR 21-41
ENCODING 13641
SWIDTH 1024 0
DWIDTH 16 0
BBX 16 16 0 -2
BITMAP
0080
0084
f184
913e
97e3
9100
9100
93fe
9620
9020
97ff
f050
00d8
018c
0306
0603
ENDCHAR
STARTCHAR 21-42
ENCODING 13642
SWIDTH 1024 0
DWIDTH 16 0
BBX 16 16 0 -2
BITMAP
0002
078e
f138
9108
9208
9228
97ae
90a8
92a8
92a8
92a8
93a8
f17f
0380
06e0
0c3f
ENDCHAR
STARTCHAR 21-43
ENCODING 13643
SWIDTH 1024 0
DWIDTH 16 0
BBX 16 16 0 -2
BITMAP
0040
0040
f7fe
9402
9402
91f8
9000
9000
97fe
9090
9090
f090
0190
0111
0313
0e0e
ENDCHAR
STARTCHAR 21-44
ENCODING 13644
SWIDTH 1024 0
DWIDTH 16 0
BBX 16 16 0 -2
BITMAP
0042
01d2
f712
9112
9112
97d2
9112
9112
9392
9352
9552
f512
0902
0102
0102
010e
ENDCHAR
STARTCHAR 21-45
ENCODING 13645
SWIDTH 1024 0
DWIDTH 16 0
BBX 16 16 0 -2
BITMAP
0020
0060
f040
93fe
9202
9202
93fe
9202
9202
93fe
f020
0020
07ff
0020
0020
0020
ENDCHAR
STARTCHAR 21-46
ENCODING 13646
SWIDTH 1024 0
DWIDTH 16 0
BBX 16 16 0 -2
BITMAP
0020
0020
f3fe
9020
91fc
9050
97ff
9088
9124
9623
91fc
f020
03fe
0020
0020
0020
ENDCHAR
STARTCHAR 21-47
ENCODING 13647
SWIDTH 1024 0
DWIDTH 16 0
BBX 16 16 0 -2
BITMAP
0020
0070
f050
90d8
918c
9306
96fb
9020
9020
93fe
9020
f222
0326
0124
07ff
0000
ENDCHAR
STARTCHAR 21-48
ENCODING 13648
SWIDTH 1024 0
DWIDTH 16 0
BBX 16 16 0 -2
BITMAP
0040
00c0
f39e
9202
9202
93de
9202
9202
93fe
9090
9090
f090
0190
0111
0313
060e
ENDCHAR
STARTCHAR 21-49
ENCODING 13649
SWIDTH 1024 0
DWIDTH 16 0
BBX 16 16 0 -2
BITMAP
0040
0040
f7ff
9088
90a8
9124
93fe
9525
9124
91fc
9124
f124
01fc
0021
0023
001e
ENDCHAR
STARTCHAR 21-50
ENCODING 13650
SWIDTH 1024 0
DWIDTH 16 0
BBX 16 16 0 -2
BITMAP
0088
0088
f3fe
9088
9088
9088
97ff
9000
9000
91fc
9104
f104
01fc
0104
0104
01fc
ENDCHAR
STARTCHAR 21-51
ENCODING 13651
SWIDTH 1024 0
DWIDTH 16 0
BBX 16 16 0 -2
BITMAP
0020
0020
f7ff
9020
9124
9124
9124
93ae
92aa
9673
9070
f0a8
01ac
0326
0623
0020
ENDCHAR
STARTCHAR 21-52
ENCODING 13652
SWIDTH 1024 0
DWIDTH 16 0
BBX 16 16 0 -2
BITMAP
0020
0020
f3fe
9104
918c
9088
97ff
9040
9040
97ff
9084
f10c
03d8
0070
01ce
0703
ENDCHAR
STARTCHAR 21-53
ENCODING 13653
SWIDTH 1024 0
DWIDTH 16 0
BBX 16 16 0 -2
BITMAP
0202
020e
f238
9fa0
9220
923f
9324
96a4
96a4
9a24
9224
f224
0264
0244
02c4
0204
ENDCHAR
STARTCHAR 21-54
ENCODING 13654
SWIDTH 1024 0
DWIDTH 16 0
BBX 16 16 0 -2
BITMAP
0000
03fe
f202
9222
92fa
9222
9222
92fa
9202
92fa
928a
f28a
02fa
0602
0402
0c0e
ENDCHAR
STARTCHAR 21-55
ENCODING 13655
SWIDTH 1024 0
DWIDTH 16 0
BBX 16 16 0 -2
BITMAP
0100
0100
ffff
0810
0420
7ffe
4002
4102
5ffa
4102
4ff2
4812
4812
4ff2
4002
400e
ENDCHAR
STARTCHAR 21-56
ENCODING 13656
SWIDTH 1024 0
DWIDTH 16 0
BBX 16 16 0 -2
BITMAP
0108
0108
f108
97bf
9108
9108
939c
935c
952a
952a
9949
f108
0108
0108
0108
0108
ENDCHAR
STARTCHAR 21-57
ENCODING 13657
SWIDTH 1024 0
DWIDTH 16 0
BBX 16 16 0 -2
BITMAP
0000
07bf
f482
9482
95ba
952a
952a
94aa
94aa
94aa
94ba
f582
0402
0402
0402
040e
ENDCHAR
STARTCHAR 21-58
ENCODING 13658
SWIDTH 1024 0
DWIDTH 16 0
BBX 16 16 0 -2
BITMAP
0020
0020
f7ff
9000
91fc
9104
91fc
9000
93fe
900c
9030
f7ff
0020
0020
0020
00e0
ENDCHAR
STARTCHAR 21-59
ENCODING 13659
SWIDTH 1024 0
DWIDTH 16 0
BBX 16 16 0 -2
BITMAP
0020
0020
f3fe
9000
9088
9088
91dc
9356
9000
9020
97ff
f020
0020
0020
0020
0020
ENDCHAR
STARTCHAR 21-60
ENCODING 13660
SWIDTH 1024 0
DWIDTH 16 0
BBX 16 16 0 -2
BITMAP
0020
0020
f7ff
9020
93fe
9022
97ff
9022
93fe
9020
9120
f13e
0120
03a0
06e0
0c3f
ENDCHAR
STARTCHAR 21-61
ENCODING 13661
SWIDTH 1024 0
DWIDTH 16 0
BBX 16 16 0 -2
BITMAP
0020
0020
f3fe
9202
9202
9100
91de
9152
9352
9252
97d2
f096
0190
0111
0313
060e
ENDCHAR
STARTCHAR 21-62
ENCODING 13662
SWIDTH 1024 0
DWIDTH 16 0
BBX 16 16 0 -2
BITMAP
0000
3ffc
2004
3ffc
0100
ffff
0000
3ffc
2004
27e4
2424
2424
27e4
2004
3ffc
0000
ENDCHAR
STARTCHAR 21-63
ENCODING 13663
SWIDTH 1024 0
DWIDTH 16 0
BBX 16 16 0 -2
BITMAP
0020
0020
f7ff
9020
93fe
9022
97ff
9022
93fe
9040
97ff
f084
0108
03f0
005e
0783
ENDCHAR
STARTCHAR 21-64
ENCODING 13664
SWIDTH 1024 0
DWIDTH 16 0
BBX 16 16 0 -2
BITMAP
0000
0fff
f090
9090
9090
979e
9402
9402
9402
979e
9090
f090
0090
0090
0fff
0000
ENDCHAR
STARTCHAR 21-65
ENCODING 13665
SWIDTH 1024 0
DWIDTH 16 0
BBX 16 16 0 -2
BITMAP
0306
3e7c
2040
3f7f
2448
64c8
c588
0408
0000
3ffc
2004
2004
2004
2004
3ffc
0000
ENDCHAR
STARTCHAR 21-66
ENCODING 13666
SWIDTH 1024 0
DWIDTH 16 0
BBX 16 16 0 -2
BITMAP
0048
0048
f848
8bcf
8848
8848
8848
8bcf
8848
8848
88c8
fb4f
0048
00c8
0088
0188
ENDCHAR
STARTCHAR 21-67
ENCODING 13667
SWIDTH 1024 0
DWIDTH 16 0
BBX 16 16 0 -2
BITMAP
0020
0040
f3fe
9222
9222
93fe
9222
9222
93fe
9090
f110
0fff
0010
0010
0010
0010
ENDCHAR
STARTCHAR 21-68
ENCODING 13668
SWIDTH 1024 0
DWIDTH 16 0
BBX 16 16 0 -2
BITMAP
0108
0108
f108
913f
97c0
9122
9122
9122
91b6
9714
9114
f114
0114
0104
017f
0300
ENDCHAR
STARTCHAR 21-69
ENCODING 13669
SWIDTH 1024 0
DWIDTH 16 0
BBX 16 16 0 -2
BITMAP
0104
07ff
f104
9104
91fc
9104
9104
91fc
9104
9104
9fff
f248
0248
038f
0200
03ff
ENDCHAR
STARTCHAR 21-70
ENCODING 13670
SWIDTH 1024 0
DWIDTH 16 0
BBX 16 16 0 -2
BITMAP
0000
01fe
f922
8922
89fe
8922
8922
89fe
8820
8bff
8a21
fa29
023d
02e5
0201
0207
ENDCHAR
STARTCHAR 21-71
ENCODING 13671
SWIDTH 1024 0
DWIDTH 16 0
BBX 16 16 0 -2
BITMAP
0000
03fe
f222
9222
93fe
9222
9222
93fe
9000
97ff
9122
f136
0114
0118
01cc
0707
ENDCHAR
STARTCHAR 21-72
ENCODING 13672
SWIDTH 1024 0
DWIDTH 16 0
BBX 16 16 0 -2
BITMAP
1010
1010
1010
feff
1010
1010
1010
7e7e
0000
0000
7e7e
4242
4242
4242
4242
7e7e
ENDCHAR
STARTCHAR 21-73
ENCODING 13673
SWIDTH 1024 0
DWIDTH 16 0
BBX 16 16 0 -2
BITMAP
0210
0213
f3de
9210
9210
9211
938f
9620
9040
93fe
9202
f202
03fe
0202
0202
03fe
ENDCHAR
STARTCHAR 21-74
ENCODING 13674
SWIDTH 1024 0
DWIDTH 16 0
BBX 16 16 0 -2
BITMAP
0000
03fc
f204
9204
927c
9244
9244
97fe
9402
94f2
9492
f492
0492
04f2
0402
040e
ENDCHAR
STARTCHAR 21-75
ENCODING 13675
SWIDTH 1024 0
DWIDTH 16 0
BBX 16 16 0 -2
BITMAP
0084
0084
fbff
8884
8884
8840
8840
8bff
8880
8880
89fe
fa82
0082
0082
0082
00fe
ENDCHAR
STARTCHAR 21-76
ENCODING 13676
SWIDTH 1024 0
DWIDTH 16 0
BBX 16 16 0 -2
BITMAP
0020
0020
f3fe
9104
918c
9088
97ff
9000
9000
91fc
9104
f104
01fc
0104
0104
01fc
ENDCHAR
STARTCHAR 21-77
ENCODING 13677
SWIDTH 1024 0
DWIDTH 16 0
BBX 16 16 0 -2
BITMAP
0108
01e8
f128
932e
966b
9d48
90c8
91b0
931c
9607
9000
f3fc
0204
0204
0204
03fc
ENDCHAR
STARTCHAR 21-78
ENCODING 13678
SWIDTH 1024 0
DWIDTH 16 0
BBX 16 16 0 -2
BITMAP
0000
07ff
f088
97ff
9489
9489
97ff
9080
9080
97ff
9104
f10c
03c8
0078
00ce
0783
ENDCHAR
STARTCHAR 21-79
ENCODING 13679
SWIDTH 1024 0
DWIDTH 16 0
BBX 16 16 0 -2
BITMAP
0000
03fe
fa02
8a02
8bfe
8a00
8afe
8a20
8a44
8afe
8a12
fa10
06fe
0410
0c10
01ff
ENDCHAR
STARTCHAR 21-80
ENCODING 13680
SWIDTH 1024 0
DWIDTH 16 0
BBX 16 16 0 -2
BITMAP
0000
07ff
f401
9421
93fe
9020
93fe
9222
93fe
9222
9222
f3fe
0020
07ff
0020
0020
ENDCHAR
STARTCHAR 21-81
ENCODING 13681
SWIDTH 1024 0
DWIDTH 16 0
BBX 16 16 0 -2
BITMAP
0100
0100
7bfe
4a02
4e02
49f2
4912
4912
79f2
0006
0004
001c
0000
2444
6666
c223
ENDCHAR
STARTCHAR 21-82
ENCODING 13682
SWIDTH 1024 0
DWIDTH 16 0
BBX 16 16 0 -2
BITMAP
0020
0040
79fc
4904
49fc
4904
4904
49fc
4800
4bfe
4820
79fc
0020
0020
07ff
0000
ENDCHAR
STARTCHAR 21-83
ENCODING 13683
SWIDTH 1024 0
DWIDTH 16 0
BBX 16 16 0 -2
BITMAP
0020
0020
f3fe
9088
9070
9088
93fe
9208
9238
92e6
920c
f23b
06e6
040c
0c38
00e0
ENDCHAR
STARTCHAR 21-84
ENCODING 13684
SWIDTH 1024 0
DWIDTH 16 0
BBX 16 16 0 -2
BITMAP
0088
0188
f108
965f
92d1
91b1
9101
9249
97ed
9125
9101
f541
0561
0d23
0902
010e
ENDCHAR
STARTCHAR 21-85
ENCODING 13685
SWIDTH 1024 0
DWIDTH 16 0
BBX 16 16 0 -2
BITMAP
0ff0
0810
0810
0ff0
0000
7e7e
4242
4242
7e7e
0100
ffff
0520
0d30
391c
e107
0100
ENDCHAR
STARTCHAR 21-86
ENCODING 13686
SWIDTH 1024 0
DWIDTH 16 0
BBX 16 16 0 -2
BITMAP
0006
007c
f7d0
941e
9410
95ff
9511
951c
9571
951f
9500
f524
0524
0925
0265
00c3
ENDCHAR
STARTCHAR 21-87
ENCODING 13687
SWIDTH 1024 0
DWIDTH 16 0
BBX 16 16 0 -2
BITMAP
0020
0020
f7ff
9000
91fc
9104
91fc
9000
93fe
9202
92fa
f28a
028a
02fa
0202
020e
ENDCHAR
STARTCHAR 21-88
ENCODING 13688
SWIDTH 1024 0
DWIDTH 16 0
BBX 16 16 0 -2
BITMAP
0020
0070
f0d8
918c
9777
9000
91fc
9104
91fc
9104
91fc
f300
02fe
0682
0c82
00fe
ENDCHAR
STARTCHAR 21-89
ENCODING 13689
SWIDTH 1024 0
DWIDTH 16 0
BBX 16 16 0 -2
BITMAP
0020
03fe
f020
91fc
9020
97ff
9020
9044
9188
9052
97ff
f021
00a8
01ac
0727
0020
ENDCHAR
STARTCHAR 21-90
ENCODING 13690
SWIDTH 1024 0
DWIDTH 16 0
BBX 16 16 0 -2
BITMAP
0020
03fe
f0c2
930e
9104
97df
9249
96d3
9000
93fe
9202
f3fe
0202
03fe
0202
020e
ENDCHAR
STARTCHAR 21-91
ENCODING 13691
SWIDTH 1024 0
DWIDTH 16 0
BBX 16 16 0 -2
BITMAP
0204
030c
f108
97fe
9108
930c
9204
9606
9c03
9000
97fe
f492
0492
0492
0492
0fff
ENDCHAR
STARTCHAR 21-92
ENCODING 13692
SWIDTH 1024 0
DWIDTH 16 0
BBX 16 16 0 -2
BITMAP
0000
03fe
f220
9220
93fc
9220
9220
93fc
9220
9220
93ff
f001
0011
0559
0d4b
0806
ENDCHAR
STARTCHAR 21-93
ENCODING 13693
SWIDTH 1024 0
DWIDTH 16 0
BBX 16 16 0 -2
BITMAP
0040
0040
f3fc
9040
9040
97fe
9100
9108
927c
97c6
9000
f7fe
0492
0492
0492
0fff
ENDCHAR
STARTCHAR 21-94
ENCODING 13694
SWIDTH 1024 0
DWIDTH 16 0
BBX 16 16 0 -2
BITMAP
0088
0088
f7ff
9088
9020
9070
90d8
918c
9777
9000
9000
f1fc
0104
0104
0104
01fc
ENDCHAR
STARTCHAR 22-01
ENCODING 13857
SWIDTH 1024 0
DWIDTH 16 0
BBX 16 16 0 -2
BITMAP
01fc
0048
f030
91ce
9000
97df
928a
9104
96db
9020
97ff
f0a8
01ac
0326
0623
0020
ENDCHAR
STARTCHAR 22-02
ENCODING 13858
SWIDTH 1024 0
DWIDTH 16 0
BBX 16 16 0 -2
BITMAP
01fc
0104
f13c
9124
9124
97ff
9401
9401
91fc
9104
91fc
f104
01fc
0104
0104
011c
ENDCHAR
STARTCHAR 22-03
ENCODING 13859
SWIDTH 1024 0
DWIDTH 16 0
BBX 16 16 0 -2
BITMAP
0006
003c
f3c2
9466
9624
9240
90c8
9190
90a4
907e
93c3
f020
07ff
0050
018c
0707
ENDCHAR
STARTCHAR 22-04
ENCODING 13860
SWIDTH 1024 0
DWIDTH 16 0
BBX 16 16 0 -2
BITMAP
0104
0088
f7ff
9090
93fe
9092
9092
97ff
9092
9092
93fe
f098
0194
0396
0693
0090
ENDCHAR
STARTCHAR 22-05
ENCODING 13861
SWIDTH 1024 0
DWIDTH 16 0
BBX 16 16 0 -2
BITMAP
0088
0088
f7ff
9088
9000
9104
9208
9208
9492
928a
9104
f104
028a
028a
07df
0451
ENDCHAR
STARTCHAR 22-06
ENCODING 13862
SWIDTH 1024 0
DWIDTH 16 0
BBX 16 16 0 -2
BITMAP
0000
03fc
f204
9204
93fc
9204
9204
93fc
9000
97fe
9492
f492
0492
0492
0492
0fff
ENDCHAR
STARTCHAR 22-07
ENCODING 13863
SWIDTH 1024 0
DWIDTH 16 0
BBX 16 16 0 -2
BITMAP
0222
0326
f124
9020
93fe
9202
9202
93fe
9202
9202
93fe
f202
0202
03fe
0104
0603
ENDCHAR
STARTCHAR 22-08
ENCODING 13864
SWIDTH 1024 0
DWIDTH 16 0
BBX 16 16 0 -2
BITMAP
0000
03fe
f222
93fe
9222
9222
93fe
9124
97ff
9124
9124
f3fe
0020
03fe
0020
0020
ENDCHAR
STARTCHAR 22-09
ENCODING 13865
SWIDTH 1024 0
DWIDTH 16 0
BBX 16 16 0 -2
BITMAP
0020
00f8
f18c
9777
9000
91fc
9008
93fe
9202
93fe
9202
f3fe
0202
03fe
0104
0603
ENDCHAR
STARTCHAR 22-10
ENCODING 13866
SWIDTH 1024 0
DWIDTH 16 0
BBX 16 16 0 -2
BITMAP
0100
023e
f794
9494
9794
9494
9494
97bf
9004
94c4
978c
f40c
0454
03d5
0025
0043
ENDCHAR
STARTCHAR 22-11
ENCODING 13867
SWIDTH 1024 0
DWIDTH 16 0
BBX 16 16 0 -2
BITMAP
0088
0088
f7ff
9088
97ff
9489
97ff
9489
97ff
9000
93fe
f202
03fe
0202
0202
03fe
ENDCHAR
STARTCHAR 22-12
ENCODING 13868
SWIDTH 1024 0
DWIDTH 16 0
BBX 16 16 0 -2
BITMAP
0222
0222
f3fe
9000
97ff
9400
9410
94fe
9410
95ff
f400
0410
0cfe
0810
19ff
0000
ENDCHAR
STARTCHAR 22-13
ENCODING 13869
SWIDTH 1024 0
DWIDTH 16 0
BBX 16 16 0 -2
BITMAP
0020
03fe
f222
97ff
9222
93fe
9020
93fe
9222
93fe
9040
f7ff
0084
01c8
007c
07c7
ENDCHAR
STARTCHAR 22-14
ENCODING 13870
SWIDTH 1024 0
DWIDTH 16 0
BBX 16 16 0 -2
BITMAP
0000
0fff
f040
93fc
9204
93fc
9204
93fc
9204
93fc
f102
0fff
0090
0060
0399
1e07
ENDCHAR
STARTCHAR 22-15
ENCODING 13871
SWIDTH 1024 0
DWIDTH 16 0
BBX 16 16 0 -2
BITMAP
2000
23de
2242
2242
fa42
23de
2200
223e
fbd2
8a16
8a14
8bdc
8a08
fa1c
0236
0263
ENDCHAR
STARTCHAR 22-16
ENCODING 13872
SWIDTH 1024 0
DWIDTH 16 0
BBX 16 16 0 -2
BITMAP
0000
03de
f042
914a
90c6
914a
9022
9070
91dc
9707
9020
f1c8
0032
01c4
0018
01e0
ENDCHAR
STARTCHAR 22-17
ENCODING 13873
SWIDTH 1024 0
DWIDTH 16 0
BBX 16 16 0 -2
BITMAP
0040
007e
f040
97ff
9441
9471
95c4
947c
9400
941e
f5f0
0c92
0854
1bff
3010
0030
ENDCHAR
STARTCHAR 22-18
ENCODING 13874
SWIDTH 1024 0
DWIDTH 16 0
BBX 16 16 0 -2
BITMAP
0104
0104
f7df
9104
97df
9104
91df
9704
9104
9000
f3fc
0004
0fff
0004
0004
03fc
ENDCHAR
STARTCHAR 22-19
ENCODING 13875
SWIDTH 1024 0
DWIDTH 16 0
BBX 16 16 0 -2
BITMAP
0008
0608
e37f
ac49
a67e
a052
a354
a6c8
ad94
a063
a080
efff
0108
03d0
0078
07ce
ENDCHAR
STARTCHAR 22-20
ENCODING 13876
SWIDTH 1024 0
DWIDTH 16 0
BBX 16 16 0 -2
BITMAP
01fc
0104
f1fc
9104
91fc
9000
97ff
9240
93de
924a
93ca
f24e
0244
03ce
065b
0040
ENDCHAR
STARTCHAR 22-21
ENCODING 13877
SWIDTH 1024 0
DWIDTH 16 0
BBX 16 16 0 -2
BITMAP
0122
0224
f6ad
9122
9225
92af
97a4
9022
93ff
9220
9212
f314
0288
0695
0427
0cc2
ENDCHAR
STARTCHAR 22-22
ENCODING 13878
SWIDTH 1024 0
DWIDTH 16 0
BBX 16 16 0 -2
BITMAP
0020
01fc
7924
49fc
4820
4fff
4800
49fc
4904
49fc
4904
79fc
0104
01fc
0088
0306
ENDCHAR
STARTCHAR 22-23
ENCODING 13879
SWIDTH 1024 0
DWIDTH 16 0
BBX 16 16 0 -2
BITMAP
0020
01fc
f020
93fe
9000
9104
97df
9104
91c4
971f
9000
f3ff
0088
0089
0189
0307
ENDCHAR
STARTCHAR 22-24
ENCODING 13880
SWIDTH 1024 0
DWIDTH 16 0
BBX 16 16 0 -2
BITMAP
0020
01fc
7904
49fc
4904
49fc
4904
49fc
4820
4bae
7820
03ae
0020
0fff
0020
0020
ENDCHAR
STARTCHAR 22-25
ENCODING 13881
SWIDTH 1024 0
DWIDTH 16 0
BBX 16 16 0 -2
BITMAP
0040
0040
f7ff
9088
928a
9104
93fe
9505
91fc
9104
91fc
f020
0124
0326
0623
00e0
ENDCHAR
STARTCHAR 22-26
ENCODING 13882
SWIDTH 1024 0
DWIDTH 16 0
BBX 16 16 0 -2
BITMAP
0020
07ff
f020
93fe
9000
93fe
9202
93fe
9104
9088
97ff
f000
03fe
0202
0202
03fe
ENDCHAR
STARTCHAR 22-27
ENCODING 13883
SWIDTH 1024 0
DWIDTH 16 0
BBX 16 16 0 -2
BITMAP
7e7e
4242
7e7e
0000
3ffc
2104
3ffc
2104
3ffc
0000
ffff
0000
3ffc
2004
2004
3ffc
ENDCHAR
STARTCHAR 22-28
ENCODING 13884
SWIDTH 1024 0
DWIDTH 16 0
BBX 16 16 0 -2
BITMAP
03de
0252
7bde
4800
49fc
4924
4924
49fc
4924
4924
79fc
0020
07ff
0020
0020
0020
ENDCHAR
STARTCHAR 22-29
ENCODING 13885
SWIDTH 1024 0
DWIDTH 16 0
BBX 16 16 0 -2
BITMAP
0000
03fe
f222
9222
93fe
9222
9222
93fe
9020
93fe
9020
f7ff
0000
0292
06db
0449
ENDCHAR
STARTCHAR 22-30
ENCODING 13886
SWIDTH 1024 0
DWIDTH 16 0
BBX 16 16 0 -2
BITMAP
0000
07df
f041
97df
9410
9451
93cf
9000
9088
93fe
9088
f088
07ff
0088
018c
0707
ENDCHAR
STARTCHAR 22-31
ENCODING 13887
SWIDTH 1024 0
DWIDTH 16 0
BBX 16 16 0 -2
BITMAP
0000
07ff
f050
93de
9202
9202
93de
9050
9050
97ff
9020
f030
0292
0283
0685
047c
ENDCHAR
STARTCHAR 22-32
ENCODING 13888
SWIDTH 1024 0
DWIDTH 16 0
BBX 16 16 0 -2
BITMAP
001c
01f0
f222
9124
97ff
90a8
91ac
9326
9623
9000
93fe
f222
03fe
0222
0222
03fe
ENDCHAR
STARTCHAR 22-33
ENCODING 13889
SWIDTH 1024 0
DWIDTH 16 0
BBX 16 16 0 -2
BITMAP
0100
01df
f709
91c9
9719
91d3
9736
9100
9088
9110
90a2
f7ff
0021
0124
0326
0623
ENDCHAR
STARTCHAR 22-34
ENCODING 13890
SWIDTH 1024 0
DWIDTH 16 0
BBX 16 16 0 -2
BITMAP
0104
0fbe
f514
9514
9fbf
930c
9595
9927
9000
93fc
9204
f204
03fc
0204
0204
03fc
ENDCHAR
STARTCHAR 22-35
ENCODING 13891
SWIDTH 1024 0
DWIDTH 16 0
BBX 16 16 0 -2
BITMAP
0008
07e8
f108
910f
97ea
9252
924a
93ca
924a
924e
93c4
f244
024e
03ca
0e5b
0051
ENDCHAR
STARTCHAR 22-36
ENCODING 13892
SWIDTH 1024 0
DWIDTH 16 0
BBX 16 16 0 -2
BITMAP
0108
0108
ffe8
901f
97d2
9472
97d6
9014
97d4
909c
9108
f1c8
071c
0114
0136
0763
ENDCHAR
STARTCHAR 22-37
ENCODING 13893
SWIDTH 1024 0
DWIDTH 16 0
BBX 16 16 0 -2
BITMAP
0088
0090
79ff
4910
4b10
4dfe
4910
4910
49fe
4910
4910
79ff
0000
014a
034b
0201
ENDCHAR
STARTCHAR 22-38
ENCODING 13894
SWIDTH 1024 0
DWIDTH 16 0
BBX 16 16 0 -2
BITMAP
0020
00f8
f18c
9777
9000
91fc
9104
91fc
9000
97df
9041
f659
00c3
034d
0451
00c3
ENDCHAR
STARTCHAR 22-39
ENCODING 13895
SWIDTH 1024 0
DWIDTH 16 0
BBX 16 16 0 -2
BITMAP
03f2
0455
f2da
918c
9306
96fb
9000
9000
91fc
9104
9104
f1fc
0088
00d8
0050
07ff
ENDCHAR
STARTCHAR 22-40
ENCODING 13896
SWIDTH 1024 0
DWIDTH 16 0
BBX 16 16 0 -2
BITMAP
0020
0070
f0d8
918c
9707
90f8
9000
93de
9252
9252
93de
f000
0104
0104
038e
06db
ENDCHAR
STARTCHAR 22-41
ENCODING 13897
SWIDTH 1024 0
DWIDTH 16 0
BBX 16 16 0 -2
BITMAP
0010
0410
f6fe
9210
91ff
9044
9028
9efe
9210
92fe
9210
f3ff
0210
0610
0500
0cff
ENDCHAR
STARTCHAR 22-42
ENCODING 13898
SWIDTH 1024 0
DWIDTH 16 0
BBX 16 16 0 -2
BITMAP
00f8
0110
f7ff
9244
9387
927c
9200
93ff
9200
927c
9200
f27c
0200
02fe
0482
00fe
ENDCHAR
STARTCHAR 22-43
ENCODING 13899
SWIDTH 1024 0
DWIDTH 16 0
BBX 16 16 0 -2
BITMAP
0020
0040
f3fe
9202
92aa
9222
92fa
9272
92aa
9222
9242
f7ff
0050
00d8
018c
0707
ENDCHAR
STARTCHAR 22-44
ENCODING 13900
SWIDTH 1024 0
DWIDTH 16 0
BBX 16 16 0 -2
BITMAP
0000
07fe
f492
9492
97fe
9100
93ff
9641
9ff9
9249
9249
f3f9
0051
01fb
070a
0006
ENDCHAR
STARTCHAR 22-45
ENCODING 13901
SWIDTH 1024 0
DWIDTH 16 0
BBX 16 16 0 -2
BITMAP
0020
013e
f120
97ff
900a
9009
97ff
9404
95f4
9444
9555
f75e
0464
058d
0415
0863
ENDCHAR
STARTCHAR 22-46
ENCODING 13902
SWIDTH 1024 0
DWIDTH 16 0
BBX 16 16 0 -2
BITMAP
0000
7fff
0080
1ebc
12a4
1ebc
0080
3ffe
0080
0080
1ebc
12a4
1ebc
0080
7fff
0000
ENDCHAR
STARTCHAR 22-47
ENCODING 13903
SWIDTH 1024 0
DWIDTH 16 0
BBX 16 16 0 -2
BITMAP
0108
0208
f7c8
945f
97d2
9472
97d2
911a
9fea
920e
93c4
f244
064e
04ca
0c9b
1991
ENDCHAR
STARTCHAR 22-48
ENCODING 13904
SWIDTH 1024 0
DWIDTH 16 0
BBX 16 16 0 -2
BITMAP
000e
07f8
f242
9124
97ff
9421
9292
9285
947c
9080
91fc
f304
0698
0070
01dc
0707
ENDCHAR
STARTCHAR 22-49
ENCODING 13905
SWIDTH 1024 0
DWIDTH 16 0
BBX 16 16 0 -2
BITMAP
0040
007e
f040
97ff
9441
95f8
9442
943e
9400
97ff
9440
f5a2
0454
05b8
0854
03b3
ENDCHAR
STARTCHAR 22-50
ENCODING 13906
SWIDTH 1024 0
DWIDTH 16 0
BBX 16 16 0 -2
BITMAP
0020
0050
f18c
9777
9000
93fe
9222
92aa
9222
93fe
9000
f1fc
0104
01fc
0104
01fc
ENDCHAR
STARTCHAR 22-51
ENCODING 13907
SWIDTH 1024 0
DWIDTH 16 0
BBX 16 16 0 -2
BITMAP
0110
6fff
3040
13fc
0204
f3fc
1204
13fc
1204
33fc
6800
c7ff
0000
3ffc
2004
3ffc
ENDCHAR
STARTCHAR 22-52
ENCODING 13908
SWIDTH 1024 0
DWIDTH 16 0
BBX 16 16 0 -2
BITMAP
0088
07ff
f088
9110
93ff
9620
9bfe
9220
93fe
9220
93ff
f000
07fe
008c
0070
078f
ENDCHAR
STARTCHAR 22-53
ENCODING 13909
SWIDTH 1024 0
DWIDTH 16 0
BBX 16 16 0 -2
BITMAP
0000
03fe
f020
97ff
9421
95ad
9421
91ac
9000
97ff
9040
f7ff
0491
0491
0491
0493
ENDCHAR
STARTCHAR 22-54
ENCODING 13910
SWIDTH 1024 0
DWIDTH 16 0
BBX 16 16 0 -2
BITMAP
0000
0fff
e800
abc6
aa45
abc4
aa5f
abc4
a804
abc4
aa44
ebce
0a4a
13ca
025b
02d1
ENDCHAR
STARTCHAR 22-55
ENCODING 13911
SWIDTH 1024 0
DWIDTH 16 0
BBX 16 16 0 -2
BITMAP
0020
03fe
f020
91fc
9000
97ff
9001
91fd
9020
93fe
9000
f7ff
0002
07bf
0492
0786
ENDCHAR
STARTCHAR 22-56
ENCODING 13912
SWIDTH 1024 0
DWIDTH 16 0
BBX 16 16 0 -2
BITMAP
0020
0020
f7ff
9050
97af
92aa
92aa
95ad
9000
9202
93fe
f202
03fe
0202
0202
0402
ENDCHAR
STARTCHAR 22-57
ENCODING 13913
SWIDTH 1024 0
DWIDTH 16 0
BBX 16 16 0 -2
BITMAP
0080
01f8
f310
9ffe
9222
93fe
9222
93fe
9292
9449
9000
f3fe
0202
03fe
0202
03fe
ENDCHAR
STARTCHAR 22-58
ENCODING 13914
SWIDTH 1024 0
DWIDTH 16 0
BBX 16 16 0 -2
BITMAP
0020
0120
f13e
9120
9120
97ff
928a
928a
9356
9202
93fe
f28a
028a
0356
0202
03fe
ENDCHAR
STARTCHAR 22-59
ENCODING 13915
SWIDTH 1024 0
DWIDTH 16 0
BBX 16 16 0 -2
BITMAP
7e7e
4242
7e7e
0000
7ffe
4080
7ffc
4004
7ffc
4080
7ffe
0000
7e7e
4242
7e7e
0000
ENDCHAR
STARTCHAR 22-60
ENCODING 13916
SWIDTH 1024 0
DWIDTH 16 0
BBX 16 16 0 -2
BITMAP
0020
0020
f7ff
9448
95fe
9448
97ff
9420
95fe
9522
95fe
f522
0d22
09fe
1884
0303
ENDCHAR
STARTCHAR 22-61
ENCODING 13917
SWIDTH 1024 0
DWIDTH 16 0
BBX 16 16 0 -2
BITMAP
0100
3ffc
0100
1ff8
0000
0ff0
0810
0ff0
1008
fe7f
1008
7c3e
0000
7c3e
4422
7c3e
ENDCHAR
STARTCHAR 22-62
ENCODING 13918
SWIDTH 1024 0
DWIDTH 16 0
BBX 16 16 0 -2
BITMAP
01a0
073f
e165
afcd
a519
adc3
a90e
a160
a0f0
a39c
ae07
e040
064e
01f0
035c
0ec7
ENDCHAR
STARTCHAR 22-63
ENCODING 13919
SWIDTH 1024 0
DWIDTH 16 0
BBX 16 16 0 -2
BITMAP
0000
07ff
f488
9488
97fe
9488
95dc
96aa
9488
9420
9520
f53e
0520
0920
0120
07ff
ENDCHAR
STARTCHAR 22-64
ENCODING 13920
SWIDTH 1024 0
DWIDTH 16 0
BBX 16 16 0 -2
BITMAP
0040
0078
f040
97fe
9442
95f8
9442
95fe
9524
95fc
9524
f5fc
0400
0bfe
0292
07ff
ENDCHAR
STARTCHAR 22-65
ENCODING 13921
SWIDTH 1024 0
DWIDTH 16 0
BBX 16 16 0 -2
BITMAP
0088
0088
f7ff
9228
914f
97f1
900f
93e8
922f
93e8
922f
f3e8
022f
0228
0229
0267
ENDCHAR
STARTCHAR 22-66
ENCODING 13922
SWIDTH 1024 0
DWIDTH 16 0
BBX 16 16 0 -2
BITMAP
010c
030a
e27f
ac88
a5be
a32a
a23e
a4aa
afbe
a284
a27f
ea84
1aa4
1294
0204
020c
ENDCHAR
STARTCHAR 22-67
ENCODING 13923
SWIDTH 1024 0
DWIDTH 16 0
BBX 16 16 0 -2
BITMAP
0100
013e
f7e2
92a2
92be
92a2
97e2
913e
9122
97e2
913e
f394
0554
0935
0125
0163
ENDCHAR
STARTCHAR 22-68
ENCODING 13924
SWIDTH 1024 0
DWIDTH 16 0
BBX 16 16 0 -2
BITMAP
0200
027f
eb88
aa3e
aa22
aa22
bfbe
a222
aaa2
aa7e
b2a2
e6a2
013e
0314
0636
0c63
ENDCHAR
STARTCHAR 22-69
ENCODING 13925
SWIDTH 1024 0
DWIDTH 16 0
BBX 16 16 0 -2
BITMAP
1000
ff7f
1008
7e18
0030
7e74
42d6
7e93
2410
2410
ff00
007e
7e42
4242
4242
7e7e
ENDCHAR
STARTCHAR 22-70
ENCODING 13926
SWIDTH 1024 0
DWIDTH 16 0
BBX 16 16 0 -2
BITMAP
020a
03cb
e209
afc8
aa4f
afb8
aa48
a9ca
a80a
afee
a804
efc4
1444
17cd
329b
07d1
ENDCHAR
STARTCHAR 22-71
ENCODING 13927
SWIDTH 1024 0
DWIDTH 16 0
BBX 16 16 0 -2
BITMAP
0a40
399c
2244
381c
2244
399c
2244
7ffe
4902
4ff2
1100
7ffe
0000
1ff8
1008
1ff8
ENDCHAR
STARTCHAR 22-72
ENCODING 13928
SWIDTH 1024 0
DWIDTH 16 0
BBX 16 16 0 -2
BITMAP
0020
07ff
f000
93de
9252
93de
9088
93fe
9088
93fe
9088
f7ff
0091
070a
01e4
0303
ENDCHAR
STARTCHAR 22-73
ENCODING 13929
SWIDTH 1024 0
DWIDTH 16 0
BBX 16 16 0 -2
BITMAP
0088
078f
f088
93de
9252
93de
9084
9088
91fe
9310
95fc
f110
01fc
0110
0110
01ff
ENDCHAR
STARTCHAR 22-74
ENCODING 13930
SWIDTH 1024 0
DWIDTH 16 0
BBX 16 16 0 -2
BITMAP
0000
eefe
aa82
ee82
00fe
7c80
5494
54ff
7c94
5494
54ff
7ca9
10aa
feac
1136
1063
ENDCHAR
STARTCHAR 22-75
ENCODING 13931
SWIDTH 1024 0
DWIDTH 16 0
BBX 16 16 0 -2
BITMAP
0000
03fe
f292
93fe
9000
910a
961f
92b4
9114
925e
97d4
f154
011e
0354
0554
011f
ENDCHAR
STARTCHAR 22-76
ENCODING 13932
SWIDTH 1024 0
DWIDTH 16 0
BBX 16 16 0 -2
BITMAP
0100
7ffe
1108
1ff8
0100
ffff
a245
3e7c
0220
3ffc
0420
ffff
0884
f048
1030
1e0f
ENDCHAR
STARTCHAR 22-77
ENCODING 13933
SWIDTH 1024 0
DWIDTH 16 0
BBX 16 16 0 -2
BITMAP
0a28
0fbe
ea28
a208
bfbf
a514
a595
a927
a000
a7fc
a404
e404
07fc
0404
0404
07fc
ENDCHAR
STARTCHAR 22-78
ENCODING 13934
SWIDTH 1024 0
DWIDTH 16 0
BBX 16 16 0 -2
BITMAP
2810
29ff
fe10
28fe
0000
7cfe
5482
54fe
7c44
1028
7dff
1000
fefe
2882
6c82
c4fe
ENDCHAR
STARTCHAR 22-79
ENCODING 13935
SWIDTH 1024 0
DWIDTH 16 0
BBX 16 16 0 -2
BITMAP
0204
03c5
e205
bfe4
a224
af9f
a224
bfe4
a484
a784
a004
ffee
34aa
38ea
573a
1263
ENDCHAR
STARTCHAR 22-80
ENCODING 13936
SWIDTH 1024 0
DWIDTH 16 0
BBX 16 16 0 -2
BITMAP
0108
0fff
e108
a403
a786
a49c
afc4
a55f
a7c4
a54e
a54e
e7d5
0014
0aa4
0aa4
0804
ENDCHAR
STARTCHAR 22-81
ENCODING 13937
SWIDTH 1024 0
DWIDTH 16 0
BBX 16 16 0 -2
BITMAP
1010
ffff
1010
7e7e
0000
7e7e
4242
7e7e
2424
2424
ffff
0000
7e7e
4242
4242
7e7e
ENDCHAR
STARTCHAR 22-82
ENCODING 13938
SWIDTH 1024 0
DWIDTH 16 0
BBX 16 16 0 -2
BITMAP
0000
7ffe
4002
4002
4002
7fc2
4042
4042
4042
4042
7fc2
4002
4002
4002
7ffe
0000
ENDCHAR
STARTCHAR 22-83
ENCODING 13939
SWIDTH 1024 0
DWIDTH 16 0
BBX 16 16 0 -2
BITMAP
0000
7ffe
4002
4102
4102
4302
4202
4222
4632
4412
45f2
4f1a
580a
4002
7ffe
0000
ENDCHAR
STARTCHAR 22-84
ENCODING 13940
SWIDTH 1024 0
DWIDTH 16 0
BBX 16 16 0 -2
BITMAP
0000
7ffe
4002
4002
4ff2
4022
4042
4082
5ffa
4082
4082
4082
4382
4002
7ffe
0000
ENDCHAR
STARTCHAR 22-85
ENCODING 13941
SWIDTH 1024 0
DWIDTH 16 0
BBX 16 16 0 -2
BITMAP
0080
0180
0100
3ffe
2002
2012
2432
2222
2162
20c2
21a2
2332
2e12
2002
3ffe
0000
ENDCHAR
STARTCHAR 22-86
ENCODING 13942
SWIDTH 1024 0
DWIDTH 16 0
BBX 16 16 0 -2
BITMAP
0000
7ffe
4002
4102
4102
5ffa
4222
4422
4462
4f42
41c2
4362
4e32
4002
7ffe
0000
ENDCHAR
STARTCHAR 22-87
ENCODING 13943
SWIDTH 1024 0
DWIDTH 16 0
BBX 16 16 0 -2
BITMAP
0000
7ffe
4102
4132
41e2
5f02
4102
4922
4922
4fe2
410a
411a
40f2
4002
7ffe
0000
ENDCHAR
STARTCHAR 22-88
ENCODING 13944
SWIDTH 1024 0
DWIDTH 16 0
BBX 16 16 0 -2
BITMAP
0000
7ffe
4102
4102
5ffa
4002
43c2
4242
4242
4642
444a
4c4a
583a
4002
7ffe
0000
ENDCHAR
STARTCHAR 22-89
ENCODING 13945
SWIDTH 1024 0
DWIDTH 16 0
BBX 16 16 0 -2
BITMAP
0000
7ffe
4082
4082
408a
5e9a
42b2
46c2
44a2
4c9a
588e
4082
4382
4002
7ffe
0000
ENDCHAR
STARTCHAR 22-90
ENCODING 13946
SWIDTH 1024 0
DWIDTH 16 0
BBX 16 16 0 -2
BITMAP
0000
7ffe
4442
4442
4442
4442
4c7a
5802
4002
47e2
4422
4422
4422
4422
7ffe
0000
ENDCHAR
STARTCHAR 22-91
ENCODING 13947
SWIDTH 1024 0
DWIDTH 16 0
BBX 16 16 0 -2
BITMAP
0000
7ffe
4002
4002
5ffa
4102
4302
4762
4d32
791e
4102
4102
4102
4002
7ffe
0000
ENDCHAR
STARTCHAR 22-92
ENCODING 13948
SWIDTH 1024 0
DWIDTH 16 0
BBX 16 16 0 -2
BITMAP
0080
0180
0100
3ffe
2042
22fa
218a
231a
2eb2
2062
20c2
23a2
2e12
2002
3ffe
0000
ENDCHAR
STARTCHAR 22-93
ENCODING 13949
SWIDTH 1024 0
DWIDTH 16 0
BBX 16 16 0 -2
BITMAP
0000
7ffe
4002
4802
4ffa
4a4a
5a4a
524a
46ca
4c8a
599a
4312
4072
4002
7ffe
0000
ENDCHAR
STARTCHAR 22-94
ENCODING 13950
SWIDTH 1024 0
DWIDTH 16 0
BBX 16 16 0 -2
BITMAP
0000
7ffe
4002
4002
4ff2
4002
4002
5ffa
4242
4242
464a
4c4a
583a
4002
7ffe
0000
ENDCHAR
STARTCHAR 23-01
ENCODING 14113
SWIDTH 1024 0
DWIDTH 16 0
BBX 16 16 0 -2
BITMAP
0000
7ffe
4002
4242
4242
4662
4c32
591a
4102
4ff2
4102
4102
5ffa
4002
7ffe
0000
ENDCHAR
STARTCHAR 23-02
ENCODING 14114
SWIDTH 1024 0
DWIDTH 16 0
BBX 16 16 0 -2
BITMAP
0000
7ffe
4002
4032
41e2
4f02
4102
5ffa
4542
4542
4562
4d32
591a
4102
7ffe
0000
ENDCHAR
STARTCHAR 23-03
ENCODING 14115
SWIDTH 1024 0
DWIDTH 16 0
BBX 16 16 0 -2
BITMAP
0000
7ffe
4102
4102
5ffa
4002
47e2
4002
47e2
4002
4ff2
4812
4ff2
4002
7ffe
0000
ENDCHAR
STARTCHAR 23-04
ENCODING 14116
SWIDTH 1024 0
DWIDTH 16 0
BBX 16 16 0 -2
BITMAP
0000
7ffe
4002
4fe2
4202
4512
4932
42a2
4482
59c2
42e2
44b2
589a
4302
7ffe
0000
ENDCHAR
STARTCHAR 23-05
ENCODING 14117
SWIDTH 1024 0
DWIDTH 16 0
BBX 16 16 0 -2
BITMAP
0000
7fff
4081
41c1
4771
5c1d
43e1
4001
4ffd
4925
4ffd
4925
4925
492d
4001
7fff
ENDCHAR
STARTCHAR 23-06
ENCODING 14118
SWIDTH 1024 0
DWIDTH 16 0
BBX 16 16 0 -2
BITMAP
7ffe
4102
5ffa
4102
4ff2
4102
7ffe
4002
4ff2
4812
4ff2
4812
4ff2
4812
4832
7ffe
ENDCHAR
STARTCHAR 23-07
ENCODING 14119
SWIDTH 1024 0
DWIDTH 16 0
BBX 16 16 0 -2
BITMAP
7ffe
4102
4912
4912
4ff2
4002
5ffa
4082
4102
5ffa
524a
524a
524a
525a
4002
7ffe
ENDCHAR
STARTCHAR 23-08
ENCODING 14120
SWIDTH 1024 0
DWIDTH 16 0
BBX 16 16 0 -2
BITMAP
7ffe
4142
4122
5ffa
4102
4ff2
4912
4ff2
4912
4ff2
4022
5ffa
4422
4222
4062
7ffe
ENDCHAR
STARTCHAR 23-09
ENCODING 14121
SWIDTH 1024 0
DWIDTH 16 0
BBX 16 16 0 -2
BITMAP
7ffe
4102
4ff2
4112
7ffe
4112
4ff2
4102
4ff2
4102
7ffe
4812
4ff2
4812
7ffe
0000
ENDCHAR
STARTCHAR 23-10
ENCODING 14122
SWIDTH 1024 0
DWIDTH 16 0
BBX 16 16 0 -2
BITMAP
7ffe
4102
4ff2
4912
4ff2
4102
7ffe
4812
4ff2
4812
4ff2
4812
4ff2
4422
4812
7ffe
ENDCHAR
STARTCHAR 23-11
ENCODING 14123
SWIDTH 1024 0
DWIDTH 16 0
BBX 16 16 0 -2
BITMAP
7ffe
4002
5ffa
524a
5ffa
4102
4ff2
4102
5ffa
4422
4ff2
4102
5ffa
4102
4102
7ffe
ENDCHAR
STARTCHAR 23-12
ENCODING 14124
SWIDTH 1024 0
DWIDTH 16 0
BBX 16 16 0 -2
BITMAP
ffff
8001
9109
9109
a3d1
a815
9189
a413
fdbf
940b
b3d9
de6f
9249
93c9
8001
ffff
ENDCHAR
STARTCHAR 23-13
ENCODING 14125
SWIDTH 1024 0
DWIDTH 16 0
BBX 16 16 0 -2
BITMAP
1040
1040
1040
1040
fe40
1040
1040
1040
1040
1040
1e40
f040
0040
0041
0063
003e
ENDCHAR
STARTCHAR 23-14
ENCODING 14126
SWIDTH 1024 0
DWIDTH 16 0
BBX 16 16 0 -2
BITMAP
1000
1000
13ff
1010
fc10
1010
1010
1010
1010
1010
1c10
f010
0010
0010
0010
0070
ENDCHAR
STARTCHAR 23-15
ENCODING 14127
SWIDTH 1024 0
DWIDTH 16 0
BBX 16 16 0 -2
BITMAP
0000
3ff8
0830
0660
03c0
0660
1c38
f10f
0100
0100
3ffc
0100
0100
0100
ffff
0000
ENDCHAR
STARTCHAR 23-16
ENCODING 14128
SWIDTH 1024 0
DWIDTH 16 0
BBX 16 16 0 -2
BITMAP
1040
1040
1040
1040
fe40
1040
1070
105c
1046
1043
1e40
f040
0040
0040
0040
0040
ENDCHAR
STARTCHAR 23-17
ENCODING 14129
SWIDTH 1024 0
DWIDTH 16 0
BBX 16 16 0 -2
BITMAP
0100
0100
0100
3ffc
0100
0100
0100
ffff
0440
0440
0440
0c40
0840
1841
3063
e03e
ENDCHAR
STARTCHAR 23-18
ENCODING 14130
SWIDTH 1024 0
DWIDTH 16 0
BBX 16 16 0 -2
BITMAP
2000
23fe
2020
2020
f820
2020
2020
27ff
2020
2020
3820
e020
0020
0020
0020
00e0
ENDCHAR
STARTCHAR 23-19
ENCODING 14131
SWIDTH 1024 0
DWIDTH 16 0
BBX 16 16 0 -2
BITMAP
2040
2040
2040
20ff
f980
2300
20fe
200c
2018
2030
3860
e040
00c0
0081
00c3
007e
ENDCHAR
STARTCHAR 23-20
ENCODING 14132
SWIDTH 1024 0
DWIDTH 16 0
BBX 16 16 0 -2
BITMAP
2000
21fe
2000
2000
f800
23ff
2080
2080
2080
21fe
3802
e002
0002
0006
0004
003c
ENDCHAR
STARTCHAR 23-21
ENCODING 14133
SWIDTH 1024 0
DWIDTH 16 0
BBX 16 16 0 -2
BITMAP
2000
21fe
2002
2002
f802
2002
21fe
2100
2100
2100
3900
e100
0101
0183
00fe
0000
ENDCHAR
STARTCHAR 23-22
ENCODING 14134
SWIDTH 1024 0
DWIDTH 16 0
BBX 16 16 0 -2
BITMAP
2000
21fe
2102
2102
f902
2102
21fe
2100
2100
2100
3900
e100
0101
0183
00fe
0000
ENDCHAR
STARTCHAR 23-23
ENCODING 14135
SWIDTH 1024 0
DWIDTH 16 0
BBX 16 16 0 -2
BITMAP
1002
1092
1092
1092
1092
fc92
1092
1092
1092
1092
1092
1c92
f092
0182
0102
0302
ENDCHAR
STARTCHAR 23-24
ENCODING 14136
SWIDTH 1024 0
DWIDTH 16 0
BBX 16 16 0 -2
BITMAP
2080
2080
2080
20fe
f982
2102
2302
20c2
2062
2022
3802
e002
0006
0004
000c
0038
ENDCHAR
STARTCHAR 23-25
ENCODING 14137
SWIDTH 1024 0
DWIDTH 16 0
BBX 16 16 0 -2
BITMAP
2100
2100
2100
21ff
2149
fb49
2249
2649
20c9
2099
3991
e331
0621
0063
00c2
000e
ENDCHAR
STARTCHAR 23-26
ENCODING 14138
SWIDTH 1024 0
DWIDTH 16 0
BBX 16 16 0 -2
BITMAP
2000
27f8
2108
2118
2110
f910
23bc
2284
22c4
224c
3a68
6238
c610
0438
046c
0dc7
ENDCHAR
STARTCHAR 23-27
ENCODING 14139
SWIDTH 1024 0
DWIDTH 16 0
BBX 16 16 0 -2
BITMAP
2020
2070
2050
20d8
f98c
238e
268b
2088
2088
2088
3888
e088
0188
0108
0308
0608
ENDCHAR
STARTCHAR 23-28
ENCODING 14140
SWIDTH 1024 0
DWIDTH 16 0
BBX 16 16 0 -2
BITMAP
2020
2070
2050
20d8
f98c
2306
26fb
2000
2000
21fc
3804
e00c
0008
0018
0010
0030
ENDCHAR
STARTCHAR 23-29
ENCODING 14141
SWIDTH 1024 0
DWIDTH 16 0
BBX 16 16 0 -2
BITMAP
2080
2080
2080
21ff
f904
2384
268c
20c8
2058
2070
3820
e070
00d8
018c
0306
0603
ENDCHAR
STARTCHAR 23-30
ENCODING 14142
SWIDTH 1024 0
DWIDTH 16 0
BBX 16 16 0 -2
BITMAP
0420
0c30
1818
300c
ffff
0208
0608
0c18
1810
7070
0100
0100
3ffc
0100
0100
ffff
ENDCHAR
STARTCHAR 23-31
ENCODING 14143
SWIDTH 1024 0
DWIDTH 16 0
BBX 16 16 0 -2
BITMAP
2000
21fc
2104
2104
f964
2134
2114
2104
27ff
2104
3904
e104
0104
0304
0204
061c
ENDCHAR
STARTCHAR 23-32
ENCODING 14144
SWIDTH 1024 0
DWIDTH 16 0
BBX 16 16 0 -2
BITMAP
2040
2040
2046
3e7c
2040
2041
2043
3e7e
e000
0100
0100
3ffc
0100
0100
ffff
0000
ENDCHAR
STARTCHAR 23-33
ENCODING 14145
SWIDTH 1024 0
DWIDTH 16 0
BBX 16 16 0 -2
BITMAP
2020
2222
2326
2124
f820
23fe
2020
2020
2020
27ff
3820
e020
0020
0020
0020
0020
ENDCHAR
STARTCHAR 23-34
ENCODING 14146
SWIDTH 1024 0
DWIDTH 16 0
BBX 16 16 0 -2
BITMAP
2000
21fc
2104
2104
f904
21fc
2104
2104
2104
21fc
3904
e104
0104
0104
07ff
0000
ENDCHAR
STARTCHAR 23-35
ENCODING 14147
SWIDTH 1024 0
DWIDTH 16 0
BBX 16 16 0 -2
BITMAP
2000
23ff
2020
2020
f820
2060
2040
207e
20c2
21c2
3b42
6042
8042
0042
0042
007e
ENDCHAR
STARTCHAR 23-36
ENCODING 14148
SWIDTH 1024 0
DWIDTH 16 0
BBX 16 16 0 -2
BITMAP
2020
2020
23ff
2201
fa0d
2038
23e0
2040
2040
27ff
2040
3840
e040
0041
0063
003e
ENDCHAR
STARTCHAR 23-37
ENCODING 14149
SWIDTH 1024 0
DWIDTH 16 0
BBX 16 16 0 -2
BITMAP
1020
1020
1020
1020
fc3f
1020
1020
1020
1020
11fe
1d02
f102
0102
0102
0102
01fe
ENDCHAR
STARTCHAR 23-38
ENCODING 14150
SWIDTH 1024 0
DWIDTH 16 0
BBX 16 16 0 -2
BITMAP
2000
23fe
2202
2202
fa02
23fe
2200
2240
2246
225c
3a70
6240
c640
0441
0c63
003e
ENDCHAR
STARTCHAR 23-39
ENCODING 14151
SWIDTH 1024 0
DWIDTH 16 0
BBX 16 16 0 -2
BITMAP
1040
1040
10c0
1084
fd84
113e
13e3
1000
1000
1000
1dfe
7102
c102
0102
0102
01fe
ENDCHAR
STARTCHAR 23-40
ENCODING 14152
SWIDTH 1024 0
DWIDTH 16 0
BBX 16 16 0 -2
BITMAP
2000
23ff
2010
2030
f820
2068
206c
20e4
21a6
2323
3820
e020
0020
0000
03ff
0000
ENDCHAR
STARTCHAR 23-41
ENCODING 14153
SWIDTH 1024 0
DWIDTH 16 0
BBX 16 16 0 -2
BITMAP
2000
23fe
2202
2202
fa02
22fa
228a
228a
228a
228a
3afa
e202
0202
0202
0202
020e
ENDCHAR
STARTCHAR 23-42
ENCODING 14154
SWIDTH 1024 0
DWIDTH 16 0
BBX 16 16 0 -2
BITMAP
2020
2020
2020
21fc
2124
f924
2124
2124
2124
27ff
2050
38d8
e088
018c
0306
0603
ENDCHAR
STARTCHAR 23-43
ENCODING 14155
SWIDTH 1024 0
DWIDTH 16 0
BBX 16 16 0 -2
BITMAP
2108
2108
2308
2208
f63f
2489
2689
2389
2109
2109
3b19
e251
0253
07f2
0c22
006e
ENDCHAR
STARTCHAR 23-44
ENCODING 14156
SWIDTH 1024 0
DWIDTH 16 0
BBX 16 16 0 -2
BITMAP
0100
0100
3ffc
0100
0100
7ffe
0420
0c20
193e
7100
0100
3ffc
0100
0100
ffff
0000
ENDCHAR
STARTCHAR 23-45
ENCODING 14157
SWIDTH 1024 0
DWIDTH 16 0
BBX 16 16 0 -2
BITMAP
2006
203c
21e0
2100
f900
2100
21fe
2108
2108
2108
3908
e108
0108
0108
0fff
0000
ENDCHAR
STARTCHAR 23-46
ENCODING 14158
SWIDTH 1024 0
DWIDTH 16 0
BBX 16 16 0 -2
BITMAP
2000
27ff
2004
2004
f9e4
2124
2124
2124
2124
2124
39e4
e004
0004
0004
0004
001c
ENDCHAR
STARTCHAR 23-47
ENCODING 14159
SWIDTH 1024 0
DWIDTH 16 0
BBX 16 16 0 -2
BITMAP
2020
2020
2020
23ff
fa01
2201
2249
2048
2048
2048
38cc
e084
0084
0186
0102
0303
ENDCHAR
STARTCHAR 23-48
ENCODING 14160
SWIDTH 1024 0
DWIDTH 16 0
BBX 16 16 0 -2
BITMAP
2048
204c
2044
23ff
f840
2040
2044
20e4
20ac
20a8
39b8
6110
c338
066c
00c6
0183
ENDCHAR
STARTCHAR 23-49
ENCODING 14161
SWIDTH 1024 0
DWIDTH 16 0
BBX 16 16 0 -2
BITMAP
2006
201c
21f0
2110
f910
2110
21ff
2110
2110
2118
3908
e1c8
070c
0005
07f7
0002
ENDCHAR
STARTCHAR 23-50
ENCODING 14162
SWIDTH 1024 0
DWIDTH 16 0
BBX 16 16 0 -2
BITMAP
1006
101c
11f0
1100
fd00
11ff
1108
1108
1138
110e
1d0b
7108
c308
0208
0608
0008
ENDCHAR
STARTCHAR 23-51
ENCODING 14163
SWIDTH 1024 0
DWIDTH 16 0
BBX 16 16 0 -2
BITMAP
2020
2020
23fe
2202
fa02
2000
27ff
2020
2020
2020
3820
e020
0020
0020
0020
00e0
ENDCHAR
STARTCHAR 23-52
ENCODING 14164
SWIDTH 1024 0
DWIDTH 16 0
BBX 16 16 0 -2
BITMAP
2080
2080
21fe
2120
fb20
2020
2020
23ff
2020
2020
3870
e050
00d8
018c
0306
0603
ENDCHAR
STARTCHAR 23-53
ENCODING 14165
SWIDTH 1024 0
DWIDTH 16 0
BBX 16 16 0 -2
BITMAP
2020
2020
2020
23fe
f800
2000
2104
2104
218c
2088
3888
e098
0010
0010
07ff
0000
ENDCHAR
STARTCHAR 23-54
ENCODING 14166
SWIDTH 1024 0
DWIDTH 16 0
BBX 16 16 0 -2
BITMAP
2000
23fe
2202
2202
fafa
2202
2202
22fa
228a
228a
3a8a
e2fa
0202
0202
0202
0206
ENDCHAR
STARTCHAR 23-55
ENCODING 14167
SWIDTH 1024 0
DWIDTH 16 0
BBX 16 16 0 -2
BITMAP
2000
27ff
2050
23fe
fa52
2292
231e
2202
23fe
2020
3820
e3fe
0020
0020
07ff
0000
ENDCHAR
STARTCHAR 23-56
ENCODING 14168
SWIDTH 1024 0
DWIDTH 16 0
BBX 16 16 0 -2
BITMAP
2090
2090
2492
2696
229c
fa90
2090
2090
239c
2696
2092
3890
e190
0111
0313
060e
ENDCHAR
STARTCHAR 23-57
ENCODING 14169
SWIDTH 1024 0
DWIDTH 16 0
BBX 16 16 0 -2
BITMAP
2020
2222
2326
2124
f924
2020
2020
27ff
2088
2088
3888
e088
0188
0109
0309
0607
ENDCHAR
STARTCHAR 23-58
ENCODING 14170
SWIDTH 1024 0
DWIDTH 16 0
BBX 16 16 0 -2
BITMAP
0100
0100
3ffc
0100
0100
0100
7ffe
0000
1010
1010
fefe
1010
1010
1e10
f1ff
0000
ENDCHAR
STARTCHAR 23-59
ENCODING 14171
SWIDTH 1024 0
DWIDTH 16 0
BBX 16 16 0 -2
BITMAP
2000
23fc
2024
2027
f861
20c1
2183
232e
2020
27ff
38a8
e1ac
0326
0623
0020
0020
ENDCHAR
STARTCHAR 23-60
ENCODING 14172
SWIDTH 1024 0
DWIDTH 16 0
BBX 16 16 0 -2
BITMAP
2080
20fc
2188
2110
fbff
2500
2100
217c
2144
2144
3944
e14c
0340
0241
0663
003e
ENDCHAR
STARTCHAR 23-61
ENCODING 14173
SWIDTH 1024 0
DWIDTH 16 0
BBX 16 16 0 -2
BITMAP
2020
2020
23ff
2201
220d
f838
23e0
2040
2040
27ff
2040
3840
e040
0041
0063
003e
ENDCHAR
STARTCHAR 23-62
ENCODING 14174
SWIDTH 1024 0
DWIDTH 16 0
BBX 16 16 0 -2
BITMAP
2104
218c
2088
23fe
f820
2020
2020
21fc
2020
2020
3820
e7ff
0020
0020
0020
0020
ENDCHAR
STARTCHAR 23-63
ENCODING 14175
SWIDTH 1024 0
DWIDTH 16 0
BBX 16 16 0 -2
BITMAP
0888
1884
37ff
e040
2044
206c
2038
20f1
279b
210e
0100
7ffe
0100
0100
ffff
0000
ENDCHAR
STARTCHAR 23-64
ENCODING 14176
SWIDTH 1024 0
DWIDTH 16 0
BBX 16 16 0 -2
BITMAP
000c
00f8
3f80
2000
3fff
2000
27fc
2404
2404
27fc
2000
2040
6ffe
4040
c040
1fff
ENDCHAR
STARTCHAR 23-65
ENCODING 14177
SWIDTH 1024 0
DWIDTH 16 0
BBX 16 16 0 -2
BITMAP
2020
2060
2040
23ff
fa01
2201
2279
2249
2249
2249
3a49
e279
0201
0201
0201
0207
ENDCHAR
STARTCHAR 23-66
ENCODING 14178
SWIDTH 1024 0
DWIDTH 16 0
BBX 16 16 0 -2
BITMAP
2020
2020
23ff
2201
fa01
2008
2008
23ff
2008
2008
3988
e0c8
0048
0008
0008
0038
ENDCHAR
STARTCHAR 23-67
ENCODING 14179
SWIDTH 1024 0
DWIDTH 16 0
BBX 16 16 0 -2
BITMAP
0000
7ffe
0240
2244
324c
1248
0240
ffff
0000
0100
0100
7ffe
0100
0100
ffff
0000
ENDCHAR
STARTCHAR 23-68
ENCODING 14180
SWIDTH 1024 0
DWIDTH 16 0
BBX 16 16 0 -2
BITMAP
2088
2088
2088
2088
fbfe
2088
2088
2088
2088
3888
e7ff
0000
0088
018c
0306
0603
ENDCHAR
STARTCHAR 23-69
ENCODING 14181
SWIDTH 1024 0
DWIDTH 16 0
BBX 16 16 0 -2
BITMAP
2020
2020
23fe
2202
fa02
21fc
2000
2000
27ff
2090
3890
e090
0190
0111
0313
060e
ENDCHAR
STARTCHAR 23-70
ENCODING 14182
SWIDTH 1024 0
DWIDTH 16 0
BBX 16 16 0 -2
BITMAP
300e
19f8
c100
6100
01ff
1910
7310
c210
0610
0100
0100
7ffe
0100
0100
ffff
0000
ENDCHAR
STARTCHAR 23-71
ENCODING 14183
SWIDTH 1024 0
DWIDTH 16 0
BBX 16 16 0 -2
BITMAP
2000
27fe
2004
2088
f850
23fe
2222
2222
23fe
2222
3a22
e3fe
0222
0222
0222
022e
ENDCHAR
STARTCHAR 23-72
ENCODING 14184
SWIDTH 1024 0
DWIDTH 16 0
BBX 16 16 0 -2
BITMAP
2080
2184
2104
23fe
f892
2190
231f
2680
20fc
2184
3b0c
e6d8
0070
00d8
018c
0707
ENDCHAR
STARTCHAR 23-73
ENCODING 14185
SWIDTH 1024 0
DWIDTH 16 0
BBX 16 16 0 -2
BITMAP
2040
2040
23fc
2204
fa04
23fc
2204
2204
23fc
2221
3a33
e216
0218
02cc
0386
0e03
ENDCHAR
STARTCHAR 23-74
ENCODING 14186
SWIDTH 1024 0
DWIDTH 16 0
BBX 16 16 0 -2
BITMAP
2002
278e
20b8
2088
f908
2128
23ae
20a8
22a8
22a8
3aa8
e3a8
017e
0100
03c0
067f
ENDCHAR
STARTCHAR 23-75
ENCODING 14187
SWIDTH 1024 0
DWIDTH 16 0
BBX 16 16 0 -2
BITMAP
2000
21fc
2104
2104
f904
21fc
2000
2000
23fe
2020
3820
e1fc
0020
0020
07ff
0000
ENDCHAR
STARTCHAR 23-76
ENCODING 14188
SWIDTH 1024 0
DWIDTH 16 0
BBX 16 16 0 -2
BITMAP
2020
2070
20d8
218c
fb07
20f8
2000
23fe
2004
200c
3868
e030
0296
0283
06c5
047c
ENDCHAR
STARTCHAR 23-77
ENCODING 14189
SWIDTH 1024 0
DWIDTH 16 0
BBX 16 16 0 -2
BITMAP
2020
2020
23fe
2202
fa02
21fc
2020
2020
2120
213e
3920
e120
0120
03a0
02e0
063f
ENDCHAR
STARTCHAR 23-78
ENCODING 14190
SWIDTH 1024 0
DWIDTH 16 0
BBX 16 16 0 -2
BITMAP
2020
2040
23fe
2222
fa22
23fe
2222
2222
23fe
2090
3910
e7ff
0010
0010
0010
0010
ENDCHAR
STARTCHAR 23-79
ENCODING 14191
SWIDTH 1024 0
DWIDTH 16 0
BBX 16 16 0 -2
BITMAP
2020
2020
23fe
2202
2202
f900
21de
2152
2352
2652
21d2
3896
e190
0111
0313
060e
ENDCHAR
STARTCHAR 23-80
ENCODING 14192
SWIDTH 1024 0
DWIDTH 16 0
BBX 16 16 0 -2
BITMAP
2000
21fc
2104
2104
f9fc
2104
2104
21fc
2104
2104
39fc
e000
07ff
0088
018c
0306
ENDCHAR
STARTCHAR 23-81
ENCODING 14193
SWIDTH 1024 0
DWIDTH 16 0
BBX 16 16 0 -2
BITMAP
2006
203c
23e2
2126
f894
23fe
2022
2022
27ff
2022
3822
e3fe
0020
0020
0020
00e0
ENDCHAR
STARTCHAR 23-82
ENCODING 14194
SWIDTH 1024 0
DWIDTH 16 0
BBX 16 16 0 -2
BITMAP
2040
2040
23fc
2044
27ff
f844
23fc
2040
2246
234c
2158
3860
e358
064c
0c47
00c0
ENDCHAR
STARTCHAR 23-83
ENCODING 14195
SWIDTH 1024 0
DWIDTH 16 0
BBX 16 16 0 -2
BITMAP
2006
203c
23e0
2042
fa66
2324
2100
2020
2020
27ff
38a8
e0a8
01ac
0326
0623
0020
ENDCHAR
STARTCHAR 23-84
ENCODING 14196
SWIDTH 1024 0
DWIDTH 16 0
BBX 16 16 0 -2
BITMAP
200c
2038
23e0
2020
fbfe
2124
2124
2124
27ff
2124
3924
e124
03fe
0020
0020
07ff
ENDCHAR
STARTCHAR 23-85
ENCODING 14197
SWIDTH 1024 0
DWIDTH 16 0
BBX 16 16 0 -2
BITMAP
1020
1020
7e20
1020
10fc
ff24
2424
24a4
c764
1024
1034
7e54
1054
1045
1ec5
f183
ENDCHAR
STARTCHAR 23-86
ENCODING 14198
SWIDTH 1024 0
DWIDTH 16 0
BBX 16 16 0 -2
BITMAP
2000
21fc
2104
2104
f9fc
2104
2104
21fc
2080
21ff
3b25
e66d
00c9
019b
0032
0006
ENDCHAR
STARTCHAR 23-87
ENCODING 14199
SWIDTH 1024 0
DWIDTH 16 0
BBX 16 16 0 -2
BITMAP
2000
21fc
2004
21fc
f804
21fc
2000
27ff
2421
2421
3bfe
e222
0222
0222
0226
0020
ENDCHAR
STARTCHAR 23-88
ENCODING 14200
SWIDTH 1024 0
DWIDTH 16 0
BBX 16 16 0 -2
BITMAP
0000
ffff
2200
3efe
2242
3e66
222c
2218
3e3c
e2e7
0100
7ffe
0100
0100
ffff
0000
ENDCHAR
STARTCHAR 23-89
ENCODING 14201
SWIDTH 1024 0
DWIDTH 16 0
BBX 16 16 0 -2
BITMAP
33fe
1a02
c3fe
6200
028c
1ab8
72e0
c681
0cc3
017e
0100
7ffe
0100
0100
ffff
0000
ENDCHAR
STARTCHAR 23-90
ENCODING 14202
SWIDTH 1024 0
DWIDTH 16 0
BBX 16 16 0 -2
BITMAP
1010
1010
feff
2020
3e3e
2222
2222
6666
4444
dddc
0100
7ffe
0100
0100
ffff
0000
ENDCHAR
STARTCHAR 23-91
ENCODING 14203
SWIDTH 1024 0
DWIDTH 16 0
BBX 16 16 0 -2
BITMAP
2040
20c0
239e
2202
fa02
23de
2202
2202
23fe
2090
3890
e090
0190
0111
0313
060e
ENDCHAR
STARTCHAR 23-92
ENCODING 14204
SWIDTH 1024 0
DWIDTH 16 0
BBX 16 16 0 -2
BITMAP
2000
23fe
2202
228a
fa52
2202
22fa
2222
2222
22aa
3aaa
e2aa
02fa
0202
0202
020e
ENDCHAR
STARTCHAR 23-93
ENCODING 14205
SWIDTH 1024 0
DWIDTH 16 0
BBX 16 16 0 -2
BITMAP
2020
2020
27ff
2040
2084
f8fe
2383
2000
21fc
2104
21fc
3904
e1fc
0104
0104
010c
ENDCHAR
STARTCHAR 23-94
ENCODING 14206
SWIDTH 1024 0
DWIDTH 16 0
BBX 16 16 0 -2
BITMAP
0000
27ff
2088
2088
2088
fb8e
2202
2202
2202
238e
2088
3888
e088
0088
07ff
0000
ENDCHAR
STARTCHAR 24-01
ENCODING 14369
SWIDTH 1024 0
DWIDTH 16 0
BBX 16 16 0 -2
BITMAP
0000
27fe
2402
2442
2442
fdfa
2442
2442
24f2
2492
2492
3c92
e4f2
0402
07fe
0000
ENDCHAR
STARTCHAR 24-02
ENCODING 14370
SWIDTH 1024 0
DWIDTH 16 0
BBX 16 16 0 -2
BITMAP
2080
20fc
2188
2318
2210
fbfe
2222
2222
2222
23fe
2090
389c
e196
0111
0313
0e0e
ENDCHAR
STARTCHAR 24-03
ENCODING 14371
SWIDTH 1024 0
DWIDTH 16 0
BBX 16 16 0 -2
BITMAP
2000
23fe
2000
21fc
2104
f904
21fc
2000
2000
23fe
3a22
6222
c3fe
0222
0222
03fe
ENDCHAR
STARTCHAR 24-04
ENCODING 14372
SWIDTH 1024 0
DWIDTH 16 0
BBX 16 16 0 -2
BITMAP
2124
2124
27ff
2124
2124
f93c
2100
21fe
2020
27ff
38a8
60a8
c1ac
0326
0623
0020
ENDCHAR
STARTCHAR 24-05
ENCODING 14373
SWIDTH 1024 0
DWIDTH 16 0
BBX 16 16 0 -2
BITMAP
0000
11fc
1004
11fc
f804
13ff
1040
10a2
1336
1854
7090
c338
0054
0092
0311
0060
ENDCHAR
STARTCHAR 24-06
ENCODING 14374
SWIDTH 1024 0
DWIDTH 16 0
BBX 16 16 0 -2
BITMAP
2100
217c
2104
2104
fbff
2200
2640
2a7e
2290
2210
3aff
6210
c238
0228
026c
02c7
ENDCHAR
STARTCHAR 24-07
ENCODING 14375
SWIDTH 1024 0
DWIDTH 16 0
BBX 16 16 0 -2
BITMAP
0210
2213
23de
2210
2210
fa11
23cf
2620
2040
23fe
3a02
6202
c3fe
0202
0202
03fe
ENDCHAR
STARTCHAR 24-08
ENCODING 14376
SWIDTH 1024 0
DWIDTH 16 0
BBX 16 16 0 -2
BITMAP
23ff
2010
2020
23ff
2249
fa49
2249
2249
2223
2020
3bff
6020
c020
0050
0088
0307
ENDCHAR
STARTCHAR 24-09
ENCODING 14377
SWIDTH 1024 0
DWIDTH 16 0
BBX 16 16 0 -2
BITMAP
2080
23fe
2202
2202
23fe
fa02
2202
23fe
2000
23fe
3820
6020
c3fe
0020
0020
07ff
ENDCHAR
STARTCHAR 24-10
ENCODING 14378
SWIDTH 1024 0
DWIDTH 16 0
BBX 16 16 0 -2
BITMAP
0000
7e7e
4242
7e42
4242
7e42
4042
4442
445e
5e40
f240
0100
0100
7ffe
0100
ffff
ENDCHAR
STARTCHAR 24-11
ENCODING 14379
SWIDTH 1024 0
DWIDTH 16 0
BBX 16 16 0 -2
BITMAP
001c
21f0
2020
27ff
2020
fbfe
2222
23fe
2222
2222
3bfe
6020
c3fe
0020
0020
07ff
ENDCHAR
STARTCHAR 24-12
ENCODING 14380
SWIDTH 1024 0
DWIDTH 16 0
BBX 16 16 0 -2
BITMAP
000a
2009
2009
23ff
2208
fae8
220a
22ea
22aa
22aa
3aae
62e4
c20d
061d
0437
0c62
ENDCHAR
STARTCHAR 24-13
ENCODING 14381
SWIDTH 1024 0
DWIDTH 16 0
BBX 16 16 0 -2
BITMAP
2020
2020
23ae
2070
fb56
2088
21fc
2707
2104
21fc
3904
e104
01fc
0104
0104
011c
ENDCHAR
STARTCHAR 24-14
ENCODING 14382
SWIDTH 1024 0
DWIDTH 16 0
BBX 16 16 0 -2
BITMAP
01fc
2104
2104
21fc
2104
f9fc
2000
27df
2041
234d
38c3
60c3
c145
0249
0451
01c7
ENDCHAR
STARTCHAR 24-15
ENCODING 14383
SWIDTH 1024 0
DWIDTH 16 0
BBX 16 16 0 -2
BITMAP
0040
7a44
4948
4840
4bfe
7890
4890
4fff
490c
7b26
4e23
49fc
4820
4820
c820
9bfe
ENDCHAR
STARTCHAR 24-16
ENCODING 14384
SWIDTH 1024 0
DWIDTH 16 0
BBX 16 16 0 -2
BITMAP
0020
2122
2122
21fe
2000
fbff
2000
21fe
2102
2102
39fe
e084
0084
0048
0048
03ff
ENDCHAR
STARTCHAR 24-17
ENCODING 14385
SWIDTH 1024 0
DWIDTH 16 0
BBX 16 16 0 -2
BITMAP
0020
2020
23fe
2020
21fc
f820
27ff
2040
2090
2124
38c2
e3ff
0021
0124
0124
0266
ENDCHAR
STARTCHAR 24-18
ENCODING 14386
SWIDTH 1024 0
DWIDTH 16 0
BBX 16 16 0 -2
BITMAP
0088
2088
2104
2643
2048
f884
21fe
2002
27df
2041
3b4d
e0c3
0145
0249
0451
01c7
ENDCHAR
STARTCHAR 24-19
ENCODING 14387
SWIDTH 1024 0
DWIDTH 16 0
BBX 16 16 0 -2
BITMAP
0810
0810
ffff
0810
7ffe
1040
3e46
e27c
3441
1843
e03e
0100
3ffc
0100
0100
ffff
ENDCHAR
STARTCHAR 24-20
ENCODING 14388
SWIDTH 1024 0
DWIDTH 16 0
BBX 16 16 0 -2
BITMAP
211e
21e0
2101
21ff
2000
f8fe
2282
22fe
2282
22fe
3a82
e2fe
0200
03ff
0102
0201
ENDCHAR
STARTCHAR 24-21
ENCODING 14389
SWIDTH 1024 0
DWIDTH 16 0
BBX 16 16 0 -2
BITMAP
11fe
1102
11fe
1000
11fe
fd02
1102
11fe
1102
11fe
1d02
7102
c1fe
0084
0186
0303
ENDCHAR
STARTCHAR 24-22
ENCODING 14390
SWIDTH 1024 0
DWIDTH 16 0
BBX 16 16 0 -2
BITMAP
0108
2198
2090
23fe
2088
f888
218c
2104
2306
2203
3dfc
e154
0154
0154
0154
07ff
ENDCHAR
STARTCHAR 24-23
ENCODING 14391
SWIDTH 1024 0
DWIDTH 16 0
BBX 16 16 0 -2
BITMAP
2088
2088
23fe
2088
f888
2088
27ff
2088
2104
2643
2040
3952
e153
0359
0648
00c0
ENDCHAR
STARTCHAR 24-24
ENCODING 14392
SWIDTH 1024 0
DWIDTH 16 0
BBX 16 16 0 -2
BITMAP
0000
23ff
2200
2200
2278
fa48
2278
2200
22ee
22aa
3aaa
62ee
c200
0200
03ff
0000
ENDCHAR
STARTCHAR 24-25
ENCODING 14393
SWIDTH 1024 0
DWIDTH 16 0
BBX 16 16 0 -2
BITMAP
0020
27ff
2020
23fe
2222
fbfe
2222
23fe
2021
23ff
3804
63ff
c004
0084
0044
001c
ENDCHAR
STARTCHAR 24-26
ENCODING 14394
SWIDTH 1024 0
DWIDTH 16 0
BBX 16 16 0 -2
BITMAP
0040
23fc
2244
27ff
fa44
23fc
2040
23fc
2244
23fc
3900
67ff
c110
03b0
00e0
07bf
ENDCHAR
STARTCHAR 24-27
ENCODING 14395
SWIDTH 1024 0
DWIDTH 16 0
BBX 16 16 0 -2
BITMAP
0000
23fe
2202
23fe
2210
fa92
2254
2292
2250
227e
3a90
6210
c3ff
0210
0610
0c10
ENDCHAR
STARTCHAR 24-28
ENCODING 14396
SWIDTH 1024 0
DWIDTH 16 0
BBX 16 16 0 -2
BITMAP
21f8
2108
21f8
2108
f9f8
2000
27fe
2492
27fe
2000
3bfc
6108
c0b0
0060
01d8
070e
ENDCHAR
STARTCHAR 24-29
ENCODING 14397
SWIDTH 1024 0
DWIDTH 16 0
BBX 16 16 0 -2
BITMAP
0020
2020
21fe
2084
2048
fbff
2000
21fe
2102
21fe
3902
61fe
c020
03ff
0020
0020
ENDCHAR
STARTCHAR 24-30
ENCODING 14398
SWIDTH 1024 0
DWIDTH 16 0
BBX 16 16 0 -2
BITMAP
2448
2448
2448
2fff
f449
27c9
2449
27c9
2449
2fe9
3549
6549
c551
0661
040b
03e6
ENDCHAR
STARTCHAR 24-31
ENCODING 14399
SWIDTH 1024 0
DWIDTH 16 0
BBX 16 16 0 -2
BITMAP
2020
27ff
2420
25fe
2422
ffff
2422
25fe
2420
25fe
3d22
65fe
c522
05fe
0d22
1926
ENDCHAR
STARTCHAR 24-32
ENCODING 14400
SWIDTH 1024 0
DWIDTH 16 0
BBX 16 16 0 -2
BITMAP
1020
7efc
1024
ff24
2424
ff64
1034
ff45
1085
1007
0100
7ffe
0100
0100
0100
ffff
ENDCHAR
STARTCHAR 24-33
ENCODING 14401
SWIDTH 1024 0
DWIDTH 16 0
BBX 16 16 0 -2
BITMAP
0020
2020
27ff
2400
2488
fc88
27ff
2488
2488
24f8
3c00
6552
c552
0d29
1929
0000
ENDCHAR
STARTCHAR 24-34
ENCODING 14402
SWIDTH 1024 0
DWIDTH 16 0
BBX 16 16 0 -2
BITMAP
0000
7efe
4248
7e48
42fe
7e18
4018
4428
4428
5e4a
f286
0100
3ffc
0100
0100
ffff
ENDCHAR
STARTCHAR 24-35
ENCODING 14403
SWIDTH 1024 0
DWIDTH 16 0
BBX 16 16 0 -2
BITMAP
0410
447e
45d2
7c5c
05f0
fc04
27ff
2484
24c4
6444
c41c
0100
3ffe
0100
0100
ffff
ENDCHAR
STARTCHAR 24-36
ENCODING 14404
SWIDTH 1024 0
DWIDTH 16 0
BBX 16 16 0 -2
BITMAP
2088
2088
27ff
2088
20f8
f820
23fe
2222
23fe
2020
23fe
3820
e3fe
0020
0020
07ff
ENDCHAR
STARTCHAR 24-37
ENCODING 14405
SWIDTH 1024 0
DWIDTH 16 0
BBX 16 16 0 -2
BITMAP
2020
2222
2222
23fe
2110
f920
23fe
2220
2620
23fe
3a20
6220
c3fe
0220
0220
03ff
ENDCHAR
STARTCHAR 24-38
ENCODING 14406
SWIDTH 1024 0
DWIDTH 16 0
BBX 16 16 0 -2
BITMAP
0020
2070
20d8
218c
2707
f9fc
2000
21fc
2104
21fc
3800
63fe
c222
03fe
0222
03fe
ENDCHAR
STARTCHAR 24-39
ENCODING 14407
SWIDTH 1024 0
DWIDTH 16 0
BBX 16 16 0 -2
BITMAP
2020
21fc
2020
23fe
2000
f904
27df
2104
21c4
271f
3800
67ff
c090
0091
0191
070f
ENDCHAR
STARTCHAR 24-40
ENCODING 14408
SWIDTH 1024 0
DWIDTH 16 0
BBX 16 16 0 -2
BITMAP
07df
2451
2451
27df
2000
fbfe
2222
23fe
2222
2222
3bfe
6020
c7ff
0020
0020
0020
ENDCHAR
STARTCHAR 24-41
ENCODING 14409
SWIDTH 1024 0
DWIDTH 16 0
BBX 16 16 0 -2
BITMAP
0102
2084
23ff
2020
21fe
f820
23ff
2122
20a4
23ff
3800
e1fe
0102
0102
0102
01fe
ENDCHAR
STARTCHAR 24-42
ENCODING 14410
SWIDTH 1024 0
DWIDTH 16 0
BBX 16 16 0 -2
BITMAP
01e4
2029
2352
208c
2703
f800
239c
2094
2395
2223
3b80
60ff
c0a2
0094
0188
0377
ENDCHAR
STARTCHAR 24-43
ENCODING 14411
SWIDTH 1024 0
DWIDTH 16 0
BBX 16 16 0 -2
BITMAP
000c
2038
27e0
2244
2148
ffff
2148
214c
2346
2643
3bfc
6244
c3fc
0244
0244
03fc
ENDCHAR
STARTCHAR 24-44
ENCODING 14412
SWIDTH 1024 0
DWIDTH 16 0
BBX 16 16 0 -2
BITMAP
2110
2110
2fd0
201f
27b2
f4a2
2792
2016
27d4
209c
3108
67c8
c11c
8114
0136
0723
ENDCHAR
STARTCHAR 24-45
ENCODING 14413
SWIDTH 1024 0
DWIDTH 16 0
BBX 16 16 0 -2
BITMAP
0004
21e8
2231
214a
2084
fb7b
2000
20fc
2084
2084
38fc
6000
c084
00cc
0048
03ff
ENDCHAR
STARTCHAR 24-46
ENCODING 14414
SWIDTH 1024 0
DWIDTH 16 0
BBX 16 16 0 -2
BITMAP
0100
2100
23ff
2754
2154
f954
27ff
2154
2154
2154
37ff
6000
c000
0154
0356
0653
ENDCHAR
STARTCHAR 24-47
ENCODING 14415
SWIDTH 1024 0
DWIDTH 16 0
BBX 16 16 0 -2
BITMAP
27c8
2248
f9bf
27c8
6158
719c
b92e
ad2b
2108
2308
0000
0100
3ffc
0100
0100
ffff
ENDCHAR
STARTCHAR 24-48
ENCODING 14416
SWIDTH 1024 0
DWIDTH 16 0
BBX 16 16 0 -2
BITMAP
083c
ffa4
0824
7f25
4947
7f00
497f
ffa2
0814
4908
7f77
0100
7ffe
0100
0100
ffff
ENDCHAR
STARTCHAR 24-49
ENCODING 14417
SWIDTH 1024 0
DWIDTH 16 0
BBX 16 16 0 -2
BITMAP
7f3c
4124
7f24
5225
7f47
5200
52ff
7f42
5424
5218
a177
0100
7ffe
0100
0100
ffff
ENDCHAR
STARTCHAR 24-50
ENCODING 14418
SWIDTH 1024 0
DWIDTH 16 0
BBX 16 16 0 -2
BITMAP
0020
27ff
2000
23fe
2202
fafa
228a
22fa
2202
23fe
3800
61fc
c020
07ff
0124
0623
ENDCHAR
STARTCHAR 24-51
ENCODING 14419
SWIDTH 1024 0
DWIDTH 16 0
BBX 16 16 0 -2
BITMAP
420f
2fb0
0220
8fbf
4aa4
0fa4
2aa4
2fa4
4224
4fa4
8244
0100
3ffc
0100
0100
ffff
ENDCHAR
STARTCHAR 24-52
ENCODING 14420
SWIDTH 1024 0
DWIDTH 16 0
BBX 16 16 0 -2
BITMAP
000e
23f8
2020
27ff
2020
fbfe
2222
23fe
2222
23fe
3820
e3fe
0020
07ff
0292
0449
ENDCHAR
STARTCHAR 24-53
ENCODING 14421
SWIDTH 1024 0
DWIDTH 16 0
BBX 16 16 0 -2
BITMAP
ffff
1108
2104
7ffe
d52b
4912
552a
4102
552a
4912
552a
0100
3ffc
0100
0100
ffff
ENDCHAR
STARTCHAR 24-54
ENCODING 14422
SWIDTH 1024 0
DWIDTH 16 0
BBX 16 16 0 -2
BITMAP
2104
27ff
2104
2020
23fe
f820
27ff
2080
2104
23fe
3802
63fe
c252
0252
0252
07ff
ENDCHAR
STARTCHAR 24-55
ENCODING 14423
SWIDTH 1024 0
DWIDTH 16 0
BBX 16 16 0 -2
BITMAP
0020
23fe
2020
21fc
2000
fbfe
2002
20fa
2020
21fc
3800
e7ff
0004
03ff
02a4
038c
ENDCHAR
STARTCHAR 24-56
ENCODING 14424
SWIDTH 1024 0
DWIDTH 16 0
BBX 16 16 0 -2
BITMAP
0000
27ff
2020
27ff
2421
fdad
2421
25ad
2421
2000
3fff
e040
07ff
0491
0491
0497
ENDCHAR
STARTCHAR 24-57
ENCODING 14425
SWIDTH 1024 0
DWIDTH 16 0
BBX 16 16 0 -2
BITMAP
0040
207e
2040
23ff
2221
fafc
2221
22ff
2292
22fe
3a92
e2fe
0200
02fe
06aa
0dff
ENDCHAR
STARTCHAR 24-58
ENCODING 14426
SWIDTH 1024 0
DWIDTH 16 0
BBX 16 16 0 -2
BITMAP
0010
247e
2652
227e
2010
f8ff
2000
267e
2242
227e
3a42
627e
c242
027e
0681
09ff
ENDCHAR
STARTCHAR 24-59
ENCODING 14427
SWIDTH 1024 0
DWIDTH 16 0
BBX 16 16 0 -2
BITMAP
0800
0f7f
0821
ff92
8094
1e08
4114
bea3
4108
ffc8
4108
7f7f
4108
7f08
4108
7f7f
ENDCHAR
STARTCHAR 24-60
ENCODING 14428
SWIDTH 1024 0
DWIDTH 16 0
BBX 16 16 0 -2
BITMAP
0000
27ff
2400
24e7
279c
fc84
27ff
258c
26d6
24a5
3ca4
6420
c53c
0d20
0920
1bff
ENDCHAR
STARTCHAR 24-61
ENCODING 14429
SWIDTH 1024 0
DWIDTH 16 0
BBX 16 16 0 -2
BITMAP
23fe
2020
27ff
2421
25ad
f421
25ad
2280
27df
2291
37df
6551
c7df
0111
07d1
0123
ENDCHAR
STARTCHAR 24-62
ENCODING 14430
SWIDTH 1024 0
DWIDTH 16 0
BBX 16 16 0 -2
BITMAP
0100
0100
ffff
0100
0100
3ffc
0000
ffff
8001
9ff1
8001
0fe0
0820
0822
1022
601e
ENDCHAR
STARTCHAR 24-63
ENCODING 14431
SWIDTH 1024 0
DWIDTH 16 0
BBX 16 16 0 -2
BITMAP
0200
0200
07f0
1c10
6820
06c0
0380
1ef8
f04f
0040
3ffc
0440
0440
3ffc
0040
0040
ENDCHAR
STARTCHAR 24-64
ENCODING 14432
SWIDTH 1024 0
DWIDTH 16 0
BBX 16 16 0 -2
BITMAP
0200
0200
07f0
1c10
6860
06c0
0380
1cf0
e10f
1ff8
0100
1ff8
0100
3ffc
0100
0100
ENDCHAR
STARTCHAR 24-65
ENCODING 14433
SWIDTH 1024 0
DWIDTH 16 0
BBX 16 16 0 -2
BITMAP
0200
0620
0c30
3fd8
000c
0640
1c62
703e
0200
07f0
0c30
3860
00c0
03e0
1e38
f00f
ENDCHAR
STARTCHAR 24-66
ENCODING 14434
SWIDTH 1024 0
DWIDTH 16 0
BBX 16 16 0 -2
BITMAP
0100
3ffc
0100
0100
ffff
0420
1c30
f01f
0200
07f0
0c30
3860
00c0
03e0
1e38
f00f
ENDCHAR
STARTCHAR 24-67
ENCODING 14435
SWIDTH 1024 0
DWIDTH 16 0
BBX 16 16 0 -2
BITMAP
0000
ffff
1100
13de
5e52
53d2
525e
53d1
7e51
c3cf
0c30
0400
1ff8
f460
03c0
fc3f
ENDCHAR
STARTCHAR 24-68
ENCODING 14436
SWIDTH 1024 0
DWIDTH 16 0
BBX 16 16 0 -2
BITMAP
1000
37ee
6102
47e2
742e
47e2
4422
47e2
742e
07e4
3c3c
0400
1ff8
f460
03c0
fc3f
ENDCHAR
STARTCHAR 24-69
ENCODING 14437
SWIDTH 1024 0
DWIDTH 16 0
BBX 16 16 0 -2
BITMAP
0810
0420
ffff
1100
13de
5e52
53de
5250
5fd1
f24f
0c30
0400
1ff8
f460
03c0
fc3f
ENDCHAR
STARTCHAR 24-70
ENCODING 14438
SWIDTH 1024 0
DWIDTH 16 0
BBX 16 16 0 -2
BITMAP
0420
ffff
0420
ffff
1100
13de
5e52
53de
5e51
f3cf
0c30
0400
1ff8
f460
03c0
fc3f
ENDCHAR
STARTCHAR 24-71
ENCODING 14439
SWIDTH 1024 0
DWIDTH 16 0
BBX 16 16 0 -2
BITMAP
2010
2090
3c90
2490
24fe
6590
4510
e410
b410
1cfe
0810
1810
3010
6010
c1ff
0000
ENDCHAR
STARTCHAR 24-72
ENCODING 14440
SWIDTH 1024 0
DWIDTH 16 0
BBX 16 16 0 -2
BITMAP
1010
1f10
3110
62fe
b610
1c10
0810
307c
df00
3100
62fe
b682
1c82
0882
3082
e0fe
ENDCHAR
STARTCHAR 24-73
ENCODING 14441
SWIDTH 1024 0
DWIDTH 16 0
BBX 16 16 0 -2
BITMAP
0100
7ffe
0420
08f0
3f9c
0000
3ffc
2244
ffff
8201
87f9
1c30
3260
01c0
0700
3c00
ENDCHAR
STARTCHAR 24-74
ENCODING 14442
SWIDTH 1024 0
DWIDTH 16 0
BBX 16 16 0 -2
BITMAP
07f8
0e18
3b70
01c0
0680
ffff
8001
8ff9
0080
1ffc
1084
1ffc
1084
1ffc
0220
3c1e
ENDCHAR
STARTCHAR 24-75
ENCODING 14443
SWIDTH 1024 0
DWIDTH 16 0
BBX 16 16 0 -2
BITMAP
0800
0800
1800
1000
1f80
0080
0080
ffff
0240
0240
0660
0420
0c30
1818
300c
e007
ENDCHAR
STARTCHAR 24-76
ENCODING 14444
SWIDTH 1024 0
DWIDTH 16 0
BBX 16 16 0 -2
BITMAP
0100
0100
0100
ffff
0660
0c30
391c
e107
0100
3ffc
0104
0304
0204
0604
0c0c
3838
ENDCHAR
STARTCHAR 24-77
ENCODING 14445
SWIDTH 1024 0
DWIDTH 16 0
BBX 16 16 0 -2
BITMAP
0100
0100
0100
ffff
0660
0c30
381c
e007
0810
0810
0810
0810
1810
1010
3010
6010
ENDCHAR
STARTCHAR 24-78
ENCODING 14446
SWIDTH 1024 0
DWIDTH 16 0
BBX 16 16 0 -2
BITMAP
0100
0100
0100
ffff
0660
0c30
1818
300c
e007
1ff8
0000
0000
0000
0000
7ffe
0000
ENDCHAR
STARTCHAR 24-79
ENCODING 14447
SWIDTH 1024 0
DWIDTH 16 0
BBX 16 16 0 -2
BITMAP
0100
0100
0100
ffff
0660
0c30
1818
310c
e107
0100
1110
1110
3118
210c
6106
0700
ENDCHAR
STARTCHAR 24-80
ENCODING 14448
SWIDTH 1024 0
DWIDTH 16 0
BBX 16 16 0 -2
BITMAP
1010
1010
1010
1010
1010
feff
1010
3838
2828
2828
2828
2c2c
6464
4444
c6c6
8283
ENDCHAR
STARTCHAR 24-81
ENCODING 14449
SWIDTH 1024 0
DWIDTH 16 0
BBX 16 16 0 -2
BITMAP
0100
0100
0100
ffff
0660
0c30
381c
fff7
1110
1110
1ff0
1000
1004
1004
180c
0ff8
ENDCHAR
STARTCHAR 24-82
ENCODING 14450
SWIDTH 1024 0
DWIDTH 16 0
BBX 16 16 0 -2
BITMAP
0100
0100
ffff
0660
0c30
381c
e1e7
1f00
1040
1ffc
1040
1060
1f20
7032
001e
7f0c
ENDCHAR
STARTCHAR 24-83
ENCODING 14451
SWIDTH 1024 0
DWIDTH 16 0
BBX 16 16 0 -2
BITMAP
0100
0100
0100
ffff
0660
0c30
1818
3ffc
f007
1000
1ff0
1010
1ff0
1000
1000
1ffc
ENDCHAR
STARTCHAR 24-84
ENCODING 14452
SWIDTH 1024 0
DWIDTH 16 0
BBX 16 16 0 -2
BITMAP
0100
0100
0100
ffff
0660
0c30
391c
e107
1ff8
0200
0cc8
1998
0730
1c60
01d8
3f0e
ENDCHAR
STARTCHAR 24-85
ENCODING 14453
SWIDTH 1024 0
DWIDTH 16 0
BBX 16 16 0 -2
BITMAP
0100
0100
ffff
0660
0c30
391c
e3e7
0e20
0140
1f80
00fc
0384
3d08
0090
00e0
3f00
ENDCHAR
STARTCHAR 24-86
ENCODING 14454
SWIDTH 1024 0
DWIDTH 16 0
BBX 16 16 0 -2
BITMAP
0200
0610
0c10
3ff8
010c
ffff
0380
0ee0
3838
dfff
1108
1ff8
1108
1ff9
0101
00ff
ENDCHAR
STARTCHAR 24-87
ENCODING 14455
SWIDTH 1024 0
DWIDTH 16 0
BBX 16 16 0 -2
BITMAP
0100
0100
ffff
0660
0c30
381c
e0ff
3e84
2284
22fc
3e84
22fc
2284
3e84
0184
031c
ENDCHAR
STARTCHAR 24-88
ENCODING 14456
SWIDTH 1024 0
DWIDTH 16 0
BBX 16 16 0 -2
BITMAP
0100
0100
ffff
03c0
0e70
f81f
1ffc
1084
13e4
1084
17f4
1004
13e4
3224
23e4
601c
ENDCHAR
STARTCHAR 24-89
ENCODING 14457
SWIDTH 1024 0
DWIDTH 16 0
BBX 16 16 0 -2
BITMAP
0100
0100
ffff
0660
0c30
381c
e447
0880
1ffc
3080
5ff8
1080
1ff8
1080
1080
1ffc
ENDCHAR
STARTCHAR 24-90
ENCODING 14458
SWIDTH 1024 0
DWIDTH 16 0
BBX 16 16 0 -2
BITMAP
0100
0100
ffff
0660
0c30
381c
feff
2284
2284
3efc
2284
3efc
2284
2284
6284
ce9c
ENDCHAR
STARTCHAR 24-91
ENCODING 14459
SWIDTH 1024 0
DWIDTH 16 0
BBX 16 16 0 -2
BITMAP
0000
7ffc
0200
1ff8
1008
1ff8
1008
1008
1ff8
0100
ffff
0420
2424
6424
4c24
18e0
ENDCHAR
STARTCHAR 24-92
ENCODING 14460
SWIDTH 1024 0
DWIDTH 16 0
BBX 16 16 0 -2
BITMAP
0000
3ffc
0100
ffff
0280
0ee0
f01f
00fc
7c84
4484
44fc
7c84
44fc
4484
7d84
031c
ENDCHAR
STARTCHAR 24-93
ENCODING 14461
SWIDTH 1024 0
DWIDTH 16 0
BBX 16 16 0 -2
BITMAP
0100
0100
ffff
1c70
f01f
0492
6492
379e
1402
c7fe
6402
179e
3492
2492
6c92
c892
ENDCHAR
STARTCHAR 24-94
ENCODING 14462
SWIDTH 1024 0
DWIDTH 16 0
BBX 16 16 0 -2
BITMAP
0100
0100
ffff
0100
7d7c
2120
7d7c
4544
7d7c
4544
4544
7ffc
0280
06c0
1c70
f01f
ENDCHAR
STARTCHAR 25-01
ENCODING 14625
SWIDTH 1024 0
DWIDTH 16 0
BBX 16 16 0 -2
BITMAP
0080
0080
ffff
1c38
e087
10f8
1080
ffff
0014
7ffe
4010
5f1c
4409
551d
d537
8ce2
ENDCHAR
STARTCHAR 25-02
ENCODING 14626
SWIDTH 1024 0
DWIDTH 16 0
BBX 16 16 0 -2
BITMAP
1000
ff77
2655
53f7
9100
7e7f
1849
ff7f
30c9
7e7f
e208
3eff
2208
3e08
2208
3e08
ENDCHAR
STARTCHAR 25-03
ENCODING 14627
SWIDTH 1024 0
DWIDTH 16 0
BBX 16 16 0 -2
BITMAP
1000
1000
13ff
1010
fe10
2210
2210
2210
6210
4610
4410
fc10
0e10
1a10
3010
e070
ENDCHAR
STARTCHAR 25-04
ENCODING 14628
SWIDTH 1024 0
DWIDTH 16 0
BBX 16 16 0 -2
BITMAP
1000
13f8
1088
1088
fc88
2488
2488
248f
6481
4c81
4881
f981
1503
3302
6302
c60e
ENDCHAR
STARTCHAR 25-05
ENCODING 14629
SWIDTH 1024 0
DWIDTH 16 0
BBX 16 16 0 -2
BITMAP
1010
1010
1090
1096
fc9e
24f2
2792
2492
6496
4c90
4890
fc90
1480
3081
60c3
c07e
ENDCHAR
STARTCHAR 25-06
ENCODING 14630
SWIDTH 1024 0
DWIDTH 16 0
BBX 16 16 0 -2
BITMAP
1010
1010
1010
1010
fefe
2222
2222
2222
6262
4646
4444
fcfc
0e0e
1b1b
3030
e0e0
ENDCHAR
STARTCHAR 25-07
ENCODING 14631
SWIDTH 1024 0
DWIDTH 16 0
BBX 16 16 0 -2
BITMAP
1006
103c
11e0
1020
fc20
2420
27ff
2420
6420
4c20
4820
fc20
1420
3021
6033
c01e
ENDCHAR
STARTCHAR 25-08
ENCODING 14632
SWIDTH 1024 0
DWIDTH 16 0
BBX 16 16 0 -2
BITMAP
1020
1020
1020
1020
fdfe
2420
2420
2420
65ff
4c20
4870
fc50
14d8
3088
618c
c307
ENDCHAR
STARTCHAR 25-09
ENCODING 14633
SWIDTH 1024 0
DWIDTH 16 0
BBX 16 16 0 -2
BITMAP
1044
1044
1044
1044
fdff
2444
2444
2444
6444
4dff
4844
fc44
14c4
3084
6184
c304
ENDCHAR
STARTCHAR 25-10
ENCODING 14634
SWIDTH 1024 0
DWIDTH 16 0
BBX 16 16 0 -2
BITMAP
1010
1038
1028
1028
fc6c
2444
24c6
2583
6444
4c44
4844
fc44
1444
30c4
6084
c184
ENDCHAR
STARTCHAR 25-11
ENCODING 14635
SWIDTH 1024 0
DWIDTH 16 0
BBX 16 16 0 -2
BITMAP
1000
11ff
1000
1000
fcff
2481
2481
2481
64ff
4c80
4880
fc80
1480
3180
6100
c300
ENDCHAR
STARTCHAR 25-12
ENCODING 14636
SWIDTH 1024 0
DWIDTH 16 0
BBX 16 16 0 -2
BITMAP
1010
1010
1010
1010
fdff
2511
2511
2511
6511
4dff
4810
fc10
1410
3010
6010
c010
ENDCHAR
STARTCHAR 25-13
ENCODING 14637
SWIDTH 1024 0
DWIDTH 16 0
BBX 16 16 0 -2
BITMAP
1020
1020
1070
1050
fcd8
258c
27f7
2400
6400
4dfc
4804
fc0c
1408
3018
6010
c030
ENDCHAR
STARTCHAR 25-14
ENCODING 14638
SWIDTH 1024 0
DWIDTH 16 0
BBX 16 16 0 -2
BITMAP
0000
1ff8
1008
1008
1ff8
1008
1008
1ff8
0200
0200
ffff
0830
1e60
03c0
0e70
781e
ENDCHAR
STARTCHAR 25-15
ENCODING 14639
SWIDTH 1024 0
DWIDTH 16 0
BBX 16 16 0 -2
BITMAP
1000
11fe
1006
1068
fc30
2418
27ff
2411
6411
4c11
4817
fc10
1410
3010
e010
8070
ENDCHAR
STARTCHAR 25-16
ENCODING 14640
SWIDTH 1024 0
DWIDTH 16 0
BBX 16 16 0 -2
BITMAP
1000
11fe
1000
1000
fc00
2400
27ff
2448
6448
4c48
4848
fc48
14c9
3089
6189
c307
ENDCHAR
STARTCHAR 25-17
ENCODING 14641
SWIDTH 1024 0
DWIDTH 16 0
BBX 16 16 0 -2
BITMAP
1048
104c
1044
13ff
fc40
2440
2444
24e4
64ac
4ca8
49b8
fd10
1338
366c
60c6
c183
ENDCHAR
STARTCHAR 25-18
ENCODING 14642
SWIDTH 1024 0
DWIDTH 16 0
BBX 16 16 0 -2
BITMAP
1000
10fe
1082
1082
fc82
24fe
2480
24a0
64a0
4ca6
48b8
fca0
15a1
3121
6321
c61f
ENDCHAR
STARTCHAR 25-19
ENCODING 14643
SWIDTH 1024 0
DWIDTH 16 0
BBX 16 16 0 -2
BITMAP
1010
1010
1010
1010
fdff
2511
2511
2511
6511
4dff
4911
fd11
1511
3111
61ff
c000
ENDCHAR
STARTCHAR 25-20
ENCODING 14644
SWIDTH 1024 0
DWIDTH 16 0
BBX 16 16 0 -2
BITMAP
1080
1080
1080
10ff
fda0
2520
2520
243e
6420
4c20
4820
fc3e
1420
3020
6020
c020
ENDCHAR
STARTCHAR 25-21
ENCODING 14645
SWIDTH 1024 0
DWIDTH 16 0
BBX 16 16 0 -2
BITMAP
1080
1080
1080
10ff
fd90
2710
2410
2410
6492
4c92
4892
fd93
1511
3010
6010
c070
ENDCHAR
STARTCHAR 25-22
ENCODING 14646
SWIDTH 1024 0
DWIDTH 16 0
BBX 16 16 0 -2
BITMAP
1010
1090
1090
10fe
fd90
2510
2410
25ff
6410
4c10
4838
fc28
146c
3044
60c6
c183
ENDCHAR
STARTCHAR 25-23
ENCODING 14647
SWIDTH 1024 0
DWIDTH 16 0
BBX 16 16 0 -2
BITMAP
1020
1020
1020
13ff
fc20
2420
2420
25fe
64a8
4ca8
48a8
fdac
1524
3326
6223
c020
ENDCHAR
STARTCHAR 25-24
ENCODING 14648
SWIDTH 1024 0
DWIDTH 16 0
BBX 16 16 0 -2
BITMAP
1060
1030
1010
1044
fc44
244c
2548
2548
6558
4d56
4b73
fa61
1440
31c2
6766
c03c
ENDCHAR
STARTCHAR 25-25
ENCODING 14649
SWIDTH 1024 0
DWIDTH 16 0
BBX 16 16 0 -2
BITMAP
1080
1080
1080
11ff
fd01
2701
24f9
2489
6489
4c89
4889
fcf9
1401
3001
6003
c00e
ENDCHAR
STARTCHAR 25-26
ENCODING 14650
SWIDTH 1024 0
DWIDTH 16 0
BBX 16 16 0 -2
BITMAP
1000
13fe
1020
1020
fc20
2520
2520
253e
6520
4d20
4920
fd20
1520
3120
67ff
c000
ENDCHAR
STARTCHAR 25-27
ENCODING 14651
SWIDTH 1024 0
DWIDTH 16 0
BBX 16 16 0 -2
BITMAP
1000
11fe
1102
1102
fd02
25fe
2510
2510
65ff
4d10
4910
fd18
1508
316d
61c7
c302
ENDCHAR
STARTCHAR 25-28
ENCODING 14652
SWIDTH 1024 0
DWIDTH 16 0
BBX 16 16 0 -2
BITMAP
1020
1070
1058
10cc
fd86
2703
24fc
2400
6400
4dfe
4822
fc22
1422
302e
6020
c020
ENDCHAR
STARTCHAR 25-29
ENCODING 14653
SWIDTH 1024 0
DWIDTH 16 0
BBX 16 16 0 -2
BITMAP
1020
1020
1020
11fe
fd20
2520
2520
2520
65ff
4c21
4861
fc61
14a1
3121
6223
c026
ENDCHAR
STARTCHAR 25-30
ENCODING 14654
SWIDTH 1024 0
DWIDTH 16 0
BBX 16 16 0 -2
BITMAP
1000
11fe
1152
1152
fd52
2552
2552
27ff
6552
4d52
4952
f952
1552
3152
6352
c656
ENDCHAR
STARTCHAR 25-31
ENCODING 14655
SWIDTH 1024 0
DWIDTH 16 0
BBX 16 16 0 -2
BITMAP
1002
1102
1102
1102
fd02
2562
2532
2512
6502
4d06
4924
fd44
158e
319a
6333
c061
ENDCHAR
STARTCHAR 25-32
ENCODING 14656
SWIDTH 1024 0
DWIDTH 16 0
BBX 16 16 0 -2
BITMAP
1020
10a0
10a0
11fe
fd20
2720
2420
27ff
64a8
4ca8
49ac
fd24
1526
3323
6020
c020
ENDCHAR
STARTCHAR 25-33
ENCODING 14657
SWIDTH 1024 0
DWIDTH 16 0
BBX 16 16 0 -2
BITMAP
1010
1010
1010
11ff
fc10
2410
2410
25ff
6400
4c00
48fe
7c82
1482
3082
6082
c0fe
ENDCHAR
STARTCHAR 25-34
ENCODING 14658
SWIDTH 1024 0
DWIDTH 16 0
BBX 16 16 0 -2
BITMAP
2020
2020
2020
23ff
fc40
24c0
2588
24d8
6430
4c64
48cc
fb98
1430
306c
60c6
c383
ENDCHAR
STARTCHAR 25-35
ENCODING 14659
SWIDTH 1024 0
DWIDTH 16 0
BBX 16 16 0 -2
BITMAP
1020
1020
1020
13ff
fc88
258c
2706
268b
6488
4cd8
4870
fc20
1470
30d8
618c
c307
ENDCHAR
STARTCHAR 25-36
ENCODING 14660
SWIDTH 1024 0
DWIDTH 16 0
BBX 16 16 0 -2
BITMAP
1006
101c
11f0
1100
fd00
25ff
2500
2500
6500
4d7e
4942
fd42
1542
3142
6342
c67e
ENDCHAR
STARTCHAR 25-37
ENCODING 14661
SWIDTH 1024 0
DWIDTH 16 0
BBX 16 16 0 -2
BITMAP
1000
107f
ff08
2208
4208
fc08
1b08
e0ff
1008
ff08
2208
6208
4608
fc08
1b08
f108
ENDCHAR
STARTCHAR 25-38
ENCODING 14662
SWIDTH 1024 0
DWIDTH 16 0
BBX 16 16 0 -2
BITMAP
1000
11fe
1000
1000
fcfc
2484
2484
24fc
6484
4c84
4884
fcfc
1400
3000
63ff
c000
ENDCHAR
STARTCHAR 25-39
ENCODING 14663
SWIDTH 1024 0
DWIDTH 16 0
BBX 16 16 0 -2
BITMAP
1020
1122
11a6
10a4
fca4
2420
2420
27ff
6448
4c48
4848
fc48
14c8
3089
6189
c307
ENDCHAR
STARTCHAR 25-40
ENCODING 14664
SWIDTH 1024 0
DWIDTH 16 0
BBX 16 16 0 -2
BITMAP
1020
1020
13ff
1048
fccc
2787
2478
2400
65fe
4c20
4840
fcfe
1402
3002
6006
c01c
ENDCHAR
STARTCHAR 25-41
ENCODING 14665
SWIDTH 1024 0
DWIDTH 16 0
BBX 16 16 0 -2
BITMAP
1010
1010
11ff
1101
fd45
2444
25ff
2444
64c4
4c84
4884
fccc
1468
3038
606c
c1c7
ENDCHAR
STARTCHAR 25-42
ENCODING 14666
SWIDTH 1024 0
DWIDTH 16 0
BBX 16 16 0 -2
BITMAP
7f82
0822
1f22
3122
6b22
0622
0c02
780e
0200
ffff
0410
0830
1f60
01c0
0778
7c0e
ENDCHAR
STARTCHAR 25-43
ENCODING 14667
SWIDTH 1024 0
DWIDTH 16 0
BBX 16 16 0 -2
BITMAP
1020
1020
13ff
1040
fc40
24fe
2582
2682
64fe
4c82
4882
fcfe
1482
3082
6082
c08e
ENDCHAR
STARTCHAR 25-44
ENCODING 14668
SWIDTH 1024 0
DWIDTH 16 0
BBX 16 16 0 -2
BITMAP
100a
100b
1009
1008
fdff
2408
2448
2448
65f9
4c4b
484a
fcce
1484
318d
6317
c062
ENDCHAR
STARTCHAR 25-45
ENCODING 14669
SWIDTH 1024 0
DWIDTH 16 0
BBX 16 16 0 -2
BITMAP
1110
1930
0540
7ffe
0540
0d60
1930
711e
0200
ffff
0410
0830
1f60
01c0
0770
7c1e
ENDCHAR
STARTCHAR 25-46
ENCODING 14670
SWIDTH 1024 0
DWIDTH 16 0
BBX 16 16 0 -2
BITMAP
1000
11fe
1122
1122
fdfe
2522
2522
25fe
6420
4c20
4820
fdfe
1420
3020
6020
c3ff
ENDCHAR
STARTCHAR 25-47
ENCODING 14671
SWIDTH 1024 0
DWIDTH 16 0
BBX 16 16 0 -2
BITMAP
4024
4026
4022
47ff
f420
5420
57a2
54b2
d496
9494
b49c
e488
249c
75b5
5c67
c8c2
ENDCHAR
STARTCHAR 25-48
ENCODING 14672
SWIDTH 1024 0
DWIDTH 16 0
BBX 16 16 0 -2
BITMAP
081c
08f0
fe80
08ff
0a88
1c88
e888
0888
0a08
ffff
0410
0830
1f60
01c0
0770
7c1e
ENDCHAR
STARTCHAR 25-49
ENCODING 14673
SWIDTH 1024 0
DWIDTH 16 0
BBX 16 16 0 -2
BITMAP
1080
1080
11ff
1100
ff00
24fe
2492
2492
6492
4fff
4922
fd22
1522
31ff
6004
c00c
ENDCHAR
STARTCHAR 25-50
ENCODING 14674
SWIDTH 1024 0
DWIDTH 16 0
BBX 16 16 0 -2
BITMAP
1000
11ff
1101
1101
fdff
2500
2506
257c
6510
4dff
4910
f9ff
1710
3211
6619
c00f
ENDCHAR
STARTCHAR 25-51
ENCODING 14675
SWIDTH 1024 0
DWIDTH 16 0
BBX 16 16 0 -2
BITMAP
1006
101c
11f0
1021
fd33
2596
2484
2420
65ff
4c44
48c4
f88c
15e8
303c
6066
c1c3
ENDCHAR
STARTCHAR 25-52
ENCODING 14676
SWIDTH 1024 0
DWIDTH 16 0
BBX 16 16 0 -2
BITMAP
1108
1090
13fe
1022
fc22
25fe
2520
2520
65ff
4c61
4861
f8a3
14a2
312e
6220
c020
ENDCHAR
STARTCHAR 25-53
ENCODING 14677
SWIDTH 1024 0
DWIDTH 16 0
BBX 16 16 0 -2
BITMAP
0410
4410
4410
7dff
0410
fc10
2410
6410
c4fe
0400
ffff
0820
1f60
01c0
0770
7c1e
ENDCHAR
STARTCHAR 25-54
ENCODING 14678
SWIDTH 1024 0
DWIDTH 16 0
BBX 16 16 0 -2
BITMAP
1102
1186
1084
11fe
ff02
2502
2502
2502
65fe
4c48
4848
fc48
14c8
3089
6189
c307
ENDCHAR
STARTCHAR 25-55
ENCODING 14679
SWIDTH 1024 0
DWIDTH 16 0
BBX 16 16 0 -2
BITMAP
1000
11fe
1102
11fe
ff02
2502
25fe
2400
65fe
4c20
4820
fbff
1420
3020
6020
c020
ENDCHAR
STARTCHAR 25-56
ENCODING 14680
SWIDTH 1024 0
DWIDTH 16 0
BBX 16 16 0 -2
BITMAP
1000
13ff
1020
1020
fdfc
2444
2444
2444
67ff
4c00
48fe
f882
1482
3082
6082
c0fe
ENDCHAR
STARTCHAR 25-57
ENCODING 14681
SWIDTH 1024 0
DWIDTH 16 0
BBX 16 16 0 -2
BITMAP
1020
1020
1044
1084
fdfe
2482
2480
24fe
6520
4c20
4bff
f848
1448
30cc
6186
c303
ENDCHAR
STARTCHAR 25-58
ENCODING 14682
SWIDTH 1024 0
DWIDTH 16 0
BBX 16 16 0 -2
BITMAP
1081
1081
1081
10a1
fda1
2529
252d
6725
4721
4d21
4921
f923
1532
31e6
610d
c119
ENDCHAR
STARTCHAR 25-59
ENCODING 14683
SWIDTH 1024 0
DWIDTH 16 0
BBX 16 16 0 -2
BITMAP
1020
1020
13ff
1084
fc84
24cc
2448
27ff
6400
4c00
49fe
fd02
1502
3102
6102
c1fe
ENDCHAR
STARTCHAR 25-60
ENCODING 14684
SWIDTH 1024 0
DWIDTH 16 0
BBX 16 16 0 -2
BITMAP
1040
1040
1040
10ff
fc81
2521
2525
24a9
65fd
4c61
48f9
fcad
15a5
3323
6022
c00e
ENDCHAR
STARTCHAR 25-61
ENCODING 14685
SWIDTH 1024 0
DWIDTH 16 0
BBX 16 16 0 -2
BITMAP
1006
101c
11f0
1021
fd33
2592
2480
2410
6410
4dff
4854
fc54
14d6
3092
6193
c010
ENDCHAR
STARTCHAR 25-62
ENCODING 14686
SWIDTH 1024 0
DWIDTH 16 0
BBX 16 16 0 -2
BITMAP
1020
1020
13fe
1020
ffff
2488
2588
274f
6440
4cfc
4984
7b0c
14d8
3070
60dc
c387
ENDCHAR
STARTCHAR 25-63
ENCODING 14687
SWIDTH 1024 0
DWIDTH 16 0
BBX 16 16 0 -2
BITMAP
1080
109f
10e9
1089
fc89
248b
27ea
248a
648e
4dc4
4be4
faae
12aa
308a
609b
c191
ENDCHAR
STARTCHAR 25-64
ENCODING 14688
SWIDTH 1024 0
DWIDTH 16 0
BBX 16 16 0 -2
BITMAP
1000
11fe
1122
1122
fdfe
2522
2522
25fe
6420
4fff
48a8
f8a4
14a4
3122
6221
c020
ENDCHAR
STARTCHAR 25-65
ENCODING 14689
SWIDTH 1024 0
DWIDTH 16 0
BBX 16 16 0 -2
BITMAP
1020
1020
13ff
1020
fdfc
2424
27ff
2424
65fc
4c20
4920
f93c
1520
31a0
62e0
c63f
ENDCHAR
STARTCHAR 25-66
ENCODING 14690
SWIDTH 1024 0
DWIDTH 16 0
BBX 16 16 0 -2
BITMAP
1020
1020
11fe
1020
fc20
27ff
2484
24cc
6448
4dfe
4820
f820
17ff
3020
6020
c020
ENDCHAR
STARTCHAR 25-67
ENCODING 14691
SWIDTH 1024 0
DWIDTH 16 0
BBX 16 16 0 -2
BITMAP
2101
2129
2129
2129
fdef
2501
2501
25ff
6501
4d01
49ef
f929
1529
3329
6229
c601
ENDCHAR
STARTCHAR 25-68
ENCODING 14692
SWIDTH 1024 0
DWIDTH 16 0
BBX 16 16 0 -2
BITMAP
1020
1020
103f
1020
fdfe
2502
2502
25fe
6502
4d02
49fe
fc20
17ff
3020
6020
c020
ENDCHAR
STARTCHAR 25-69
ENCODING 14693
SWIDTH 1024 0
DWIDTH 16 0
BBX 16 16 0 -2
BITMAP
1010
1010
11ff
1010
fcfe
2410
25ff
2400
64fe
4c82
48fe
fc82
14fe
3082
6082
c08e
ENDCHAR
STARTCHAR 25-70
ENCODING 14694
SWIDTH 1024 0
DWIDTH 16 0
BBX 16 16 0 -2
BITMAP
1000
11ff
1048
1048
fc48
25ce
2502
2502
6502
4dce
4848
fc48
1448
3048
61ff
c000
ENDCHAR
STARTCHAR 25-71
ENCODING 14695
SWIDTH 1024 0
DWIDTH 16 0
BBX 16 16 0 -2
BITMAP
1010
1010
11ff
1000
fcfe
2482
24fe
2400
65ff
4d01
48fe
fc10
1410
3010
6010
c070
ENDCHAR
STARTCHAR 25-72
ENCODING 14696
SWIDTH 1024 0
DWIDTH 16 0
BBX 16 16 0 -2
BITMAP
7f40
127f
0c41
ffa2
1514
2408
4414
0ce3
0200
ffff
0418
0830
1f60
01c0
0778
7c0e
ENDCHAR
STARTCHAR 25-73
ENCODING 14697
SWIDTH 1024 0
DWIDTH 16 0
BBX 16 16 0 -2
BITMAP
1010
1010
11ff
1010
fc10
25ff
2545
256d
6529
4d7d
4911
fdff
1511
3111
6111
c117
ENDCHAR
STARTCHAR 25-74
ENCODING 14698
SWIDTH 1024 0
DWIDTH 16 0
BBX 16 16 0 -2
BITMAP
1020
1070
10d8
118c
ff77
2400
25e2
252a
652a
4dea
492a
fd2a
15e2
3122
6122
c16e
ENDCHAR
STARTCHAR 25-75
ENCODING 14699
SWIDTH 1024 0
DWIDTH 16 0
BBX 16 16 0 -2
BITMAP
1020
1020
11fe
1020
fdfc
2440
27ff
2484
6502
4efd
4884
fc84
14fc
3084
6084
c0fc
ENDCHAR
STARTCHAR 25-76
ENCODING 14700
SWIDTH 1024 0
DWIDTH 16 0
BBX 16 16 0 -2
BITMAP
0000
ff7e
8802
ae02
a27e
ae41
8841
ff3f
0200
ffff
0410
0830
3f60
01c0
0770
7c1e
ENDCHAR
STARTCHAR 25-77
ENCODING 14701
SWIDTH 1024 0
DWIDTH 16 0
BBX 16 16 0 -2
BITMAP
1020
1040
11fe
1102
fdfe
2502
2502
25fe
6400
4dfe
4820
fc20
14fc
3020
6020
c3ff
ENDCHAR
STARTCHAR 25-78
ENCODING 14702
SWIDTH 1024 0
DWIDTH 16 0
BBX 16 16 0 -2
BITMAP
1084
1084
13ff
1084
fca4
2420
25fe
2522
6522
4d22
4bff
f848
1448
30cc
6186
c303
ENDCHAR
STARTCHAR 25-79
ENCODING 14703
SWIDTH 1024 0
DWIDTH 16 0
BBX 16 16 0 -2
BITMAP
200a
2009
2008
23ff
fa08
2ae8
2a09
6a49
4bfb
5aaa
52ae
f2e4
2a55
2a8d
6217
c462
ENDCHAR
ENDFONT
